<?xml version="1.0" standalone="no"?>
<!DOCTYPE svg PUBLIC "-//W3C//DTD SVG 1.1//EN" "http://www.w3.org/Graphics/SVG/1.1/DTD/svg11.dtd" >
<svg xmlns="http://www.w3.org/2000/svg" xmlns:xlink="http://www.w3.org/1999/xlink" version="1.1">
<metadata></metadata>
<defs>
<font id="circularmedium" horiz-adv-x="1648" >
<font-face units-per-em="2048" ascent="1657" descent="-391" />
<missing-glyph horiz-adv-x="507" />
<glyph horiz-adv-x="0" />
<glyph unicode="&#xd;" horiz-adv-x="507" />
<glyph unicode=" "  horiz-adv-x="507" />
<glyph unicode="&#x09;" horiz-adv-x="507" />
<glyph unicode="&#xa0;" horiz-adv-x="507" />
<glyph unicode="!" horiz-adv-x="663" d="M182 135q0 63 43 107q43 45 105 45q64 0 107 -45q44 -46 44 -107t-44 -105t-107 -44q-61 0 -105 44q-43 43 -43 105zM186 1452h289l-57 -1022h-172z" />
<glyph unicode="&#x22;" horiz-adv-x="798" d="M76 1210q0 62 39 102t100 40t100 -40t39 -102q0 -14 -1 -23q-2 -17 -5 -24l-92 -379h-84l-90 379q-3 17 -4 23q-2 20 -2 24zM444 1210q0 62 39 102t101 40q61 0 100 -40t39 -102q0 -14 -1 -23q-2 -17 -5 -24l-92 -379h-84l-90 379q0 2 -1.5 6t-2.5 8.5t-1 8.5 q-2 20 -2 24z" />
<glyph unicode="#" horiz-adv-x="1515" d="M92 336v178h291l66 305h-256v178h294l72 330h195l-72 -330h279l71 330h197l-72 -330h266v-178h-305l-65 -305h270v-178h-307l-72 -336h-196l71 336h-278l-72 -336h-195l72 336h-254zM578 514h278l66 305h-279z" />
<glyph unicode="$" horiz-adv-x="1218" d="M96 389l230 64q7 -86 58 -164q50 -77 153 -101v377l-37 8q-164 37 -258 132q-95 95 -95 245q0 75 29 144q28 67 81 121q56 57 124 90q73 35 156 47v217h188v-219q91 -15 156 -52q64 -36 110 -84q46 -47 71 -101q26 -54 36 -105l-221 -70q-4 20 -14 50q-10 29 -27 55 q-20 29 -45 52q-25 22 -66 38v-367l18 -4q184 -40 277 -147q92 -106 92 -242q0 -66 -25 -135q-25 -68 -73 -119q-51 -54 -122 -91q-76 -39 -167 -51v-217h-188v215q-105 12 -187 55q-81 43 -134 99q-54 57 -84 126t-36 134zM387 965q0 -57 36 -100t114 -60v336 q-74 -18 -112 -68t-38 -108zM725 188q78 16 114 65q36 48 36 107q0 56 -36 99q-35 42 -114 65v-336z" />
<glyph unicode="%" horiz-adv-x="1714" d="M100 1016q0 69 27 129q27 59 73 104q48 47 107 71q63 26 129 26q67 0 128 -26q60 -25 107 -71q46 -45 73 -104q28 -62 28 -129q0 -68 -28 -130q-29 -63 -73 -105q-47 -44 -108 -68q-64 -25 -129 -25q-67 0 -128 26q-59 25 -106 69q-45 42 -73 104q-27 60 -27 129zM285 0 l946 1327h213l-944 -1327h-215zM291 1016q0 -66 42 -109t103 -43q63 0 103 43q41 44 41 109q0 64 -41 107q-40 42 -103 42q-61 0 -103 -42t-42 -107zM956 309q0 69 27 129q27 61 73 105q46 45 107 70q63 26 129 26q67 0 128 -26q62 -26 107 -70q47 -46 74 -105 q27 -60 27 -129q0 -70 -27 -130t-74 -104q-49 -46 -108 -69q-61 -24 -129 -24q-69 0 -128 25q-57 24 -106 70q-46 43 -73 103t-27 129zM1147 309q0 -65 42 -108t103 -43q63 0 103 43q41 44 41 108q0 65 -41 108q-41 42 -103 42q-61 0 -103 -42t-42 -108z" />
<glyph unicode="&#x26;" horiz-adv-x="1449" d="M139 354q0 66 19 125q18 56 51 104q35 50 79 89q50 44 103 84l15 10l-25 27q-26 26 -55 61q-34 41 -54 75q-26 44 -41 86q-16 45 -16 97q0 91 34 159q35 70 89 115q58 49 125 72q72 25 141 25q86 0 159 -26t126 -73t83 -113q29 -64 29 -149q0 -56 -17 -100 q-19 -50 -46 -88q-30 -43 -66 -76q-43 -40 -75 -63l-64 -47l242 -252l346 372v-307l-199 -219l328 -342h-317l-164 172q-86 -92 -183 -145q-99 -54 -215 -54q-104 0 -185 33q-79 32 -136 86q-56 53 -83 122q-28 72 -28 140zM383 371q0 -37 13 -67q13 -29 38 -58 q23 -26 61 -42t80 -16q73 0 130 39q56 38 112 99l2 2l-268 284l-49 -37q-53 -39 -86 -86t-33 -118zM449 1126q0 -54 28 -97q29 -45 68 -85l41 -45l84 62q58 44 78 83t20 82q0 66 -45 111t-117 45q-29 0 -56 -9t-50 -29q-22 -19 -37 -49q-14 -28 -14 -69z" />
<glyph unicode="'" horiz-adv-x="430" d="M76 1210q0 62 39 102t100 40t100 -40t39 -102q0 -14 -1 -23q-2 -17 -5 -24l-92 -379h-84l-90 379q-3 17 -4 23q-2 20 -2 24z" />
<glyph unicode="(" horiz-adv-x="649" d="M98 655q0 170 32 318q32 147 88 268q59 127 131 225q78 106 161 189l139 -127q-162 -179 -255 -387q-95 -213 -95 -486t95 -487q93 -210 255 -387l-139 -125q-86 86 -161 188q-71 97 -131 226q-56 121 -88 268q-32 148 -32 317z" />
<glyph unicode=")" horiz-adv-x="649" d="M0 -219q161 173 256 387q94 212 94 487q0 276 -94 486q-95 213 -256 387l139 127q81 -81 162 -189q74 -99 131 -225q56 -123 87 -268q32 -148 32 -318q0 -169 -32 -317q-31 -145 -87 -268q-58 -129 -131 -226q-78 -104 -162 -188z" />
<glyph unicode="*" horiz-adv-x="917" d="M59 1092l60 176l243 -84v268h193v-266l244 82l59 -176l-248 -82l160 -209l-149 -111l-164 215l-154 -213l-151 111l155 207z" />
<glyph unicode="+" horiz-adv-x="1185" d="M106 500v194h386v400h202v-400h385v-194h-385v-404h-202v404h-386z" />
<glyph unicode="," horiz-adv-x="622" d="M133 150q0 65 49 110q50 45 121 45q82 0 134 -59t52 -158q0 -111 -32 -185q-34 -78 -82 -128q-52 -53 -109 -79q-63 -29 -110 -34v121q33 7 67 29q36 23 59 50q27 32 41 65q15 36 15 77q-6 -4 -17 -7q-12 -3 -32 -3q-69 0 -112 42q-44 42 -44 114z" />
<glyph unicode="-" horiz-adv-x="761" d="M92 494v211h578v-211h-578z" />
<glyph unicode="." horiz-adv-x="606" d="M137 154q0 68 48 118t118 50q69 0 119 -50q49 -49 49 -118q0 -70 -49 -118q-50 -48 -119 -48q-70 0 -118 48t-48 118z" />
<glyph unicode="/" horiz-adv-x="933" d="M0 -10l715 1472h219l-715 -1472h-219z" />
<glyph unicode="0" horiz-adv-x="1267" d="M92 664q0 130 26 254q25 121 93 223q64 97 170 157q105 60 254 60q150 0 253 -60q105 -61 169 -157q68 -102 93 -223q26 -124 26 -254t-26 -254q-26 -122 -93 -224q-64 -96 -169 -157q-103 -60 -253 -60q-149 0 -254 60q-106 60 -170 157q-67 102 -93 224 q-26 124 -26 254zM336 664q0 -132 23 -223q24 -94 71 -156q34 -45 84 -72t121 -27t121 27t84 72q46 61 69 156q23 97 23 223q0 125 -23 222q-23 94 -69 156q-34 45 -84 72t-121 27t-121 -27t-84 -72q-50 -62 -72 -156q-22 -92 -22 -222z" />
<glyph unicode="1" horiz-adv-x="770" d="M57 909v168q145 5 236 75q93 72 115 175h213v-1327h-242v909h-322z" />
<glyph unicode="2" horiz-adv-x="1099" d="M68 0q2 86 18 162q17 77 53 144q37 68 98 129q63 63 146 114l219 137q89 55 130 117q40 61 40 133q0 43 -14 78q-14 36 -42 65q-26 27 -70 46q-42 18 -97 18q-117 0 -174 -71q-58 -72 -58 -175q0 -10 2 -34q1 -6 3 -17.5t2 -16.5l-238 17q0 3 -1.5 15l-2.5 20 q-2 28 -2 41q0 83 32 164q31 79 92 140q60 60 148 96t201 36t197 -34q89 -36 146 -90q62 -59 92 -132q32 -78 32 -162q0 -127 -68 -233q-69 -107 -188 -179l-258 -159q-46 -29 -84 -66q-36 -36 -51 -86h657v-217h-960z" />
<glyph unicode="3" horiz-adv-x="1128" d="M53 389l240 49q2 -58 22 -105q21 -47 57 -82q35 -33 83 -52q49 -19 102 -19q59 0 108 19q42 16 78 49q33 30 50 71q16 39 16 87q0 57 -21 99t-54 68q-35 27 -76 39q-46 13 -85 13q-45 0 -77 -8q-31 -8 -47 -15l-113 182l366 328h-604v215h922v-205l-361 -315 q73 -1 146 -29q70 -26 128 -78q54 -49 90 -126q34 -74 34 -171q0 -86 -34 -163q-36 -81 -97 -139q-62 -59 -156 -96q-92 -36 -211 -36q-113 0 -206 35q-89 33 -155 92q-65 57 -102 133q-37 75 -43 160z" />
<glyph unicode="4" horiz-adv-x="1202" d="M68 291v266l565 770h315v-819h223v-217h-223v-291h-241v291h-639zM289 508h418v571z" />
<glyph unicode="5" horiz-adv-x="1128" d="M66 367l231 59q7 -106 80 -177t188 -71q51 0 98 18q45 17 80 48q36 31 55 75t19 101q0 60 -21 107q-20 45 -57 77q-36 32 -81 46q-50 16 -97 16q-71 0 -129 -26q-56 -25 -92 -67l-231 84l163 670h727v-215h-561l-82 -336q43 45 113 69q66 23 141 23q102 0 183 -29 q84 -30 144 -87q59 -56 94 -140q34 -81 34 -186q0 -93 -35 -177q-35 -83 -99 -146q-62 -60 -158 -99q-92 -37 -208 -37q-109 0 -197 33q-91 34 -154 88t-103 128q-39 72 -45 151z" />
<glyph unicode="6" horiz-adv-x="1189" d="M94 586q0 178 53 323q51 141 149 243q96 101 226 153q132 53 285 53q88 0 166 -19q72 -18 117 -47l-70 -200q-32 18 -91 36q-56 17 -136 17q-94 0 -173 -30q-80 -30 -139 -85q-58 -54 -96 -134t-45 -175q53 80 142 119q88 39 196 39q97 0 181 -32q83 -32 143 -90 q61 -59 94 -142q32 -80 32 -185q0 -107 -39 -189q-41 -86 -108 -146q-67 -59 -160 -93q-91 -33 -196 -33q-127 0 -226 48q-97 47 -166 133q-67 83 -103 196q-36 112 -36 240zM367 426q0 -56 21 -103t57 -78q35 -31 82 -49t98 -18t98 18q48 19 83 49q34 30 56 78 q21 47 21 103t-21 103t-56 79t-83 49t-98 17q-52 0 -100 -17q-47 -17 -82 -49t-56 -79q-20 -44 -20 -103z" />
<glyph unicode="7" horiz-adv-x="1011" d="M10 1112v215h991v-215q-22 -17 -74 -66q-37 -35 -103 -111q-48 -56 -114 -157q-59 -91 -110 -206q-51 -116 -90 -259q-38 -139 -53 -313h-254q10 135 38 260q26 118 66 225q39 105 84 192q46 88 92 157q104 156 240 278h-713z" />
<glyph unicode="8" horiz-adv-x="1157" d="M86 354q0 114 70 202q68 86 176 124q-96 34 -156 120q-59 84 -59 183q0 82 35 152q34 68 96 118q63 51 145 77q87 28 185 28q96 0 185 -28q83 -26 146 -77q64 -51 97 -118q34 -68 34 -152q0 -49 -15 -95q-15 -45 -44 -87q-31 -44 -69 -72q-43 -32 -87 -49q52 -18 97 -50 q41 -28 78 -74q35 -43 53 -93q18 -51 18 -109q0 -85 -34 -153q-36 -71 -98 -122q-65 -53 -156 -81q-93 -29 -205 -29q-113 0 -205 29q-91 29 -155 81q-62 51 -98 122q-34 68 -34 153zM330 379q0 -82 63 -142q64 -61 185 -61q122 0 186 61q63 60 63 142q0 81 -63 143 q-64 62 -186 62q-121 0 -185 -62q-63 -62 -63 -143zM360 969q0 -85 60 -139q61 -55 158 -56q98 1 159 56q60 54 60 139q0 75 -59 132q-57 56 -160 56q-104 0 -160 -56q-58 -58 -58 -132z" />
<glyph unicode="9" horiz-adv-x="1191" d="M76 895q0 101 39 187t106 147q66 60 159 95q90 34 195 34q106 0 199 -37q95 -38 167 -114q73 -78 116 -193q43 -116 43 -277q0 -181 -43 -322q-44 -145 -128 -242q-85 -98 -213 -151q-129 -53 -296 -53q-82 0 -169 21q-88 21 -138 55l67 201q41 -25 106 -43 q70 -19 132 -19q104 0 184 30t135 85q56 56 86 132q31 78 35 171q-37 -66 -121 -109q-85 -44 -202 -44q-94 0 -174 29q-83 30 -146 87t-101 141t-38 189zM317 903q0 -59 21 -104q21 -46 55 -78t81 -49q48 -17 97 -17t96 18t82 49q34 30 56 78q20 44 20 103q0 58 -20 101 q-21 45 -56 77q-36 33 -82 51q-44 17 -96 17q-53 0 -97 -17q-46 -18 -81 -50q-34 -31 -55 -77q-21 -47 -21 -102z" />
<glyph unicode=":" horiz-adv-x="618" d="M143 844q0 70 48 118t118 48q67 0 117 -48q49 -48 49 -118q0 -68 -49 -116q-50 -48 -117 -48q-70 0 -118 48t-48 116zM145 152q0 68 49 117q48 48 117 48q67 0 117 -48q49 -48 49 -117q0 -68 -49 -116q-50 -48 -117 -48q-69 0 -117 48q-49 49 -49 116z" />
<glyph unicode=";" horiz-adv-x="628" d="M143 844q0 70 48 118t118 48q67 0 117 -48q49 -48 49 -118q0 -68 -49 -116q-50 -48 -117 -48q-70 0 -118 48t-48 116zM145 141q0 64 46 107t116 43q77 0 127 -58q49 -56 49 -149q0 -103 -30 -176q-29 -72 -78 -122q-46 -48 -104 -75t-105 -33v115q30 7 64 28q33 20 56 48 q25 30 39 62q15 35 15 73q-6 -4 -17 -7q-12 -3 -30 -3q-65 0 -106 40q-42 41 -42 107z" />
<glyph unicode="&#x3c;" horiz-adv-x="1003" d="M72 500v192l864 434v-227l-619 -301l619 -303v-227z" />
<glyph unicode="=" horiz-adv-x="1224" d="M127 299v195h973v-195h-973zM127 702v193h973v-193h-973z" />
<glyph unicode="&#x3e;" horiz-adv-x="1003" d="M68 68v225l622 303l-622 301v229l864 -434v-192z" />
<glyph unicode="?" horiz-adv-x="1064" d="M68 1055q0 77 28 152q29 78 87 139t145 99t202 38q111 0 201 -35q88 -34 147 -92q59 -57 89 -131q30 -73 30 -152q0 -123 -57 -210t-147 -150l-88 -62q-103 -73 -103 -194v-11q0 -2 2 -16h-205q-1 14 -3 38q-1 12 -1 40q0 90 38 168q36 74 128 141l94 68q52 38 74 81 q23 44 23 97q0 38 -14 77q-13 37 -41 66q-26 28 -69 46q-42 18 -98 18t-100 -21t-73 -53q-28 -31 -44 -75q-14 -39 -14 -85q0 -22 3 -49q3 -26 9 -43l-231 17q-12 44 -12 94zM354 135q0 63 43 107q43 45 107 45q62 0 105 -45q44 -46 44 -107t-44 -105t-105 -44 q-63 0 -107 44q-43 43 -43 105z" />
<glyph unicode="@" horiz-adv-x="1691" d="M86 680q0 176 64 327q63 148 172 254q107 104 255 163t310 59q157 0 290 -51q130 -50 232 -141q97 -87 155 -212q56 -121 56 -266q0 -117 -33 -213q-34 -99 -89 -167q-56 -69 -129 -110q-71 -40 -152 -40q-82 0 -132 33q-53 35 -69 94q-40 -66 -107 -99q-64 -32 -133 -32 t-125 25q-58 26 -98 72q-42 49 -65 111q-23 63 -23 144q0 101 33 186q34 89 88 150q56 64 129 98q75 35 155 35q59 0 123 -31q61 -30 84 -94l19 98h180l-109 -508q0 -1 -1 -5t-2 -7.5t-1 -7.5q-2 -16 -2 -23q0 -28 16 -54q15 -24 54 -24q41 0 79 29q35 27 67 79 q27 45 47 117q18 66 18 142q0 113 -40 203q-41 92 -113 158q-74 68 -175 105q-103 38 -225 38q-135 0 -245 -46q-112 -47 -194 -129t-129 -200t-47 -260q0 -133 43 -243q44 -111 124 -193q80 -81 199 -128q117 -46 267 -46q106 0 205 31t191 100l92 -125q-46 -43 -102 -73 q-61 -33 -123 -53q-71 -23 -132 -34q-68 -12 -131 -12q-183 0 -330 56q-154 59 -261 158q-112 104 -170 244q-60 144 -60 318zM655 645q0 -84 37 -140t121 -56q48 0 86 22t69 64q29 39 46 96q16 55 18 123q0 82 -39 128t-114 46q-54 0 -95 -26q-42 -26 -69 -65 q-29 -41 -44 -92q-16 -54 -16 -100z" />
<glyph unicode="A" horiz-adv-x="1456" d="M20 0l566 1452h284l566 -1452h-269l-137 365h-614l-135 -365h-261zM502 592h442l-221 594z" />
<glyph unicode="B" horiz-adv-x="1243" d="M174 0v1452h500q102 0 186 -29q82 -28 139 -81q58 -53 87 -123q30 -72 30 -158q0 -117 -60 -198q-59 -80 -155 -115q116 -30 189 -124q71 -92 71 -223q0 -87 -33 -161q-34 -76 -91 -127q-60 -54 -142 -83q-84 -30 -184 -30h-537zM418 209h250q112 0 177 55q66 56 66 154 q0 93 -60 153t-175 60h-258v-422zM418 838h223q110 0 169 55q60 55 60 147q0 93 -61 148t-174 55h-217v-405z" />
<glyph unicode="C" horiz-adv-x="1552" d="M86 725q0 178 61 318q61 141 163 238t234 150q131 52 273 52q136 0 248 -38q106 -36 192 -103q84 -66 136 -150q53 -87 77 -180l-231 -78q-17 68 -50 124q-34 58 -86 101q-54 44 -123 68q-70 24 -163 24t-176 -32q-87 -34 -154 -99q-67 -66 -108 -165q-41 -100 -41 -230 q0 -128 40 -224q41 -98 107 -163q65 -63 155 -99q86 -34 179 -34q95 0 164 26q73 27 125 72t89 103q36 57 54 118l226 -73q-24 -90 -78 -180q-52 -85 -136 -153q-86 -68 -194 -108q-112 -41 -250 -41q-147 0 -279 51q-131 51 -234 149q-101 96 -161 238q-59 139 -59 318z " />
<glyph unicode="D" horiz-adv-x="1478" d="M174 0v1452h514q148 0 277 -48q130 -48 224 -141t150 -230q56 -138 56 -310q0 -173 -56 -309q-57 -138 -151 -228q-98 -93 -225 -139q-130 -47 -277 -47h-512zM420 225h258q91 0 178 31q82 29 146 92q62 60 100 155q37 92 37 220q0 127 -36 222q-37 97 -98 158 q-63 63 -147 93q-87 31 -178 31h-260v-1002z" />
<glyph unicode="E" horiz-adv-x="1191" d="M174 0v1452h897v-229h-651v-385h590v-224h-590v-385h651v-229h-897z" />
<glyph unicode="F" horiz-adv-x="1140" d="M174 0v1452h903v-231h-657v-408h590v-227h-590v-586h-246z" />
<glyph unicode="G" horiz-adv-x="1585" d="M86 727q0 180 61 320q62 142 163 237q104 98 234 148q132 51 273 51q132 0 240 -36q109 -36 191 -96q81 -59 140 -141q56 -78 85 -170l-232 -88q-18 62 -54 117q-35 55 -89 96q-58 44 -124 66q-70 24 -157 24q-90 0 -174 -31q-85 -31 -155 -98q-68 -65 -110 -164 t-42 -235q0 -134 40 -232q42 -102 106 -166q66 -66 153 -101q82 -33 180 -33q114 0 187 33q78 35 126 83q51 51 74 106q25 59 29 103h-479v215h710v-735h-198l-19 184q-26 -44 -64 -79q-42 -39 -96 -68q-59 -32 -127 -49q-76 -19 -157 -19q-142 0 -272 51q-127 50 -228 149 q-99 97 -157 238q-58 140 -58 320z" />
<glyph unicode="H" horiz-adv-x="1523" d="M174 0v1452h246v-600h682v600h248v-1452h-248v621h-682v-621h-246z" />
<glyph unicode="I" horiz-adv-x="598" d="M174 0v1452h250v-1452h-250z" />
<glyph unicode="J" horiz-adv-x="1120" d="M41 438v94l240 50v-136q0 -128 63 -187q62 -58 160 -58q99 0 155 62q58 64 58 173v1016h246v-1010q0 -96 -33 -182q-34 -87 -92 -150q-62 -66 -144 -103q-85 -38 -188 -38q-109 0 -193 34q-88 35 -146 95q-59 61 -93 148q-33 86 -33 192z" />
<glyph unicode="K" horiz-adv-x="1402" d="M174 0v1452h246v-696l624 696h324l-588 -641l594 -811h-309l-453 629l-192 -211v-418h-246z" />
<glyph unicode="L" horiz-adv-x="1136" d="M174 0v1452h246v-1219h665v-233h-911z" />
<glyph unicode="M" horiz-adv-x="1945" d="M174 0v1452h328l471 -1108l465 1108h334v-1452h-244v1069l-453 -1069h-213l-448 1065v-1065h-240z" />
<glyph unicode="N" horiz-adv-x="1566" d="M174 0v1452h313l660 -1030v1030h246v-1452h-256l-717 1100v-1100h-246z" />
<glyph unicode="O" d="M86 727q0 179 61 319q60 138 164 237q103 98 236 149q134 51 276 51q143 0 277 -51q132 -50 235 -149t165 -237q63 -141 63 -319t-63 -319q-63 -142 -165 -239q-103 -99 -235 -149q-134 -51 -277 -51t-276 51t-236 149q-102 98 -164 239q-61 140 -61 319zM338 727 q0 -130 42 -229q42 -98 109 -164q66 -64 155 -98q87 -33 179 -33q93 0 181 33q89 33 155 98q69 68 110 164q42 99 42 229t-42 229q-41 96 -110 164q-68 67 -155 99q-86 32 -181 32t-179 -32q-88 -33 -155 -99t-109 -164q-42 -99 -42 -229z" />
<glyph unicode="P" horiz-adv-x="1232" d="M174 0v1452h539q105 0 189 -34q87 -35 147 -92q61 -58 94 -140t33 -176q0 -96 -33 -177q-33 -82 -94 -141q-60 -58 -147 -92q-86 -33 -189 -33h-293v-567h-246zM420 784h256q117 0 183 60q67 61 67 164q0 104 -67 166q-65 61 -183 61h-256v-451z" />
<glyph unicode="Q" d="M86 727q0 179 61 319q60 138 164 237q103 98 236 149q134 51 276 51q143 0 277 -51q132 -50 235 -149t165 -237q63 -141 63 -319q0 -159 -52 -292q-50 -129 -137 -226l172 -193l-166 -141l-178 195q-85 -49 -182 -75q-98 -26 -197 -26q-143 0 -276 51t-236 149 q-102 98 -164 239q-61 140 -61 319zM338 727q0 -130 42 -229q42 -98 109 -164q66 -64 155 -98q87 -33 179 -33q60 0 111 11q55 12 106 36l-239 266l168 143l241 -268q47 63 74 147q27 82 27 189q0 130 -42 229q-41 96 -110 164q-68 67 -155 99q-86 32 -181 32t-179 -32 q-88 -33 -155 -99t-109 -164q-42 -99 -42 -229z" />
<glyph unicode="R" horiz-adv-x="1273" d="M174 0v1452h557q106 0 190 -34q85 -34 143 -94t90 -140q32 -81 32 -172q0 -156 -87 -267q-85 -109 -241 -147l328 -598h-279l-305 573h-180v-573h-248zM422 791h264q114 0 182 60t68 161q0 103 -68 163q-67 60 -182 60h-264v-444z" />
<glyph unicode="S" horiz-adv-x="1226" d="M70 416l229 65q6 -55 29 -109q22 -52 64 -92q43 -41 102 -65q62 -25 137 -25q130 0 197 58t67 143q0 71 -50 124q-49 52 -145 73l-204 43q-166 34 -268 139q-101 104 -101 268q0 92 39 173q40 84 106 142q68 60 157 95q90 35 192 35q128 0 219 -35q89 -34 150 -89 q60 -54 93 -120t45 -127l-221 -70q-7 36 -23 73q-19 42 -51 73q-34 32 -85 55q-52 23 -125 23q-55 0 -102 -18t-79 -46q-33 -28 -51 -66t-18 -79q0 -69 42 -119t128 -68l209 -43q192 -39 292 -151q101 -113 101 -266q0 -86 -34 -164q-36 -84 -99 -142q-64 -59 -161 -98 q-93 -37 -220 -37q-140 0 -241 40q-100 40 -170 105q-66 62 -105 144q-37 79 -45 158z" />
<glyph unicode="T" horiz-adv-x="1243" d="M27 1221v231h1190v-231h-474v-1221h-245v1221h-471z" />
<glyph unicode="U" horiz-adv-x="1398" d="M158 506v946h243v-932q0 -153 79 -235t218 -82q142 0 220 82q77 81 77 235v932h246v-946q0 -131 -42 -232q-41 -99 -115 -168q-71 -67 -172 -102q-100 -35 -214 -35q-113 0 -213 35q-99 34 -171 102t-114 168q-42 101 -42 232z" />
<glyph unicode="V" horiz-adv-x="1380" d="M20 1452h267l405 -1130l408 1130h260l-549 -1452h-250z" />
<glyph unicode="W" horiz-adv-x="2082" d="M27 1452h258l290 -1061l340 1061h256l347 -1069l284 1069h254l-407 -1452h-254l-353 1098l-352 -1098h-252z" />
<glyph unicode="X" horiz-adv-x="1323" d="M27 0l485 727l-481 725h295l338 -532l340 532h288l-483 -727l481 -725h-295l-338 530l-342 -530h-288z" />
<glyph unicode="Y" horiz-adv-x="1306" d="M20 1452h291l348 -608l351 608h276l-512 -838v-614h-246v614z" />
<glyph unicode="Z" horiz-adv-x="1302" d="M86 0v242l805 979h-782v231h1099v-233l-815 -986h826v-233h-1133z" />
<glyph unicode="[" horiz-adv-x="622" d="M174 -322v1958h438v-184h-237v-1587h237v-187h-438z" />
<glyph unicode="\" horiz-adv-x="935" d="M0 1462h225l711 -1472h-223z" />
<glyph unicode="]" horiz-adv-x="622" d="M10 -135h238v1587h-238v184h439v-1958h-439v187z" />
<glyph unicode="^" horiz-adv-x="1077" d="M41 721l401 733h193l401 -733h-231l-264 500l-267 -500h-233z" />
<glyph unicode="_" horiz-adv-x="1087" d="M20 0h1047v-197h-1047v197z" />
<glyph unicode="`" horiz-adv-x="583" d="M59 1425h285l180 -303h-194z" />
<glyph unicode="a" horiz-adv-x="1089" d="M92 270q0 68 24 119q26 54 63 89q43 40 95 61q51 21 119 32l256 39q44 6 59 26t15 46q0 64 -45 108q-46 44 -143 44q-95 0 -146 -53q-52 -53 -59 -128l-217 49q6 63 39 123q33 59 86 105q50 43 128 71q75 27 166 27q112 0 196 -31q80 -30 131 -82t74 -118q23 -65 23 -142 v-495q0 -54 6 -110q3 -32 7 -50h-221q-3 10 -7 36q-4 28 -4 91q-37 -61 -110 -108q-77 -50 -197 -50q-74 0 -140 25q-64 24 -107 66q-42 40 -67 97q-24 54 -24 113zM330 285q0 -52 37 -90q38 -39 108 -39q51 0 94 13q45 14 79 43q32 28 54 79q21 49 21 123v45l-260 -39 q-55 -10 -94 -42t-39 -93z" />
<glyph unicode="b" horiz-adv-x="1236" d="M154 0v1483h233v-609q34 60 116 105q81 45 197 45q115 0 199 -40q85 -40 144 -111q60 -72 89 -164q29 -91 29 -205q0 -112 -33 -210t-93 -168t-147 -111q-86 -40 -196 -40q-106 0 -185 43q-78 43 -122 115v-133h-231zM385 502q0 -74 21 -132q22 -62 56 -100 q37 -42 85 -62q52 -22 106 -22q117 0 193 84q76 83 76 232t-75 230t-194 81q-115 0 -191 -81q-77 -82 -77 -230z" />
<glyph unicode="c" horiz-adv-x="1107" d="M76 500q0 114 39 212t108 168q67 69 162 109q91 39 201 39q99 0 178 -29q80 -29 135 -74q58 -48 92 -106q35 -61 51 -119l-213 -77q-7 32 -25 66q-18 35 -47 61t-71 43q-39 16 -98 16q-56 0 -105 -21q-51 -22 -87 -59q-38 -39 -60 -96q-23 -58 -23 -133q0 -74 23 -134 q22 -58 60 -99q35 -38 89 -60q51 -21 107 -21q55 0 101 19q42 18 74 46q29 26 48 59q20 36 27 61l209 -76q-18 -59 -56 -117q-40 -61 -93 -104q-60 -49 -134 -76q-79 -29 -176 -29q-112 0 -205 40q-94 40 -163 112q-66 69 -108 168q-40 95 -40 211z" />
<glyph unicode="d" horiz-adv-x="1232" d="M76 502q0 105 35 201t97 167q65 74 150 113q90 41 193 41q67 0 115 -13q47 -13 85 -35q33 -19 58 -46q22 -24 35 -49v602h231v-1301q0 -74 4 -119q5 -51 6 -63h-227q-4 14 -7 57q-3 40 -3 72q-35 -64 -111 -109q-77 -45 -182 -45q-110 0 -197 40q-86 39 -150 111 q-62 69 -97 167q-35 97 -35 209zM313 502q0 -143 73 -231q72 -87 196 -87q56 0 106 24q51 25 84 65q34 42 54 101q20 60 20 130q0 142 -73 226q-72 83 -189 83q-118 0 -194 -84q-77 -85 -77 -227z" />
<glyph unicode="e" horiz-adv-x="1122" d="M76 504q0 120 40 215q41 98 107 165q67 68 156 106q90 38 182 38q116 0 206 -37q92 -38 154 -104q61 -65 95 -163q33 -94 33 -214q0 -22 -2 -50q-1 -14 -5 -26h-729q1 -55 25 -104q24 -50 59 -82q38 -35 85 -54q49 -20 104 -20q108 0 167 50t83 124l200 -63 q-22 -69 -59 -123q-40 -58 -96 -101q-55 -42 -131 -67q-77 -25 -164 -25q-104 0 -195 36q-94 37 -162 105q-69 69 -111 168t-42 226zM319 608h490q-1 41 -17 83q-14 38 -47 71q-32 32 -75 49q-45 18 -107 18q-57 0 -99 -19q-46 -21 -75 -51q-32 -33 -49 -72q-20 -44 -21 -79 z" />
<glyph unicode="f" horiz-adv-x="716" d="M35 791v206h174v138q0 85 25 150q26 67 72 113q45 45 110 70q66 25 141 25q47 0 79 -7q35 -8 46 -13v-203q-9 4 -31 7q-21 3 -55 3q-24 0 -50 -6t-47 -24q-22 -19 -36 -47t-14 -75v-131h231v-206h-231v-791h-240v791h-174z" />
<glyph unicode="g" horiz-adv-x="1206" d="M82 -55l219 57q12 -92 79 -154q65 -61 171 -61q283 0 283 299v104q-31 -57 -106 -102q-71 -43 -183 -43q-102 0 -185 37q-85 38 -145 101q-61 64 -96 154t-35 193q0 102 34 189t94 153t145 105q86 39 188 39q117 0 189 -42q73 -43 106 -104v127h229v-903q0 -97 -28 -192 q-27 -90 -88 -164q-60 -72 -157 -115q-96 -43 -239 -43q-97 0 -181 29q-83 29 -146 78t-100 115t-48 143zM324 530q0 -131 71 -206q72 -76 189 -76q114 0 185 77t71 205q0 62 -20 116q-20 53 -53 89q-35 37 -81 57q-45 19 -102 19q-116 0 -188 -76q-72 -77 -72 -205z" />
<glyph unicode="h" horiz-adv-x="1175" d="M154 0v1483h237v-582q50 65 129 95q78 30 156 30q90 0 161 -31q66 -29 113 -85q46 -55 68 -126q22 -70 22 -153v-631h-237v590q0 92 -46 156q-47 65 -159 65q-98 0 -151 -65q-51 -63 -56 -160v-586h-237z" />
<glyph unicode="i" horiz-adv-x="542" d="M117 1348q0 65 45 110t108 45q66 0 111 -45t45 -110q0 -66 -45 -110q-46 -44 -111 -44q-62 0 -108 44q-45 44 -45 110zM154 0v997h235v-997h-235z" />
<glyph unicode="j" horiz-adv-x="544" d="M-41 -205q14 -3 30 -4q28 -2 42 -2q68 0 95 34q28 36 28 95v1079h237v-1097q0 -72 -20 -128q-21 -58 -60 -102q-37 -41 -93 -66q-54 -24 -124 -24q-61 0 -93 7q-35 7 -42 12v196zM117 1350q0 65 45 110t108 45q66 0 111 -45t45 -110q0 -64 -45 -109t-111 -45 q-63 0 -108 45t-45 109z" />
<glyph unicode="k" horiz-adv-x="1114" d="M154 0v1483h235v-889l383 403h315l-409 -422l418 -575h-291l-293 408l-123 -129v-279h-235z" />
<glyph unicode="l" horiz-adv-x="544" d="M154 0v1483h237v-1483h-237z" />
<glyph unicode="m" horiz-adv-x="1787" d="M154 0v997h227v-127q43 75 127 116q83 40 168 40q98 0 178 -44q81 -44 121 -132q59 98 142 137t181 39q70 0 132 -22t112 -69q49 -46 79 -118t30 -170v-647h-230v608q0 89 -46 147t-146 58q-94 0 -151 -64q-56 -63 -56 -157v-592h-234v608q0 86 -45 146q-44 59 -147 59 q-97 0 -152 -62t-55 -159v-592h-235z" />
<glyph unicode="n" horiz-adv-x="1175" d="M154 0v997h231v-133q50 87 130 124q82 38 165 38q90 0 160 -31q66 -29 111 -85t67 -126t22 -153v-631h-237v590q0 92 -46 156q-47 65 -159 65q-102 0 -155 -69q-52 -68 -52 -167v-575h-237z" />
<glyph unicode="o" horiz-adv-x="1185" d="M76 500q0 115 39 211q40 99 107 167t164 110q93 40 206 40q114 0 207 -40q97 -42 164 -110q69 -70 108 -167q39 -96 39 -211t-39 -212q-39 -98 -108 -168t-164 -111q-93 -40 -207 -40q-113 0 -206 40q-95 41 -164 111q-67 69 -107 168q-39 97 -39 212zM313 500 q0 -78 24 -138q23 -58 61 -99q35 -37 88 -60q50 -21 106 -21t105 21q53 22 89 60q41 42 62 99q22 59 22 138t-22 136q-22 56 -62 98q-39 40 -89 60q-48 19 -105 19q-58 0 -106 -19q-51 -20 -88 -60t-61 -98t-24 -136z" />
<glyph unicode="p" horiz-adv-x="1236" d="M154 -389v1386h229v-135q38 66 119 112q82 46 198 46q113 0 197 -40q85 -40 144 -110t89 -164q31 -98 31 -206q0 -113 -33 -208q-34 -97 -94 -166q-62 -71 -148 -111t-194 -40q-109 0 -186 40t-117 98v-502h-235zM387 500q0 -144 76 -229t192 -85q119 0 194 85t75 229 q0 140 -74 225q-74 84 -195 84q-57 0 -108 -23t-84 -62q-34 -40 -55 -97t-21 -127z" />
<glyph unicode="q" horiz-adv-x="1220" d="M76 502q0 106 33 201q34 97 94 166q64 73 149 112q90 41 197 41q69 0 117 -14q53 -16 88 -38t62 -51q26 -27 38 -55v133h227v-1386h-233v508q-38 -67 -113 -105q-77 -39 -180 -39q-105 0 -195 41q-86 39 -151 112q-64 71 -98 167q-35 97 -35 207zM315 502q0 -70 20 -130 t55 -101t84 -64t108 -23q56 0 107 23q52 24 85 64q33 41 55 101q21 58 21 130q0 144 -76 226q-77 83 -192 83q-119 0 -193 -83t-74 -226z" />
<glyph unicode="r" horiz-adv-x="778" d="M154 0v997h231v-159q34 81 113 127q78 45 176 45q17 0 39 -2q7 -1 24 -4v-242q-41 6 -78 6q-139 0 -203 -76q-65 -77 -65 -217v-475h-237z" />
<glyph unicode="s" horiz-adv-x="935" d="M66 270l206 58q6 -66 57 -119q50 -51 146 -51q76 0 112 33q38 35 38 81q0 41 -29 70t-88 41l-148 33q-133 28 -200 107q-68 80 -68 184q0 63 29 123t78 103q50 44 115 69q67 26 145 26q104 0 175 -30q74 -32 116 -72q45 -44 66 -91q23 -52 28 -85l-201 -58q-5 25 -14 47 q-10 25 -32 49t-55 38q-37 16 -83 16q-64 0 -104 -34t-40 -81q0 -41 27 -68q25 -25 74 -36l151 -31q141 -30 214 -112t73 -191q0 -57 -24 -114t-69 -102q-47 -47 -118 -75q-73 -29 -166 -29q-105 0 -184 31q-74 29 -125 77t-74 98q-23 51 -28 95z" />
<glyph unicode="t" horiz-adv-x="747" d="M35 786v211h51q80 0 117 45q37 44 37 111v150h215v-306h207v-211h-207v-462q0 -66 30 -96q29 -29 97 -29q25 0 49 3q21 3 33 5v-197q-6 -3 -46 -13q-34 -9 -100 -9q-140 0 -219 78q-80 78 -80 219v501h-184z" />
<glyph unicode="u" horiz-adv-x="1181" d="M143 369v628h238v-585q0 -51 11 -88q13 -43 36 -72q25 -31 62 -49q40 -19 92 -19q104 0 156 63q53 64 53 161v589h237v-815q0 -60 3 -107q3 -52 7 -75h-227q-5 16 -6 48q-2 42 -2 63q-38 -69 -116 -104q-79 -36 -167 -36q-89 0 -160 31q-68 29 -117 85q-49 55 -74 126 q-26 73 -26 156z" />
<glyph unicode="v" horiz-adv-x="1075" d="M20 997h263l264 -712l258 712h250l-391 -997h-238z" />
<glyph unicode="w" horiz-adv-x="1667" d="M27 997h254l202 -690l236 690h246l235 -690l199 690h241l-319 -997h-238l-247 717l-242 -717h-244z" />
<glyph unicode="x" horiz-adv-x="1050" d="M23 0l362 504l-356 493h282q8 -13 22 -32q5 -7 40 -58q7 -10 23 -33.5t25 -36.5l24 -36t24 -35q28 -40 40 -57q7 -9 14 -19.5t7 -11.5l218 319h270l-350 -489l362 -508h-278l-232 334l-22 -34q-14 -21 -40 -59q-16 -23 -50 -74q-11 -16 -51 -74q-4 -6 -19 -27.5 t-22 -31.5q-4 -6 -21 -34h-272z" />
<glyph unicode="y" horiz-adv-x="1112" d="M16 997h269l286 -630l269 630h252l-635 -1400h-254l239 522z" />
<glyph unicode="z" horiz-adv-x="970" d="M78 0v207l506 581h-496v209h795v-200l-512 -588h522v-209h-815z" />
<glyph unicode="{" horiz-adv-x="747" d="M92 559v205q44 0 83 10q41 11 69 34q28 24 46 61q17 35 17 92v286q0 199 101 294t282 95h47v-182h-45q-92 0 -138 -46t-46 -153v-340q0 -100 -55 -165q-55 -66 -154 -88q97 -22 154 -90q55 -65 55 -166v-340q0 -107 46 -152t138 -45h45v-182h-47q-181 0 -282 95t-101 294 v284q0 109 -63 154t-152 45z" />
<glyph unicode="|" horiz-adv-x="548" d="M174 -313v1949h201v-1949h-201z" />
<glyph unicode="}" horiz-adv-x="747" d="M10 -131h45q93 0 139 45t46 152v340q0 101 55 166q57 68 154 90q-99 22 -154 88q-55 65 -55 165v340q0 107 -46 153t-139 46h-45v182h47q182 0 283 -95q100 -94 100 -294v-286q0 -55 18 -92t46 -61t68 -34q39 -10 83 -10v-205q-88 0 -151 -45q-64 -46 -64 -154v-284 q0 -200 -100 -294q-101 -95 -283 -95h-47v182z" />
<glyph unicode="~" horiz-adv-x="1181" d="M61 561q57 100 143 153q85 52 183 52q53 0 102 -13q54 -14 105 -42l94 -52q55 -30 113 -30q53 0 101 27q47 27 83 81l135 -108q-57 -101 -141 -152t-182 -51q-103 0 -209 57l-96 52q-56 28 -107 28q-54 0 -101 -28t-87 -82z" />
<glyph unicode="&#xa1;" horiz-adv-x="595" d="M147 879q0 61 44 105t106 44q60 0 106 -44t46 -105q0 -63 -46 -107q-44 -43 -106 -43q-63 0 -106 43q-44 44 -44 107zM152 -436l61 1020h170l59 -1020h-290z" />
<glyph unicode="&#xa2;" horiz-adv-x="1118" d="M92 666q0 91 29 173q28 79 81 143q51 61 123 104t154 59v184h187v-180q74 -12 135 -42q60 -30 103 -70q46 -43 73 -88q30 -50 41 -97l-205 -72q-12 45 -47 93q-34 46 -100 67v-555q72 21 109 70q39 51 50 92l201 -72q-17 -50 -46 -97q-30 -48 -74 -89t-104 -71 q-59 -29 -136 -40v-178h-187v184q-83 16 -155 60q-73 44 -123 106q-51 63 -80 144t-29 172zM315 666q0 -105 46 -173q47 -70 118 -98v537q-71 -28 -118 -95q-46 -65 -46 -171z" />
<glyph unicode="&#xa3;" horiz-adv-x="1214" d="M127 0v213q102 39 161 112q58 71 58 160q0 13 -2 37q-2 19 -6 37h-201v195h131q-19 43 -34 98q-13 49 -13 117q0 77 31 150q30 71 86 124q59 55 133 84q81 31 172 31q117 0 201 -35q81 -34 131 -90q49 -55 72 -122q22 -66 24 -128l-225 -37q-1 101 -55 155 q-52 52 -144 52q-73 0 -132 -47q-58 -46 -58 -141q0 -60 16 -109q17 -51 39 -102h385v-195h-326l3 -24q1 -8 1 -25q0 -95 -41 -173q-42 -79 -128 -126h362q90 0 135 57t45 135l221 -24q0 -83 -24 -152t-71 -119q-49 -52 -111 -79q-67 -29 -148 -29h-688z" />
<glyph unicode="&#xa4;" horiz-adv-x="1198" d="M80 115l149 151q-65 99 -65 230q0 69 17 124q19 60 50 109l-151 154l147 145l152 -156q53 31 106 46q55 16 119 16q118 0 217 -57l150 151l145 -145l-143 -148q36 -53 53 -112q18 -62 18 -127q0 -66 -18 -126q-19 -62 -51 -112l141 -143l-143 -144l-146 148 q-101 -60 -223 -60t-229 64l-150 -152zM367 496q0 -54 18 -97q17 -40 50 -75q31 -33 75 -51q41 -17 94 -17t94 17q44 18 75 51q32 33 49 75q18 44 18 97q0 52 -18 95q-19 45 -49 77q-30 31 -75 50q-41 17 -94 17t-94 -17q-45 -19 -75 -50q-32 -34 -50 -77t-18 -95z" />
<glyph unicode="&#xa5;" horiz-adv-x="1228" d="M47 1327h277l299 -514l290 514h267l-324 -536h240v-173h-357v-151h357v-172h-357v-295h-237v295h-350v172h350v151h-350v173h227z" />
<glyph unicode="&#xa6;" horiz-adv-x="548" d="M174 -315v817h201v-817h-201zM174 819v817h201v-817h-201z" />
<glyph unicode="&#xa7;" horiz-adv-x="1159" d="M156 -51l223 41q0 -103 50 -164q49 -59 149 -59q81 0 133 44q51 43 51 121q0 45 -28 87q-27 40 -75 65l-210 109q-63 32 -110 61q-51 32 -91 75q-39 42 -63 95q-23 50 -23 123q0 49 14 87q16 42 38 73q23 32 52 56q24 20 60 40q-84 57 -126 133t-42 162q0 87 36 159 q37 74 95 122q61 51 136 77q76 27 161 27q97 0 176 -29q78 -28 131 -80q53 -50 82 -121q30 -72 31 -151l-226 -41q0 107 -51 164t-145 57q-85 0 -135 -46q-52 -47 -52 -120q0 -96 105 -149l209 -109q61 -31 109 -62q50 -33 92 -75q39 -39 64 -94q23 -50 23 -123 q0 -49 -14 -87q-16 -42 -38 -73q-25 -34 -52 -57q-28 -23 -59 -39q80 -56 125 -134q43 -76 43 -161q0 -88 -36 -160q-36 -73 -96 -122q-64 -52 -136 -78q-77 -27 -161 -27q-98 0 -176 27q-77 27 -131 79q-53 52 -82 121q-28 69 -30 156zM383 590q0 -50 24 -87q26 -41 82 -69 l207 -110q36 24 58 57q22 34 22 80q0 50 -23 86t-83 69l-209 111q-37 -24 -57 -58q-21 -36 -21 -79z" />
<glyph unicode="&#xa8;" horiz-adv-x="804" d="M66 1280q0 56 37 94q37 39 94 39t96 -39t39 -94q0 -58 -39 -95q-40 -38 -96 -38t-94 38q-37 37 -37 95zM475 1280q0 54 38 94q37 39 93 39q55 0 94 -39t39 -94q0 -58 -39 -95q-40 -38 -94 -38q-55 0 -93 38t-38 95z" />
<glyph unicode="&#xa9;" horiz-adv-x="1675" d="M86 727q0 158 58 293q60 139 160 241q99 100 239 162q137 60 293 60t292 -60q142 -62 240 -162q101 -103 162 -241q59 -134 59 -293q0 -161 -59 -295q-61 -138 -162 -241q-98 -100 -240 -162q-136 -60 -292 -60t-293 60q-140 62 -239 162q-100 102 -160 241 q-58 135 -58 295zM254 727q0 -127 45 -238q44 -109 123 -191q78 -81 184 -127q105 -46 230 -46q124 0 228 46q105 46 184 127t124 191q45 111 45 238t-45 237t-124 190q-79 81 -184 127q-104 46 -228 46q-125 0 -230 -46q-106 -46 -184 -127t-123 -190q-45 -110 -45 -237z M440 727q0 87 31 166q28 72 85 132q53 56 127 87t159 31q76 0 139 -23t106 -59q48 -40 73 -83q29 -50 40 -93l-168 -62q-7 29 -19 53q-14 27 -37 47q-24 21 -55 33q-34 13 -77 13t-83 -16q-37 -15 -68 -46q-29 -29 -48 -76q-18 -45 -18 -104t18 -105t48 -78q31 -33 70 -47 q43 -16 83 -16q46 0 80 15q36 16 58 35q19 17 38 47q13 21 20 47l164 -60q-16 -49 -43 -92q-28 -44 -72 -82q-41 -35 -106 -59q-63 -23 -139 -23q-85 0 -161 32q-77 32 -128 88q-54 57 -85 132q-32 78 -32 166z" />
<glyph unicode="&#xaa;" horiz-adv-x="870" d="M121 817q0 95 61 147t150 64l176 27q30 5 41 18q12 15 12 31q0 40 -31 68t-94 28q-61 0 -96 -35q-34 -34 -39 -82l-166 35q4 42 26 85q21 43 60 74q37 30 92 52q53 21 123 21q80 0 141 -22q58 -21 94 -58q35 -37 52 -85q16 -47 16 -102v-346q0 -43 3 -74q2 -23 6 -38 h-168q-4 13 -6 27q-3 24 -3 59q-28 -43 -77 -74q-51 -33 -132 -33q-55 0 -100 18q-48 19 -77 47q-32 30 -48 67q-16 36 -16 81zM305 827q0 -33 24 -58q24 -26 72 -26q26 0 60 9q29 8 51 27q23 20 36 52t13 80v31l-168 -24q-35 -6 -62 -28q-26 -21 -26 -63z" />
<glyph unicode="&#xab;" horiz-adv-x="1024" d="M57 600l279 397h227l-274 -399l272 -393h-227zM481 600l279 397h227l-274 -399l272 -393h-227z" />
<glyph unicode="&#xac;" horiz-adv-x="1193" d="M92 690v199h979v-598h-207v399h-772z" />
<glyph unicode="&#xad;" horiz-adv-x="761" d="M92 494v211h578v-211h-578z" />
<glyph unicode="&#xae;" horiz-adv-x="1675" d="M86 727q0 158 58 293q60 139 160 241q99 100 239 162q137 60 293 60t292 -60q142 -62 240 -162q101 -103 162 -241q59 -134 59 -293q0 -161 -59 -295q-61 -138 -162 -241q-98 -100 -240 -162q-136 -60 -292 -60t-293 60q-140 62 -239 162q-100 102 -160 241 q-58 135 -58 295zM254 727q0 -127 45 -238q44 -109 123 -191q78 -81 184 -127q105 -46 230 -46q124 0 228 46q105 46 184 127t124 191q45 111 45 238t-45 237t-124 190q-79 81 -184 127q-104 46 -228 46q-125 0 -230 -46q-106 -46 -184 -127t-123 -190q-45 -110 -45 -237z M573 322v821h306q59 0 110 -21q54 -22 89 -56q40 -38 60 -83q21 -47 21 -102q0 -88 -46 -150q-47 -64 -122 -92l174 -317h-200l-156 294h-59v-294h-177zM750 766h100q60 0 95 30q34 30 34 83q0 54 -34 84q-35 30 -95 30h-100v-227z" />
<glyph unicode="&#xaf;" horiz-adv-x="692" d="M61 1182v184h570v-184h-570z" />
<glyph unicode="&#xb0;" horiz-adv-x="761" d="M45 1024q0 69 27 129q27 61 72 104q47 46 108 71q63 26 129 26q67 0 128 -26q58 -25 106 -71q48 -47 74 -104q28 -62 28 -129q0 -68 -28 -130q-27 -60 -74 -104q-50 -47 -107 -69q-64 -25 -129 -25q-67 0 -128 26q-59 25 -107 70q-44 41 -72 103q-27 60 -27 129z M236 1024q0 -66 42 -109t103 -43q62 0 102 43q41 44 41 109t-41 108q-41 42 -102 42t-103 -42t-42 -108z" />
<glyph unicode="&#xb1;" horiz-adv-x="1189" d="M129 96v197h932v-197h-932zM129 637v192h365v265h202v-265h365v-192h-365v-262h-202v262h-365z" />
<glyph unicode="&#xb2;" horiz-adv-x="802" d="M115 702v25q0 99 40 175q41 77 138 136l123 74q84 50 84 115q0 34 -25 62t-76 28q-49 0 -77 -30q-29 -31 -29 -77q0 -12 1 -22q2 -19 5 -27l-172 -2q-6 30 -6 62q0 49 18 94q17 43 55 79q33 32 89 54q50 20 120 20q69 0 120 -19q53 -20 88 -53q38 -36 55 -78 q18 -44 18 -93q0 -70 -41 -128q-40 -56 -113 -100l-145 -88q-35 -24 -41 -51h346v-156h-575z" />
<glyph unicode="&#xb3;" horiz-adv-x="843" d="M113 909l163 49q7 -48 47 -85q36 -33 95 -33q58 0 91 29q34 30 34 71q0 57 -39 81q-37 23 -86 23q-34 0 -64 -12l-65 125l186 141h-336v154h572v-147l-193 -142q93 -11 152 -67t59 -158q0 -50 -21 -97q-20 -44 -62 -80q-38 -32 -97 -54q-57 -21 -129 -21q-67 0 -122 20 q-54 19 -92 50q-39 31 -62 70q-24 40 -31 83z" />
<glyph unicode="&#xb4;" horiz-adv-x="585" d="M61 1122l183 303h280l-268 -303h-195z" />
<glyph unicode="&#xb5;" horiz-adv-x="1196" d="M154 -389v1386h237v-585q0 -51 11 -88q13 -43 36 -72q24 -30 63 -49q40 -19 91 -19q104 0 157 63q52 62 52 161v589h237v-815q0 -48 3 -94q2 -38 8 -88h-228q-5 16 -6 48q-2 42 -2 63q-38 -69 -116 -104q-79 -36 -167 -36q-75 0 -139 25v-385h-237z" />
<glyph unicode="&#xb6;" horiz-adv-x="1327" d="M61 1034q0 98 38 179q37 78 103 132q64 52 151 79q90 28 184 28h749v-190h-199v-1665h-194v1665h-195v-1665h-194v1038h-35q-82 0 -158 31q-71 29 -129 84q-54 51 -88 127q-33 73 -33 157z" />
<glyph unicode="&#xb7;" horiz-adv-x="581" d="M133 610q0 66 47 113t113 47q68 0 115 -47t47 -113q0 -67 -47 -112q-46 -45 -115 -45q-67 0 -113 45q-47 45 -47 112z" />
<glyph unicode="&#xb8;" horiz-adv-x="606" d="M57 -358l84 102q18 -18 59 -46q38 -26 91 -26q36 0 63 15t27 47q0 24 -22 43q-21 18 -62 18q-31 0 -57 -10l-72 88l98 154h160l-80 -123q87 -1 143 -48t56 -124q0 -36 -15 -71q-15 -34 -44 -59q-31 -26 -77 -42q-49 -17 -116 -17q-80 0 -145 31q-62 29 -91 68z" />
<glyph unicode="&#xb9;" horiz-adv-x="610" d="M88 1180v123q88 1 139 48q52 47 62 101h168v-750h-187v478h-182z" />
<glyph unicode="&#xba;" horiz-adv-x="989" d="M127 977q0 78 28 150q27 69 76 118q50 50 117 77q70 28 148 28q77 0 147 -28q67 -27 117 -77q51 -51 77 -118q27 -69 27 -150q0 -82 -27 -151q-26 -66 -77 -117q-50 -50 -117 -77q-70 -28 -147 -28q-78 0 -148 28q-67 27 -117 77t-76 117q-28 72 -28 151zM313 977 q0 -102 56 -155q55 -52 127 -52t127 51t55 156q0 106 -55 155q-56 50 -127 50t-127 -50t-56 -155z" />
<glyph unicode="&#xbb;" horiz-adv-x="1024" d="M37 997h227l279 -397l-277 -395h-227l272 393zM461 997h227l279 -397l-277 -395h-227l272 393z" />
<glyph unicode="&#xbc;" horiz-adv-x="1630" d="M102 1055v123q89 2 140 48t61 101h168v-749h-186v477h-183zM184 0l946 1327h213l-944 -1327h-215zM854 147v181l352 424h203v-455h127v-150h-127v-145h-184v145h-371zM1014 297h211v256z" />
<glyph unicode="&#xbd;" d="M102 1055v123q89 2 140 48t61 101h168v-749h-186v477h-183zM182 0l946 1327h213l-944 -1327h-215zM977 2v25q0 99 40 175q41 77 138 136l123 74q84 50 84 114q0 35 -25 63q-24 27 -75 27q-50 0 -78 -29q-29 -31 -29 -77q0 -13 1 -23q2 -17 5 -26l-172 -2q-6 30 -6 61 q0 49 18 94q17 43 55 79q35 33 89 55q50 20 121 20q68 0 119 -19q53 -20 89 -54q36 -35 54 -78t18 -93q0 -70 -41 -128q-39 -55 -112 -99l-146 -88q-35 -24 -41 -51h346v-156h-575z" />
<glyph unicode="&#xbe;" horiz-adv-x="1779" d="M109 784l163 50q7 -49 46 -85q37 -34 96 -34q58 0 91 29q34 30 34 71q0 57 -39 81t-86 24q-32 0 -64 -13l-65 125l186 142h-336v153h572v-147l-193 -142q93 -11 152 -67t59 -158q0 -48 -22 -97q-21 -46 -61 -80q-38 -32 -97 -54q-57 -21 -129 -21q-67 0 -122 20 q-54 19 -92 50q-39 31 -62 70q-24 40 -31 83zM358 0l947 1327h213l-945 -1327h-215zM1006 147v181l352 424h203v-455h127v-150h-127v-145h-185v145h-370zM1165 297h211v256z" />
<glyph unicode="&#xbf;" horiz-adv-x="997" d="M35 -57q0 125 56 210q57 87 147 150l88 62q48 33 74 87t26 113v21h203q6 -38 6 -78q0 -93 -37 -168q-37 -76 -127 -139l-94 -68q-52 -38 -74 -82t-22 -98q0 -79 54 -142t167 -63q58 0 102 21q46 22 72 54q29 35 42 76q13 40 13 87q0 22 -3 48t-9 44l233 -25q8 -30 9 -46 q2 -32 2 -48q0 -76 -29 -154q-28 -75 -86 -136q-57 -60 -143 -98q-87 -38 -203 -38q-114 0 -202 35q-84 33 -146 92q-58 55 -89 131q-30 73 -30 152zM377 879q0 62 43 105q44 44 106 44t106 -44t44 -105q0 -62 -44 -106t-106 -44t-106 44q-43 43 -43 106z" />
<glyph unicode="&#xc0;" horiz-adv-x="1456" d="M20 0l566 1452h284l566 -1452h-269l-137 365h-614l-135 -365h-261zM334 1808h303l211 -254h-221zM502 592h442l-221 594z" />
<glyph unicode="&#xc1;" horiz-adv-x="1456" d="M20 0l566 1452h284l566 -1452h-269l-137 365h-614l-135 -365h-261zM502 592h442l-221 594zM604 1554l209 254h305l-291 -254h-223z" />
<glyph unicode="&#xc2;" horiz-adv-x="1456" d="M20 0l566 1452h284l566 -1452h-269l-137 365h-614l-135 -365h-261zM350 1554l238 254h264l244 -254h-226l-153 132l-148 -132h-219zM502 592h442l-221 594z" />
<glyph unicode="&#xc3;" horiz-adv-x="1456" d="M20 0l566 1452h284l566 -1452h-269l-137 365h-614l-135 -365h-261zM379 1550v45q0 115 59 170q61 56 146 56q46 0 83 -15q44 -18 68 -32l21 -13q8 -5 46 -24q22 -11 42 -11q26 0 45 16q18 15 18 52v21h152v-48q0 -112 -59 -169q-57 -56 -144 -56q-47 0 -82 14 q-36 14 -67 33l-21 15q-22 15 -47 25q-23 9 -45 9q-23 0 -42 -16q-20 -17 -20 -51v-21h-153zM502 592h442l-221 594z" />
<glyph unicode="&#xc4;" horiz-adv-x="1456" d="M20 0l566 1452h284l566 -1452h-269l-137 365h-614l-135 -365h-261zM274 1681q0 57 39 98q39 40 97 40q59 0 98 -40t39 -98q0 -57 -39 -96t-98 -39q-58 0 -97 39t-39 96zM502 592h442l-221 594zM903 1681q0 57 38 98q37 40 95 40q60 0 99 -40t39 -98q0 -57 -39 -96 t-99 -39q-58 0 -95 39q-38 40 -38 96z" />
<glyph unicode="&#xc5;" horiz-adv-x="1456" d="M20 0l529 1358q-43 36 -66 86q-24 51 -24 110q0 56 21 103t58 82q36 35 84 54q47 19 101 19t101 -19t85 -54t59 -82t21 -103q0 -60 -22 -107t-64 -83l533 -1364h-269l-137 365h-614l-135 -365h-261zM502 592h442l-221 594zM621 1554q0 -48 29 -74q31 -28 73 -28t73 28 q29 26 29 74q0 47 -29 73q-31 28 -73 28t-73 -28q-29 -26 -29 -73z" />
<glyph unicode="&#xc6;" horiz-adv-x="2138" d="M14 0l963 1452h1042v-229h-651v-385h590v-224h-590v-385h651v-229h-897v369h-567l-236 -369h-305zM690 580h432v671z" />
<glyph unicode="&#xc7;" horiz-adv-x="1552" d="M86 725q0 178 61 318q61 141 163 238t234 150q131 52 273 52q136 0 248 -38q106 -36 192 -103q84 -66 136 -150q53 -87 77 -180l-231 -78q-17 68 -50 124q-34 58 -86 101q-54 44 -123 68q-70 24 -163 24t-176 -32q-87 -34 -154 -99q-67 -66 -108 -165q-41 -100 -41 -230 q0 -128 40 -224q41 -98 107 -163q65 -63 155 -99q86 -34 179 -34q95 0 164 26q73 27 125 72t89 103q36 57 54 118l226 -73q-22 -81 -70 -165q-47 -81 -119 -146q-73 -65 -166 -108q-99 -45 -213 -57l-45 -71q88 -2 144 -48q55 -46 55 -124q0 -39 -14 -71q-15 -34 -44 -59 q-30 -26 -78 -42q-49 -17 -116 -17q-79 0 -144 31q-63 30 -92 68l84 102q18 -18 59 -46q38 -26 91 -26q36 0 63 15t27 47q0 25 -21 43t-63 18q-31 0 -57 -10l-72 88l64 100q-134 12 -256 69q-120 56 -212 153q-91 96 -144 230q-52 132 -52 300z" />
<glyph unicode="&#xc8;" horiz-adv-x="1191" d="M174 0v1452h897v-229h-651v-385h590v-224h-590v-385h651v-229h-897zM281 1808h303l211 -254h-222z" />
<glyph unicode="&#xc9;" horiz-adv-x="1191" d="M174 0v1452h897v-229h-651v-385h590v-224h-590v-385h651v-229h-897zM457 1554l209 254h305l-291 -254h-223z" />
<glyph unicode="&#xca;" horiz-adv-x="1191" d="M174 0v1452h897v-229h-651v-385h590v-224h-590v-385h651v-229h-897zM248 1554l237 254h265l243 -254h-225l-154 132l-147 -132h-219z" />
<glyph unicode="&#xcb;" horiz-adv-x="1191" d="M174 0v1452h897v-229h-651v-385h590v-224h-590v-385h651v-229h-897zM256 1681q0 57 39 98q39 40 96 40t97 -40t40 -98q0 -57 -40 -96q-41 -39 -97 -39q-57 0 -96 39t-39 96zM723 1681q0 57 38 98q37 40 97 40q57 0 96 -40t39 -98q0 -57 -39 -96t-96 -39q-60 0 -97 39 q-38 40 -38 96z" />
<glyph unicode="&#xcc;" horiz-adv-x="598" d="M-94 1808h303l211 -254h-221zM174 0v1452h250v-1452h-250z" />
<glyph unicode="&#xcd;" horiz-adv-x="598" d="M174 0v1452h250v-1452h-250zM180 1554l209 254h305l-291 -254h-223z" />
<glyph unicode="&#xce;" horiz-adv-x="598" d="M-61 1554l237 254h264l244 -254h-225l-154 132l-147 -132h-219zM174 0v1452h250v-1452h-250z" />
<glyph unicode="&#xcf;" horiz-adv-x="598" d="M2 1681q0 53 36 91q35 36 89 36q55 0 91 -36q38 -38 38 -91q0 -52 -38 -90q-37 -37 -91 -37q-53 0 -89 37t-36 90zM174 0v1452h250v-1452h-250zM350 1681q0 54 37 91q36 36 90 36t90 -36q37 -37 37 -91q0 -53 -37 -90t-90 -37t-90 37t-37 90z" />
<glyph unicode="&#xd0;" horiz-adv-x="1515" d="M35 653v191h168v608h514q147 0 276 -48q131 -49 225 -141q94 -93 150 -230q55 -135 55 -310t-55 -309q-57 -138 -151 -228q-97 -93 -226 -139q-130 -47 -276 -47h-512v653h-168zM449 225h258q91 0 178 31q82 29 146 92q60 59 99 155q37 92 37 220q0 130 -35 222 q-36 95 -99 158q-64 64 -146 93q-87 31 -178 31h-260v-383h268v-191h-268v-428z" />
<glyph unicode="&#xd1;" horiz-adv-x="1566" d="M174 0v1452h313l660 -1030v1030h246v-1452h-256l-717 1100v-1100h-246zM446 1550v45q0 115 60 170q61 56 145 56q45 0 83 -15q47 -19 69 -32l20 -13q8 -5 46 -24q22 -11 42 -11q26 0 45 16t19 52v21h151v-48q0 -112 -58 -169q-57 -56 -144 -56q-47 0 -82 14 q-39 16 -68 33l-20 15q-22 15 -47 25q-23 9 -45 9q-23 0 -42 -16q-20 -17 -20 -51v-21h-154z" />
<glyph unicode="&#xd2;" d="M86 727q0 179 61 319q60 138 164 237q103 98 236 149q134 51 276 51q143 0 277 -51q132 -50 235 -149t165 -237q63 -141 63 -319t-63 -319q-63 -142 -165 -239q-103 -99 -235 -149q-134 -51 -277 -51t-276 51t-236 149q-102 98 -164 239q-61 140 -61 319zM338 727 q0 -130 42 -229q42 -98 109 -164q66 -64 155 -98q87 -33 179 -33q93 0 181 33q89 33 155 98q69 68 110 164q42 99 42 229t-42 229q-41 96 -110 164q-68 67 -155 99q-86 32 -181 32t-179 -32q-88 -33 -155 -99t-109 -164q-42 -99 -42 -229zM430 1808h303l211 -254h-221z" />
<glyph unicode="&#xd3;" d="M86 727q0 179 61 319q60 138 164 237q103 98 236 149q134 51 276 51q143 0 277 -51q132 -50 235 -149t165 -237q63 -141 63 -319t-63 -319q-63 -142 -165 -239q-103 -99 -235 -149q-134 -51 -277 -51t-276 51t-236 149q-102 98 -164 239q-61 140 -61 319zM338 727 q0 -130 42 -229q42 -98 109 -164q66 -64 155 -98q87 -33 179 -33q93 0 181 33q89 33 155 98q69 68 110 164q42 99 42 229t-42 229q-41 96 -110 164q-68 67 -155 99q-86 32 -181 32t-179 -32q-88 -33 -155 -99t-109 -164q-42 -99 -42 -229zM694 1554l209 254h305l-290 -254 h-224z" />
<glyph unicode="&#xd4;" d="M86 727q0 179 61 319q60 138 164 237q103 98 236 149q134 51 276 51q143 0 277 -51q132 -50 235 -149t165 -237q63 -141 63 -319t-63 -319q-63 -142 -165 -239q-103 -99 -235 -149q-134 -51 -277 -51t-276 51t-236 149q-102 98 -164 239q-61 140 -61 319zM338 727 q0 -130 42 -229q42 -98 109 -164q66 -64 155 -98q87 -33 179 -33q93 0 181 33q89 33 155 98q69 68 110 164q42 99 42 229t-42 229q-41 96 -110 164q-68 67 -155 99q-86 32 -181 32t-179 -32q-88 -33 -155 -99t-109 -164q-42 -99 -42 -229zM453 1554l237 254h264l244 -254 h-225l-154 132l-147 -132h-219z" />
<glyph unicode="&#xd5;" d="M86 727q0 179 61 319q60 138 164 237q103 98 236 149q134 51 276 51q143 0 277 -51q132 -50 235 -149t165 -237q63 -141 63 -319t-63 -319q-63 -142 -165 -239q-103 -99 -235 -149q-134 -51 -277 -51t-276 51t-236 149q-102 98 -164 239q-61 140 -61 319zM338 727 q0 -130 42 -229q42 -98 109 -164q66 -64 155 -98q87 -33 179 -33q93 0 181 33q89 33 155 98q69 68 110 164q42 99 42 229t-42 229q-41 96 -110 164q-68 67 -155 99q-86 32 -181 32t-179 -32q-88 -33 -155 -99t-109 -164q-42 -99 -42 -229zM485 1552v45q0 115 60 170 q61 56 145 56q46 0 83 -15q47 -19 69 -32l20 -13q8 -5 46 -24q20 -10 42 -10q27 0 45 15q19 16 19 52v21h151v-48q0 -111 -58 -168q-59 -57 -144 -57q-45 0 -82 15q-44 18 -68 32l-20 15q-20 14 -48 25q-23 9 -45 9q-23 0 -42 -16t-19 -51v-21h-154z" />
<glyph unicode="&#xd6;" d="M86 727q0 179 61 319q60 138 164 237q103 98 236 149q134 51 276 51q143 0 277 -51q132 -50 235 -149t165 -237q63 -141 63 -319t-63 -319q-63 -142 -165 -239q-103 -99 -235 -149q-134 -51 -277 -51t-276 51t-236 149q-102 98 -164 239q-61 140 -61 319zM338 727 q0 -130 42 -229q42 -98 109 -164q66 -64 155 -98q87 -33 179 -33q93 0 181 33q89 33 155 98q69 68 110 164q42 99 42 229t-42 229q-41 96 -110 164q-68 67 -155 99q-86 32 -181 32t-179 -32q-88 -33 -155 -99t-109 -164q-42 -99 -42 -229zM358 1681q0 57 39 98q39 40 97 40 q57 0 97 -40t40 -98q0 -57 -40 -96q-41 -39 -97 -39q-58 0 -97 39t-39 96zM1020 1681q0 57 39 98q39 40 96 40t97 -40t40 -98q0 -57 -40 -96t-97 -39t-96 39t-39 96z" />
<glyph unicode="&#xd7;" horiz-adv-x="1122" d="M78 246l344 352l-342 350l141 142l340 -351l340 351l141 -142l-342 -350l344 -352l-141 -142l-342 351l-342 -351z" />
<glyph unicode="&#xd8;" d="M86 727q0 179 61 319q60 138 164 237q103 98 236 149q134 51 276 51q103 0 199 -27q99 -28 182 -76l146 187l159 -123l-147 -189q93 -101 146 -230q55 -134 55 -298q0 -178 -63 -319q-63 -142 -165 -239q-103 -99 -235 -149q-134 -51 -277 -51q-96 0 -196 25 q-97 24 -183 74l-139 -181l-164 121l146 187q-95 103 -147 231q-54 134 -54 301zM338 727q0 -107 27 -189q28 -86 73 -147l621 801q-106 59 -236 59q-95 0 -179 -32q-88 -33 -155 -99t-109 -164q-42 -99 -42 -229zM592 258q106 -55 231 -55q93 0 181 33q89 33 155 98 q69 68 110 164q42 99 42 229q0 103 -27 186t-72 146z" />
<glyph unicode="&#xd9;" horiz-adv-x="1398" d="M158 506v946h243v-932q0 -153 79 -235t218 -82q142 0 220 82q77 81 77 235v932h246v-946q0 -131 -42 -232q-41 -99 -115 -168q-71 -67 -172 -102q-100 -35 -214 -35q-113 0 -213 35q-99 34 -171 102t-114 168q-42 101 -42 232zM336 1808h303l211 -254h-221z" />
<glyph unicode="&#xda;" horiz-adv-x="1398" d="M158 506v946h243v-932q0 -153 79 -235t218 -82q142 0 220 82q77 81 77 235v932h246v-946q0 -131 -42 -232q-41 -99 -115 -168q-71 -67 -172 -102q-100 -35 -214 -35q-113 0 -213 35q-99 34 -171 102t-114 168q-42 101 -42 232zM537 1554l208 254h306l-291 -254h-223z" />
<glyph unicode="&#xdb;" horiz-adv-x="1398" d="M158 506v946h243v-932q0 -153 79 -235t218 -82q142 0 220 82q77 81 77 235v932h246v-946q0 -131 -42 -232q-41 -99 -115 -168q-71 -67 -172 -102q-100 -35 -214 -35q-113 0 -213 35q-99 34 -171 102t-114 168q-42 101 -42 232zM328 1554l237 254h264l244 -254h-225 l-154 132l-147 -132h-219z" />
<glyph unicode="&#xdc;" horiz-adv-x="1398" d="M158 506v946h243v-932q0 -153 79 -235t218 -82q142 0 220 82q77 81 77 235v932h246v-946q0 -131 -42 -232q-41 -99 -115 -168q-71 -67 -172 -102q-100 -35 -214 -35q-113 0 -213 35q-99 34 -171 102t-114 168q-42 101 -42 232zM324 1681q0 58 37 98t98 40q57 0 96 -40 t39 -98q0 -57 -39 -96t-96 -39q-61 0 -98 39q-37 38 -37 96zM807 1681q0 57 38 98q37 40 97 40q57 0 96 -40t39 -98q0 -57 -39 -96t-96 -39q-60 0 -97 39q-38 40 -38 96z" />
<glyph unicode="&#xdd;" horiz-adv-x="1306" d="M20 1452h291l348 -608l351 608h276l-512 -838v-614h-246v614zM498 1554l209 254h305l-291 -254h-223z" />
<glyph unicode="&#xde;" horiz-adv-x="1226" d="M174 0v1452h246v-272h280q104 0 190 -34q89 -35 150 -92q64 -60 100 -140q36 -81 36 -175t-36 -175q-36 -80 -99 -139q-63 -58 -149 -91q-87 -33 -190 -33h-282v-301h-246zM420 514h256q117 0 183 60q67 61 67 163q0 106 -67 168t-183 62h-256v-453z" />
<glyph unicode="&#xdf;" horiz-adv-x="1193" d="M154 0v1001q0 120 37 209q38 90 103 151q67 62 149 91q88 31 182 31q99 0 183 -29q83 -29 140 -78q59 -51 89 -114q32 -67 32 -142q0 -60 -15 -106q-14 -43 -40 -84q-24 -37 -58 -65q-38 -31 -67 -50l-49 -31q-27 -16 -43 -34q-17 -19 -17 -48q1 -34 23 -51t61 -33 l68 -30q95 -41 158 -120t63 -189q0 -54 -20 -107q-21 -56 -64 -100q-45 -47 -108 -74q-67 -29 -158 -29t-158 29q-63 27 -105 72q-41 44 -60 94t-19 96l196 45q0 -17 9 -48q8 -25 24 -48q17 -23 44 -38t69 -15q64 0 94 34q31 36 31 72q0 84 -103 129l-65 29q-30 13 -76 38 q-38 20 -71 52q-30 29 -52 74q-20 41 -20 102q0 86 40 141q42 57 93 91l51 34q46 28 79 69q30 37 30 89q0 65 -53 115q-52 49 -156 49q-47 0 -90 -18t-76 -52q-32 -33 -52 -89q-20 -55 -20 -128v-987h-233z" />
<glyph unicode="&#xe0;" horiz-adv-x="1089" d="M92 270q0 68 24 119q26 54 63 89q43 40 95 61q51 21 119 32l256 39q44 6 59 26t15 46q0 64 -45 108q-46 44 -143 44q-95 0 -146 -53q-52 -53 -59 -128l-217 49q6 63 39 123q33 59 86 105q50 43 128 71q75 27 166 27q112 0 196 -31q80 -30 131 -82t74 -118q23 -65 23 -142 v-495q0 -54 6 -110q3 -32 7 -50h-221q-3 10 -7 36q-4 28 -4 91q-37 -61 -110 -108q-77 -50 -197 -50q-74 0 -140 25q-64 24 -107 66q-42 40 -67 97q-24 54 -24 113zM201 1425h284l181 -303h-195zM330 285q0 -52 37 -90q38 -39 108 -39q51 0 94 13q45 14 79 43q32 28 54 79 q21 49 21 123v45l-260 -39q-55 -10 -94 -42t-39 -93z" />
<glyph unicode="&#xe1;" horiz-adv-x="1089" d="M92 270q0 68 24 119q26 54 63 89q43 40 95 61q51 21 119 32l256 39q44 6 59 26t15 46q0 64 -45 108q-46 44 -143 44q-95 0 -146 -53q-52 -53 -59 -128l-217 49q6 63 39 123q33 59 86 105q50 43 128 71q75 27 166 27q112 0 196 -31q80 -30 131 -82t74 -118q23 -65 23 -142 v-495q0 -54 6 -110q3 -32 7 -50h-221q-3 10 -7 36q-4 28 -4 91q-37 -61 -110 -108q-77 -50 -197 -50q-74 0 -140 25q-64 24 -107 66q-42 40 -67 97q-24 54 -24 113zM330 285q0 -52 37 -90q38 -39 108 -39q51 0 94 13q45 14 79 43q32 28 54 79q21 49 21 123v45l-260 -39 q-55 -10 -94 -42t-39 -93zM401 1122l183 303h280l-268 -303h-195z" />
<glyph unicode="&#xe2;" horiz-adv-x="1089" d="M92 270q0 68 24 119q26 54 63 89q43 40 95 61q51 21 119 32l256 39q44 6 59 26t15 46q0 64 -45 108q-46 44 -143 44q-95 0 -146 -53q-52 -53 -59 -128l-217 49q6 63 39 123q33 59 86 105q50 43 128 71q75 27 166 27q112 0 196 -31q80 -30 131 -82t74 -118q23 -65 23 -142 v-495q0 -54 6 -110q3 -32 7 -50h-221q-3 10 -7 36q-4 28 -4 91q-37 -61 -110 -108q-77 -50 -197 -50q-74 0 -140 25q-64 24 -107 66q-42 40 -67 97q-24 54 -24 113zM197 1124l219 293h248l221 -293h-203l-143 158l-144 -158h-198zM330 285q0 -52 37 -90q38 -39 108 -39 q51 0 94 13q45 14 79 43q32 28 54 79q21 49 21 123v45l-260 -39q-55 -10 -94 -42t-39 -93z" />
<glyph unicode="&#xe3;" horiz-adv-x="1089" d="M92 270q0 68 24 119q26 54 63 89q43 40 95 61q51 21 119 32l256 39q44 6 59 26t15 46q0 64 -45 108q-46 44 -143 44q-95 0 -146 -53q-52 -53 -59 -128l-217 49q6 63 39 123q33 59 86 105q50 43 128 71q75 27 166 27q112 0 196 -31q80 -30 131 -82t74 -118q23 -65 23 -142 v-495q0 -54 6 -110q3 -32 7 -50h-221q-3 10 -7 36q-4 28 -4 91q-37 -61 -110 -108q-77 -50 -197 -50q-74 0 -140 25q-64 24 -107 66q-42 40 -67 97q-24 54 -24 113zM207 1176q0 121 60 178t151 57q46 0 79 -13q31 -12 64 -32l21 -12q18 -12 44 -25q20 -10 44 -10q63 0 63 90 h156v-35q0 -120 -60 -180q-59 -59 -149 -59q-48 0 -80 14q-36 16 -65 33l-21 12q-22 14 -44 24q-21 9 -44 9q-31 0 -46 -21t-15 -67h-156zM330 285q0 -52 37 -90q38 -39 108 -39q51 0 94 13q45 14 79 43q32 28 54 79q21 49 21 123v45l-260 -39q-55 -10 -94 -42t-39 -93z" />
<glyph unicode="&#xe4;" horiz-adv-x="1089" d="M92 270q0 68 24 119q26 54 63 89q43 40 95 61q51 21 119 32l256 39q44 6 59 26t15 46q0 64 -45 108q-46 44 -143 44q-95 0 -146 -53q-52 -53 -59 -128l-217 49q6 63 39 123q33 59 86 105q50 43 128 71q75 27 166 27q112 0 196 -31q80 -30 131 -82t74 -118q23 -65 23 -142 v-495q0 -54 6 -110q3 -32 7 -50h-221q-3 10 -7 36q-4 28 -4 91q-37 -61 -110 -108q-77 -50 -197 -50q-74 0 -140 25q-64 24 -107 66q-42 40 -67 97q-24 54 -24 113zM203 1280q0 54 38 94q37 39 93 39q57 0 96 -39t39 -94q0 -58 -39 -95q-40 -38 -96 -38q-55 0 -93 38t-38 95 zM330 285q0 -52 37 -90q38 -39 108 -39q51 0 94 13q45 14 79 43q32 28 54 79q21 49 21 123v45l-260 -39q-55 -10 -94 -42t-39 -93zM612 1280q0 54 38 94q38 39 93 39q56 0 95 -39t39 -94q0 -58 -39 -95q-40 -38 -95 -38t-93 38t-38 95z" />
<glyph unicode="&#xe5;" horiz-adv-x="1089" d="M92 270q0 68 24 119q26 54 63 89q43 40 95 61q51 21 119 32l256 39q44 6 59 26t15 46q0 64 -45 108q-46 44 -143 44q-95 0 -146 -53q-52 -53 -59 -128l-217 49q6 63 39 123q33 59 86 105q50 43 128 71q75 27 166 27q112 0 196 -31q80 -30 131 -82t74 -118q23 -65 23 -142 v-495q0 -54 6 -110q3 -32 7 -50h-221q-3 10 -7 36q-4 28 -4 91q-37 -61 -110 -108q-77 -50 -197 -50q-74 0 -140 25q-64 24 -107 66q-42 40 -67 97q-24 54 -24 113zM299 1327q0 49 18 91q17 41 52 72q31 28 73 47q38 17 88 17t90 -17q42 -18 74 -47q33 -30 51 -72 q19 -44 19 -91t-19 -90q-18 -41 -51 -71q-32 -29 -74 -47q-40 -17 -90 -17t-88 17q-42 19 -73 47q-34 31 -52 71q-18 41 -18 90zM330 285q0 -52 37 -90q38 -39 108 -39q51 0 94 13q45 14 79 43q32 28 54 79q21 49 21 123v45l-260 -39q-55 -10 -94 -42t-39 -93zM440 1327 q0 -38 26 -64t62 -26q41 0 67 26t26 64q0 41 -26 67q-25 25 -67 25q-37 0 -62 -25q-26 -26 -26 -67z" />
<glyph unicode="&#xe6;" horiz-adv-x="1785" d="M92 270q0 68 24 119q26 54 63 89q43 40 95 61q51 21 119 32l271 39q45 6 61 28q14 20 14 44q0 62 -49 108t-149 46q-97 0 -155 -53q-57 -52 -64 -124l-209 43q6 68 42 126q37 59 93 104q56 44 133 70q78 26 162 26q126 0 210 -40q86 -41 134 -105q68 71 153 107 q90 38 185 38q116 0 205 -37q91 -38 151 -104t94 -163q33 -94 33 -214q0 -24 -1 -39q-1 -21 -3 -37h-733q1 -57 24 -105q22 -47 60 -82q36 -33 86 -53q51 -20 104 -20q108 0 167 50q58 49 85 126l201 -65q-21 -65 -62 -123t-99 -101t-133 -67q-78 -25 -161 -25 q-119 0 -225 50q-104 49 -174 145q-23 -36 -59 -72q-37 -37 -80 -62q-47 -27 -109 -44q-63 -17 -137 -17q-88 0 -158 25q-69 25 -115 66q-45 41 -70 97q-24 54 -24 113zM330 281q0 -47 39 -86t114 -39q46 0 91 13q46 13 83 43q38 30 60 79q22 48 22 121v47l-276 -39 q-57 -7 -96 -43q-37 -34 -37 -96zM977 608h493q-1 41 -17 83q-15 40 -46 71t-77 49t-107 18q-60 0 -102 -19q-44 -20 -74 -51q-34 -35 -50 -72q-19 -42 -20 -79z" />
<glyph unicode="&#xe7;" horiz-adv-x="1107" d="M76 500q0 114 39 212t108 168q67 69 162 109q91 39 201 39q99 0 178 -29q80 -29 135 -74q58 -48 92 -106q35 -61 51 -119l-213 -77q-7 32 -25 66q-18 35 -47 61t-71 43q-39 16 -98 16q-56 0 -105 -21q-51 -22 -87 -59q-38 -39 -60 -96q-23 -58 -23 -133q0 -74 23 -134 q22 -58 60 -99q35 -38 89 -60q51 -21 107 -21q55 0 101 19q42 18 74 46q29 26 48 59q20 36 27 61l209 -76q-17 -54 -47 -105t-77 -95q-49 -46 -109 -76q-65 -32 -142 -44l-47 -73q87 -1 143 -48q55 -46 55 -124q0 -39 -14 -71q-15 -34 -44 -59q-30 -26 -78 -42 q-49 -17 -116 -17q-79 0 -144 31q-62 29 -91 68l84 102q20 -21 58 -46q38 -26 91 -26q37 0 64 15t27 47q0 24 -22 43q-21 18 -62 18q-32 0 -58 -10l-71 88l67 104q-94 12 -177 58q-82 45 -139 113q-57 67 -92 159q-34 89 -34 195z" />
<glyph unicode="&#xe8;" horiz-adv-x="1122" d="M76 504q0 120 40 215q41 98 107 165q67 68 156 106q90 38 182 38q116 0 206 -37q92 -38 154 -104q61 -65 95 -163q33 -94 33 -214q0 -22 -2 -50q-1 -14 -5 -26h-729q1 -55 25 -104q24 -50 59 -82q38 -35 85 -54q49 -20 104 -20q108 0 167 50t83 124l200 -63 q-22 -69 -59 -123q-40 -58 -96 -101q-55 -42 -131 -67q-77 -25 -164 -25q-104 0 -195 36q-94 37 -162 105q-69 69 -111 168t-42 226zM229 1425h285l180 -303h-194zM319 608h490q-1 41 -17 83q-14 38 -47 71q-32 32 -75 49q-45 18 -107 18q-57 0 -99 -19q-46 -21 -75 -51 q-32 -33 -49 -72q-20 -44 -21 -79z" />
<glyph unicode="&#xe9;" horiz-adv-x="1122" d="M76 504q0 120 40 215q41 98 107 165q67 68 156 106q90 38 182 38q116 0 206 -37q92 -38 154 -104q61 -65 95 -163q33 -94 33 -214q0 -22 -2 -50q-1 -14 -5 -26h-729q1 -55 25 -104q24 -50 59 -82q38 -35 85 -54q49 -20 104 -20q108 0 167 50t83 124l200 -63 q-22 -69 -59 -123q-40 -58 -96 -101q-55 -42 -131 -67q-77 -25 -164 -25q-104 0 -195 36q-94 37 -162 105q-69 69 -111 168t-42 226zM319 608h490q-1 41 -17 83q-14 38 -47 71q-32 32 -75 49q-45 18 -107 18q-57 0 -99 -19q-46 -21 -75 -51q-32 -33 -49 -72q-20 -44 -21 -79 zM455 1122l182 303h281l-269 -303h-194z" />
<glyph unicode="&#xea;" horiz-adv-x="1122" d="M76 504q0 120 40 215q41 98 107 165q67 68 156 106q90 38 182 38q116 0 206 -37q92 -38 154 -104q61 -65 95 -163q33 -94 33 -214q0 -22 -2 -50q-1 -14 -5 -26h-729q1 -55 25 -104q24 -50 59 -82q38 -35 85 -54q49 -20 104 -20q108 0 167 50t83 124l200 -63 q-22 -69 -59 -123q-40 -58 -96 -101q-55 -42 -131 -67q-77 -25 -164 -25q-104 0 -195 36q-94 37 -162 105q-69 69 -111 168t-42 226zM231 1124l220 293h247l222 -293h-203l-144 158l-143 -158h-199zM319 608h490q-1 41 -17 83q-14 38 -47 71q-32 32 -75 49q-45 18 -107 18 q-57 0 -99 -19q-46 -21 -75 -51q-32 -33 -49 -72q-20 -44 -21 -79z" />
<glyph unicode="&#xeb;" horiz-adv-x="1122" d="M76 504q0 120 40 215q41 98 107 165q67 68 156 106q90 38 182 38q116 0 206 -37q92 -38 154 -104q61 -65 95 -163q33 -94 33 -214q0 -22 -2 -50q-1 -14 -5 -26h-729q1 -55 25 -104q24 -50 59 -82q38 -35 85 -54q49 -20 104 -20q108 0 167 50t83 124l200 -63 q-22 -69 -59 -123q-40 -58 -96 -101q-55 -42 -131 -67q-77 -25 -164 -25q-104 0 -195 36q-94 37 -162 105q-69 69 -111 168t-42 226zM236 1280q0 56 37 94q38 39 94 39q57 0 96 -39t39 -94q0 -58 -39 -95q-40 -38 -96 -38t-94 38q-37 37 -37 95zM319 608h490q-1 41 -17 83 q-14 38 -47 71q-32 32 -75 49q-45 18 -107 18q-57 0 -99 -19q-46 -21 -75 -51q-32 -33 -49 -72q-20 -44 -21 -79zM645 1280q0 54 38 94q37 39 93 39q55 0 94 -39t39 -94q0 -58 -39 -95q-40 -38 -94 -38q-55 0 -93 38t-38 95z" />
<glyph unicode="&#xec;" horiz-adv-x="542" d="M-78 1425h285l180 -303h-194zM154 0v997h235v-997h-235z" />
<glyph unicode="&#xed;" horiz-adv-x="542" d="M154 0v997h235v-997h-235zM166 1122l182 303h281l-269 -303h-194z" />
<glyph unicode="&#xee;" horiz-adv-x="542" d="M-70 1124l220 293h247l221 -293h-202l-144 158l-143 -158h-199zM154 0v997h235v-997h-235z" />
<glyph unicode="&#xef;" horiz-adv-x="542" d="M-20 1280q0 54 35 90q36 37 89 37q54 0 91 -37q36 -36 36 -90t-36 -89q-37 -36 -91 -36q-53 0 -89 36q-35 35 -35 89zM154 0v997h235v-997h-235zM311 1280q0 52 36 90q36 37 89 37t90 -37t37 -90t-37 -89q-38 -36 -90 -36q-53 0 -89 36t-36 89z" />
<glyph unicode="&#xf0;" horiz-adv-x="1179" d="M76 467q0 117 42 206t109 150t155 93t177 32q82 0 151 -22t109 -68q-27 79 -73 147q-43 63 -101 117l-276 -125l-64 148l189 86q-55 32 -117 55t-115 39l74 182q87 -23 185 -63q94 -38 198 -111l229 105l66 -150l-160 -71q110 -113 181 -278t71 -386q0 -123 -34 -226 q-36 -109 -99 -185q-65 -78 -162 -125q-95 -46 -221 -46q-109 0 -205 38q-93 37 -163 104q-68 65 -107 156t-39 198zM311 469q0 -71 24 -123q24 -53 61 -90q36 -36 88 -55t106 -19q53 0 105 19t88 55q39 39 61 90t22 123q0 71 -22 124q-22 52 -61 90q-37 35 -88 54 q-52 19 -105 19q-54 0 -106 -19t-88 -55q-37 -37 -61 -90q-24 -52 -24 -123z" />
<glyph unicode="&#xf1;" horiz-adv-x="1175" d="M154 0v997h231v-133q50 87 130 124q82 38 165 38q90 0 160 -31q66 -29 111 -85t67 -126t22 -153v-631h-237v590q0 92 -46 156q-47 65 -159 65q-102 0 -155 -69q-52 -68 -52 -167v-575h-237zM270 1176q0 120 61 178q60 57 150 57q46 0 79 -13q34 -13 65 -32l20 -12 q18 -12 44 -25q20 -10 44 -10q64 0 64 90h155v-35q0 -121 -59 -180t-150 -59q-47 0 -79 14q-40 17 -66 33l-20 12q-22 14 -44 24q-21 9 -45 9q-31 0 -46 -21t-15 -67h-156z" />
<glyph unicode="&#xf2;" horiz-adv-x="1185" d="M76 500q0 115 39 211q40 99 107 167t164 110q93 40 206 40q114 0 207 -40q97 -42 164 -110q69 -70 108 -167q39 -96 39 -211t-39 -212q-39 -98 -108 -168t-164 -111q-93 -40 -207 -40q-113 0 -206 40q-95 41 -164 111q-67 69 -107 168q-39 97 -39 212zM236 1425h284 l180 -303h-194zM313 500q0 -78 24 -138q23 -58 61 -99q35 -37 88 -60q50 -21 106 -21t105 21q53 22 89 60q41 42 62 99q22 59 22 138t-22 136q-22 56 -62 98q-39 40 -89 60q-48 19 -105 19q-58 0 -106 -19q-51 -20 -88 -60t-61 -98t-24 -136z" />
<glyph unicode="&#xf3;" horiz-adv-x="1185" d="M76 500q0 115 39 211q40 99 107 167t164 110q93 40 206 40q114 0 207 -40q97 -42 164 -110q69 -70 108 -167q39 -96 39 -211t-39 -212q-39 -98 -108 -168t-164 -111q-93 -40 -207 -40q-113 0 -206 40q-95 41 -164 111q-67 69 -107 168q-39 97 -39 212zM313 500 q0 -78 24 -138q23 -58 61 -99q35 -37 88 -60q50 -21 106 -21t105 21q53 22 89 60q41 42 62 99q22 59 22 138t-22 136q-22 56 -62 98q-39 40 -89 60q-48 19 -105 19q-58 0 -106 -19q-51 -20 -88 -60t-61 -98t-24 -136zM475 1122l182 303h281l-268 -303h-195z" />
<glyph unicode="&#xf4;" horiz-adv-x="1185" d="M76 500q0 115 39 211q40 99 107 167t164 110q93 40 206 40q114 0 207 -40q97 -42 164 -110q69 -70 108 -167q39 -96 39 -211t-39 -212q-39 -98 -108 -168t-164 -111q-93 -40 -207 -40q-113 0 -206 40q-95 41 -164 111q-67 69 -107 168q-39 97 -39 212zM252 1124l219 293 h248l221 -293h-203l-143 158l-143 -158h-199zM313 500q0 -78 24 -138q23 -58 61 -99q35 -37 88 -60q50 -21 106 -21t105 21q53 22 89 60q41 42 62 99q22 59 22 138t-22 136q-22 56 -62 98q-39 40 -89 60q-48 19 -105 19q-58 0 -106 -19q-51 -20 -88 -60t-61 -98t-24 -136z " />
<glyph unicode="&#xf5;" horiz-adv-x="1185" d="M76 500q0 115 39 211q40 99 107 167t164 110q93 40 206 40q114 0 207 -40q97 -42 164 -110q69 -70 108 -167q39 -96 39 -211t-39 -212q-39 -98 -108 -168t-164 -111q-93 -40 -207 -40q-113 0 -206 40q-95 41 -164 111q-67 69 -107 168q-39 97 -39 212zM256 1176 q0 121 60 178t151 57q46 0 79 -13q31 -12 64 -32l21 -12q18 -12 44 -25q20 -10 44 -10q63 0 63 90h156v-35q0 -121 -59 -180t-150 -59q-48 0 -80 14q-36 16 -65 33l-21 12q-22 14 -44 24q-21 9 -44 9q-31 0 -46 -21t-15 -67h-156zM313 500q0 -78 24 -138q23 -58 61 -99 q35 -37 88 -60q50 -21 106 -21t105 21q53 22 89 60q41 42 62 99q22 59 22 138t-22 136q-22 56 -62 98q-39 40 -89 60q-48 19 -105 19q-58 0 -106 -19q-51 -20 -88 -60t-61 -98t-24 -136z" />
<glyph unicode="&#xf6;" horiz-adv-x="1185" d="M76 500q0 115 39 211q40 99 107 167t164 110q93 40 206 40q114 0 207 -40q97 -42 164 -110q69 -70 108 -167q39 -96 39 -211t-39 -212q-39 -98 -108 -168t-164 -111q-93 -40 -207 -40q-113 0 -206 40q-95 41 -164 111q-67 69 -107 168q-39 97 -39 212zM254 1280 q0 54 38 94q38 39 93 39q57 0 96 -39t39 -94q0 -58 -39 -95q-40 -38 -96 -38q-55 0 -93 38t-38 95zM313 500q0 -78 24 -138q23 -58 61 -99q35 -37 88 -60q50 -21 106 -21t105 21q53 22 89 60q41 42 62 99q22 59 22 138t-22 136q-22 56 -62 98q-39 40 -89 60q-48 19 -105 19 q-58 0 -106 -19q-51 -20 -88 -60t-61 -98t-24 -136zM664 1280q0 56 37 94q37 39 94 39q55 0 94 -39t39 -94q0 -58 -39 -95q-40 -38 -94 -38q-56 0 -94 38q-37 37 -37 95z" />
<glyph unicode="&#xf7;" horiz-adv-x="1183" d="M106 496v202h971v-202h-971zM440 227q0 59 44 103q43 43 104 43t104 -43t43 -103t-43 -103q-44 -44 -104 -44t-104 44t-44 103zM440 967q0 59 44 103t104 44t104 -44q43 -43 43 -103q0 -61 -43 -104q-44 -44 -104 -44t-104 44t-44 104z" />
<glyph unicode="&#xf8;" horiz-adv-x="1185" d="M76 500q0 115 39 211q40 99 107 167t164 110q93 40 206 40q78 0 140 -17q71 -19 124 -50l107 133l127 -105l-107 -133q57 -66 93 -161q34 -90 34 -195q0 -115 -39 -212q-39 -98 -108 -168t-164 -111q-93 -40 -207 -40q-78 0 -141 18q-66 19 -117 48l-103 -129l-129 104 l103 129q-59 67 -95 161q-34 90 -34 200zM313 500q0 -100 39 -174l365 458q-63 29 -125 29q-58 0 -106 -19q-51 -20 -88 -60t-61 -98t-24 -136zM471 209q53 -27 121 -27q56 0 105 21q53 22 89 60q41 42 62 99q22 59 22 138q0 51 -10 91q-12 47 -26 77z" />
<glyph unicode="&#xf9;" horiz-adv-x="1181" d="M143 369v628h238v-585q0 -51 11 -88q13 -43 36 -72q25 -31 62 -49q40 -19 92 -19q104 0 156 63q53 64 53 161v589h237v-815q0 -60 3 -107q3 -52 7 -75h-227q-5 16 -6 48q-2 42 -2 63q-38 -69 -116 -104q-79 -36 -167 -36q-89 0 -160 31q-68 29 -117 85q-49 55 -74 126 q-26 73 -26 156zM256 1425h285l180 -303h-195z" />
<glyph unicode="&#xfa;" horiz-adv-x="1181" d="M143 369v628h238v-585q0 -51 11 -88q13 -43 36 -72q25 -31 62 -49q40 -19 92 -19q104 0 156 63q53 64 53 161v589h237v-815q0 -60 3 -107q3 -52 7 -75h-227q-5 16 -6 48q-2 42 -2 63q-38 -69 -116 -104q-79 -36 -167 -36q-89 0 -160 31q-68 29 -117 85q-49 55 -74 126 q-26 73 -26 156zM428 1122l182 303h281l-268 -303h-195z" />
<glyph unicode="&#xfb;" horiz-adv-x="1181" d="M143 369v628h238v-585q0 -51 11 -88q13 -43 36 -72q25 -31 62 -49q40 -19 92 -19q104 0 156 63q53 64 53 161v589h237v-815q0 -60 3 -107q3 -52 7 -75h-227q-5 16 -6 48q-2 42 -2 63q-38 -69 -116 -104q-79 -36 -167 -36q-89 0 -160 31q-68 29 -117 85q-49 55 -74 126 q-26 73 -26 156zM244 1124l219 293h248l221 -293h-203l-143 158l-144 -158h-198z" />
<glyph unicode="&#xfc;" horiz-adv-x="1181" d="M143 369v628h238v-585q0 -51 11 -88q13 -43 36 -72q25 -31 62 -49q40 -19 92 -19q104 0 156 63q53 64 53 161v589h237v-815q0 -60 3 -107q3 -52 7 -75h-227q-5 16 -6 48q-2 42 -2 63q-38 -69 -116 -104q-79 -36 -167 -36q-89 0 -160 31q-68 29 -117 85q-49 55 -74 126 q-26 73 -26 156zM250 1280q0 54 38 94q38 39 93 39q57 0 96 -39t39 -94q0 -58 -39 -95q-40 -38 -96 -38q-55 0 -93 38t-38 95zM659 1280q0 54 38 94q37 39 94 39q55 0 94 -39t39 -94q0 -58 -39 -95q-40 -38 -94 -38q-56 0 -94 38t-38 95z" />
<glyph unicode="&#xfd;" horiz-adv-x="1112" d="M16 997h269l286 -630l269 630h252l-635 -1400h-254l239 522zM420 1122l182 303h281l-269 -303h-194z" />
<glyph unicode="&#xfe;" horiz-adv-x="1236" d="M154 -389v1872h237v-609q40 59 120 103q79 43 189 43q113 0 197 -40q85 -40 144 -110t89 -164q31 -98 31 -206q0 -113 -33 -208q-34 -97 -94 -166q-62 -71 -148 -111t-194 -40q-109 0 -186 40t-117 98v-502h-235zM387 500q0 -144 76 -229t192 -85q119 0 194 85t75 229 q0 140 -74 225q-74 84 -195 84q-57 0 -108 -23t-84 -62q-34 -40 -55 -97t-21 -127z" />
<glyph unicode="&#xff;" horiz-adv-x="1112" d="M16 997h269l286 -630l269 630h252l-635 -1400h-254l239 522zM221 1280q0 54 38 94q37 39 93 39q58 0 97 -39q38 -38 38 -94q0 -58 -38 -95q-40 -38 -97 -38q-55 0 -93 38t-38 95zM631 1280q0 54 38 94q37 39 93 39q55 0 94 -39t39 -94q0 -58 -39 -95q-40 -38 -94 -38 q-55 0 -93 38t-38 95z" />
<glyph unicode="&#x152;" horiz-adv-x="2326" d="M86 727q0 179 61 319q60 138 164 237q103 98 236 149q134 51 276 51q145 0 271 -50q125 -50 217 -149v168h895v-229h-650v-385h590v-224h-590v-385h652v-229h-897v166q-93 -98 -217 -147q-126 -50 -271 -50q-143 0 -276 51t-236 149q-102 98 -164 239q-61 140 -61 319z M338 727q0 -130 42 -229q42 -98 109 -164q66 -64 155 -98q87 -33 179 -33q93 0 181 33q89 33 155 98q69 68 110 164q42 99 42 229t-42 229q-41 96 -110 164q-68 67 -155 99q-86 32 -181 32t-179 -32q-88 -33 -155 -99t-109 -164q-42 -99 -42 -229z" />
<glyph unicode="&#x153;" horiz-adv-x="1918" d="M76 500q0 115 39 211q40 99 107 167t164 110q93 40 206 40q123 0 224 -46q100 -46 173 -132q66 82 163 130q98 48 206 48q116 0 206 -37q91 -37 153 -104q61 -65 95 -163q33 -95 33 -214q0 -22 -2 -50q-1 -18 -4 -26h-729q1 -55 25 -104q24 -50 59 -82q38 -35 85 -54 q49 -20 103 -20q108 0 167 50t83 124l201 -63q-22 -69 -59 -123q-39 -56 -97 -101q-55 -42 -131 -67q-77 -25 -164 -25q-118 0 -219 46q-102 47 -174 135q-71 -88 -172 -134q-103 -47 -225 -47q-113 0 -206 40q-95 41 -164 111q-67 69 -107 168q-39 97 -39 212zM313 500 q0 -78 24 -138q23 -58 61 -99q35 -37 88 -60q50 -21 106 -21t105 21q53 22 89 60q41 42 62 99q22 59 22 138t-22 136q-22 56 -62 98q-39 40 -89 60q-48 19 -105 19q-58 0 -106 -19q-51 -20 -88 -60t-61 -98t-24 -136zM1116 608h490q-1 38 -18 83q-15 40 -46 71t-76 49 t-106 18q-57 0 -99 -19q-46 -21 -75 -51q-32 -33 -49 -72q-20 -44 -21 -79z" />
<glyph unicode="&#x178;" horiz-adv-x="1306" d="M20 1452h291l348 -608l351 608h276l-512 -838v-614h-246v614zM276 1681q0 57 38 98q37 40 98 40q57 0 96 -40t39 -98q0 -57 -39 -96t-96 -39q-60 0 -98 39q-38 40 -38 96zM766 1681q0 57 39 98q39 40 96 40t97 -40t40 -98q0 -57 -40 -96t-97 -39t-96 39t-39 96z" />
<glyph unicode="&#x2c6;" horiz-adv-x="811" d="M61 1124l220 293h247l222 -293h-203l-144 158l-143 -158h-199z" />
<glyph unicode="&#x2dc;" horiz-adv-x="788" d="M53 1176q0 120 61 178q60 57 150 57q46 0 79 -13q34 -13 65 -32l20 -12q18 -12 44 -25q20 -10 44 -10q64 0 64 90h155v-35q0 -121 -59 -180t-150 -59q-48 0 -80 14q-36 16 -65 33l-21 12q-22 14 -44 24q-21 9 -44 9q-31 0 -46 -21t-15 -67h-156z" />
<glyph unicode="&#x2000;" horiz-adv-x="911" />
<glyph unicode="&#x2001;" horiz-adv-x="1823" />
<glyph unicode="&#x2002;" horiz-adv-x="911" />
<glyph unicode="&#x2003;" horiz-adv-x="1823" />
<glyph unicode="&#x2004;" horiz-adv-x="607" />
<glyph unicode="&#x2005;" horiz-adv-x="455" />
<glyph unicode="&#x2006;" horiz-adv-x="303" />
<glyph unicode="&#x2007;" horiz-adv-x="303" />
<glyph unicode="&#x2008;" horiz-adv-x="227" />
<glyph unicode="&#x2009;" horiz-adv-x="364" />
<glyph unicode="&#x200a;" horiz-adv-x="101" />
<glyph unicode="&#x2010;" horiz-adv-x="761" d="M92 494v211h578v-211h-578z" />
<glyph unicode="&#x2011;" horiz-adv-x="761" d="M92 494v211h578v-211h-578z" />
<glyph unicode="&#x2012;" horiz-adv-x="761" d="M92 494v211h578v-211h-578z" />
<glyph unicode="&#x2013;" horiz-adv-x="1312" d="M129 496v206h1053v-206h-1053z" />
<glyph unicode="&#x2014;" horiz-adv-x="2236" d="M150 496v206h1937v-206h-1937z" />
<glyph unicode="&#x2018;" horiz-adv-x="462" d="M76 1094q0 97 28 163q28 67 73 113q44 45 95 68q48 21 99 26v-112q-64 -12 -111 -65t-51 -118q1 0 5.5 2.5t9.5 4.5q11 4 28 4q58 0 98 -38q39 -38 39 -100q0 -55 -42 -95q-41 -40 -107 -40q-71 0 -118 50q-46 49 -46 137z" />
<glyph unicode="&#x2019;" horiz-adv-x="471" d="M76 1329q0 55 43 97t108 42q74 0 122 -52t48 -138q0 -103 -29 -170q-30 -70 -75 -116q-43 -44 -98 -68q-52 -22 -101 -27v113q64 12 112 65q47 52 52 123q-1 0 -6 -2t-9 -4q-11 -4 -28 -4q-61 0 -100 39t-39 102z" />
<glyph unicode="&#x201a;" horiz-adv-x="471" d="M76 133q0 58 43 98q44 41 108 41q74 0 122 -52t48 -138q0 -101 -29 -169q-30 -71 -75 -116q-44 -44 -98 -67q-53 -23 -101 -29v115q33 7 61 22q29 16 52 42q22 25 36 58q13 32 15 66q-4 -4 -15 -7q-12 -3 -28 -3q-60 0 -100 38q-39 38 -39 101z" />
<glyph unicode="&#x201c;" horiz-adv-x="843" d="M76 1100q0 98 28 164q27 65 73 112q44 45 95 68q48 21 99 26v-112q-64 -11 -111 -64q-47 -54 -51 -118q1 0 6 2t9 4q11 4 28 4q58 0 98 -38q39 -38 39 -99q0 -55 -42 -96q-41 -40 -107 -40q-70 0 -118 51q-46 49 -46 136zM455 1100q0 98 28 164q27 65 73 112q44 46 96 68 q49 21 98 26v-112q-31 -6 -60 -23t-50 -41t-35 -55q-13 -30 -15 -63l14 6q9 4 27 4q61 0 99 -38t38 -99q0 -55 -42 -96q-41 -40 -108 -40q-69 0 -117 51q-46 49 -46 136z" />
<glyph unicode="&#x201d;" horiz-adv-x="841" d="M76 1327q0 56 41 97q40 40 106 40q72 0 119 -50t47 -136q0 -95 -29 -165q-29 -71 -73 -113q-46 -44 -98 -65q-56 -23 -97 -28v111q65 12 111 63t51 121q-4 -4 -15 -7q-12 -3 -28 -3q-60 0 -97 37q-38 38 -38 98zM453 1327q0 57 42 97q41 40 107 40q71 0 118 -50 q46 -49 46 -136q0 -95 -29 -165t-72 -113q-44 -44 -97 -65q-56 -23 -97 -28v111q65 12 111 63q48 52 49 121q-4 -4 -15 -7q-10 -3 -26 -3q-60 0 -98 37q-39 37 -39 98z" />
<glyph unicode="&#x201e;" horiz-adv-x="841" d="M76 129q0 56 41 97q40 40 106 40q72 0 119 -50t47 -136q0 -95 -29 -165q-29 -71 -73 -113q-46 -44 -98 -65q-56 -23 -97 -28v111q65 12 111 63t51 121q-4 -4 -15 -7q-12 -3 -28 -3q-60 0 -97 37q-38 38 -38 98zM453 129q0 57 42 97q41 40 107 40q71 0 118 -50 q46 -49 46 -136q0 -95 -29 -165t-72 -113q-44 -44 -97 -65q-56 -23 -97 -28v111q65 12 111 63q48 52 49 121q-4 -4 -15 -7q-10 -3 -26 -3q-60 0 -98 37q-39 37 -39 98z" />
<glyph unicode="&#x2022;" horiz-adv-x="1110" d="M129 602q0 89 34 167q35 80 92 136q58 56 135 91q75 34 165 34t165 -34q77 -35 135 -91q57 -56 92 -136q34 -78 34 -167q0 -87 -34 -164q-35 -80 -92 -135q-58 -56 -135 -91q-75 -34 -165 -34t-165 34q-77 35 -135 91q-57 55 -92 135q-34 77 -34 164z" />
<glyph unicode="&#x2026;" horiz-adv-x="1896" d="M168 133q0 64 44 108t105 44q64 0 108 -44t44 -108q0 -61 -44 -105t-108 -44q-61 0 -105 44t-44 105zM797 133q0 64 44 108t107 44t107 -44q43 -43 43 -108q0 -62 -43 -105q-44 -44 -107 -44t-107 44t-44 105zM1427 133q0 64 44 108t108 44q63 0 107 -44q43 -43 43 -108 q0 -62 -43 -105q-44 -44 -107 -44q-64 0 -108 44t-44 105z" />
<glyph unicode="&#x202f;" horiz-adv-x="364" />
<glyph unicode="&#x2039;" horiz-adv-x="600" d="M57 600l279 397h227l-274 -399l272 -393h-227z" />
<glyph unicode="&#x203a;" horiz-adv-x="600" d="M37 997h229l277 -397l-277 -395h-227l272 393z" />
<glyph unicode="&#x205f;" horiz-adv-x="455" />
<glyph unicode="&#x20ac;" horiz-adv-x="1398" d="M129 408v180h158q-2 17 -3 34q-1 13 -1 40q0 29 1 40l3 33h-158v178h193q39 112 102 190q69 86 150 140q86 58 185 86q101 29 202 29q214 0 350 -94l-94 -191q-47 35 -116 54q-65 18 -140 18q-121 0 -223 -56t-160 -176h563l-86 -178h-525q-2 -14 -3 -29q-1 -12 -1 -42 q0 -36 1 -48q1 -17 3 -28h463l-84 -180h-329q58 -114 157 -167q102 -55 221 -55q84 0 159 25q73 25 126 74l115 -176q-73 -62 -174 -101q-102 -39 -226 -39q-101 0 -202 29q-99 28 -183 84q-85 56 -148 137q-63 80 -101 189h-195z" />
<glyph unicode="&#x2122;" horiz-adv-x="1777" d="M66 1294v158h614v-158h-219v-589h-176v589h-219zM799 705v747h235l199 -475l194 475h228v-747h-168v464l-195 -464h-131l-190 458v-458h-172z" />
<glyph unicode="&#x25fc;" horiz-adv-x="993" d="M0 0v993h993v-993h-993z" />
<glyph unicode="&#xfb01;" horiz-adv-x="1267" d="M35 791v206h174v138q0 85 25 150q26 67 72 113q45 45 110 70q66 25 141 25q47 0 79 -7q35 -8 46 -13v-203q-9 4 -31 7q-21 3 -55 3q-22 0 -49 -6t-48 -24q-22 -19 -36 -47t-14 -75v-131h663v-997h-233v791h-430v-791h-240v791h-174zM842 1350q0 64 44 110q44 45 109 45 q66 0 111 -45t45 -110q0 -64 -45 -109t-111 -45q-65 0 -109 45q-44 46 -44 109z" />
<glyph unicode="&#xfb02;" horiz-adv-x="1263" d="M35 791v206h174v138q0 85 25 150q26 67 72 113q45 45 110 70q66 25 141 25q47 0 79 -7q35 -8 46 -13v-203q-9 4 -31 7q-21 3 -55 3q-22 0 -49 -6t-48 -24q-22 -19 -36 -47t-14 -75v-131h425v486h236v-1483h-236v791h-425v-791h-240v791h-174z" />
<glyph unicode="&#xfb03;" horiz-adv-x="1925" d="M35 791v206h174v138q0 85 25 150q26 67 72 113q45 45 110 70q66 25 141 25q47 0 79 -7q35 -8 46 -13v-203q-9 4 -31 7q-21 3 -55 3q-24 0 -50 -6t-47 -24q-22 -19 -36 -47t-14 -75v-131h415v138q0 83 26 150t72 113t109 70q66 25 141 25q47 0 79 -7q35 -8 46 -13v-203 q-9 4 -30 7t-56 3q-22 0 -49 -6t-48 -24q-22 -19 -36 -47t-14 -75v-131h668v-997h-236v791h-432v-791h-240v791h-415v-791h-240v791h-174zM1499 1350q0 65 45 110t109 45q65 0 110 -45t45 -110q0 -64 -45 -109t-110 -45q-64 0 -109 45t-45 109z" />
<glyph unicode="&#xfb04;" horiz-adv-x="1925" d="M35 791v206h174v138q0 85 25 150q26 67 72 113q45 45 110 70q66 25 141 25q47 0 79 -7q35 -8 46 -13v-203q-9 4 -31 7q-21 3 -55 3q-22 0 -49 -6t-48 -24q-22 -19 -36 -47t-14 -75v-131h415v138q0 83 26 150t72 113t109 70q66 25 141 25q47 0 79 -7q35 -8 46 -13v-203 q-9 4 -30 7t-56 3q-22 0 -49 -6t-48 -24q-22 -19 -36 -47t-14 -75v-131h432v486h236v-1483h-236v791h-432v-791h-240v791h-415v-791h-240v791h-174z" />
</font>
</defs>
</svg>
