<?xml version="1.0" standalone="no"?>
<!DOCTYPE svg PUBLIC "-//W3C//DTD SVG 1.1//EN" "http://www.w3.org/Graphics/SVG/1.1/DTD/svg11.dtd" >
<svg xmlns="http://www.w3.org/2000/svg" xmlns:xlink="http://www.w3.org/1999/xlink" version="1.1">
<metadata></metadata>
<defs>
<font id="circularblack" horiz-adv-x="1656" >
<font-face units-per-em="2048" ascent="1657" descent="-391" />
<missing-glyph horiz-adv-x="503" />
<glyph horiz-adv-x="0" />
<glyph unicode="&#xd;" horiz-adv-x="503" />
<glyph unicode=" "  horiz-adv-x="503" />
<glyph unicode="&#x09;" horiz-adv-x="503" />
<glyph unicode="&#xa0;" horiz-adv-x="503" />
<glyph unicode="!" horiz-adv-x="706" d="M168 1452h373l-72 -997h-229zM176 156q0 74 51 126t125 52t126 -52t52 -126q0 -40 -14 -69q-15 -32 -38 -55t-56 -38q-31 -14 -70 -14t-68 14q-36 17 -57 38q-25 25 -38 55t-13 69z" />
<glyph unicode="&#x22;" horiz-adv-x="851" d="M63 1182q0 70 49 121q48 49 119 49q73 0 119 -49q47 -50 47 -121q0 -9 -2 -33q-2 -19 -6 -29l-102 -370h-111l-102 370q-1 9 -6 28q-5 20 -5 34zM455 1182q0 72 48 121t120 49t118 -49q47 -50 47 -121q0 -9 -2 -33q-2 -19 -6 -29l-102 -370h-111l-102 370q-1 9 -6 28 q-4 16 -4 34z" />
<glyph unicode="#" horiz-adv-x="1523" d="M76 319v218h293l57 266h-250v215h295l68 311h233l-67 -311h258l67 311h236l-68 -311h252v-215h-297l-57 -266h250v-218h-297l-68 -319h-236l68 319h-258l-68 -319h-233l68 319h-246zM602 537h258l58 266h-259z" />
<glyph unicode="$" horiz-adv-x="1220" d="M84 408l283 63q5 -50 21 -86q20 -45 50 -72q35 -32 82 -49q50 -18 115 -18q77 0 127 35q49 34 49 94q0 89 -127 117l-182 43q-174 41 -273 141q-98 99 -98 248q0 83 31 157q30 71 83 126q53 54 123 90t150 51v221h236v-228q81 -17 146 -56q60 -36 106 -85q42 -44 68 -102 q25 -55 36 -107l-285 -76q-6 33 -14 54q-11 29 -34 55t-61 44q-35 17 -100 17q-86 0 -129 -42t-43 -91q0 -88 121 -116l178 -39q102 -23 176 -64q71 -40 118 -93t68 -116t21 -133q0 -71 -24 -137q-23 -63 -73 -121q-46 -53 -118 -94q-68 -38 -157 -55v-224h-236v220 q-107 18 -187 63q-79 45 -132 105q-55 63 -81 128q-28 70 -34 132z" />
<glyph unicode="%" horiz-adv-x="1785" d="M80 1014q0 69 28 133q26 59 74 107q45 45 110 73q63 27 134 27q70 0 133 -27q67 -29 111 -73q48 -48 74 -107q28 -64 28 -133q0 -71 -28 -136q-27 -62 -74 -108q-46 -45 -111 -71q-62 -25 -135 -25t-134 26q-65 28 -110 73q-47 47 -74 108q-26 59 -26 133zM299 0 l930 1329h264l-932 -1329h-262zM301 1014q0 -62 36 -99q35 -36 89 -36t88 37q35 38 35 98q0 58 -35 95q-34 36 -88 36q-53 0 -89 -36t-36 -95zM1016 313q0 71 27 133q26 59 75 108q45 45 110 73q61 26 134 26q72 0 133 -26q67 -29 111 -73q47 -47 74 -108q28 -64 28 -133 q0 -71 -28 -136q-26 -60 -74 -107q-46 -45 -111 -71q-64 -26 -135 -26t-134 27q-65 28 -110 73q-48 48 -74 107t-26 133zM1237 313q0 -60 36 -98q36 -37 89 -37t88 38t35 97t-35 96q-34 35 -88 35t-89 -35q-36 -36 -36 -96z" />
<glyph unicode="&#x26;" horiz-adv-x="1488" d="M135 371q0 133 66 222q68 91 182 173l-21 22q-21 22 -53 63q-28 36 -48 73q-21 38 -36 83q-14 41 -14 93q0 92 36 164q35 70 94 120t132 75q75 26 150 26q86 0 165 -28q76 -27 132 -77q57 -51 87 -117q31 -68 31 -151q0 -58 -17 -103q-18 -48 -45 -90q-25 -38 -66 -78 t-76 -65l-48 -35l195 -204l387 395v-381l-205 -207l326 -344h-393l-131 141q-76 -78 -170 -124q-93 -46 -211 -46q-111 0 -192 34q-86 36 -140 90q-58 58 -87 128q-30 72 -30 148zM436 387q0 -57 42 -103t114 -46q54 0 100 24q45 23 92 72l-225 241l-10 -8q-54 -40 -82 -79 q-31 -43 -31 -101zM500 1110q0 -45 23 -78q27 -38 50 -63l35 -37l58 41q45 33 64 68q20 37 20 71q0 54 -37 88q-38 35 -90 35q-47 0 -85 -30t-38 -95z" />
<glyph unicode="'" horiz-adv-x="460" d="M63 1182q0 70 49 121q48 49 119 49q73 0 119 -49q47 -50 47 -121q0 -9 -2 -33q-2 -19 -6 -29l-102 -370h-111l-102 370q-1 9 -6 28q-5 20 -5 34z" />
<glyph unicode="(" horiz-adv-x="702" d="M76 664q0 178 35 330q35 153 96 279q64 132 143 233q89 113 176 196l176 -166q-85 -89 -151 -182q-69 -96 -116 -201q-49 -109 -74 -227q-25 -119 -25 -262q0 -142 25 -261q24 -117 74 -228q47 -105 116 -202q66 -93 151 -182l-176 -166q-89 85 -176 197 q-81 105 -143 233q-61 127 -96 278q-35 152 -35 331z" />
<glyph unicode=")" horiz-adv-x="702" d="M0 -209q89 94 152 182q67 93 115 202q49 109 75 228q27 121 27 261t-27 262q-27 120 -75 227q-49 108 -115 201q-63 88 -152 182l178 166q87 -83 176 -196q83 -106 143 -233q60 -128 95 -279q35 -152 35 -330q0 -179 -35 -331q-34 -149 -95 -278q-58 -123 -143 -233 q-87 -112 -176 -197z" />
<glyph unicode="*" horiz-adv-x="948" d="M41 1051l76 225l233 -76v252h246v-252l233 76l78 -225l-235 -78l143 -199l-192 -141l-150 201l-147 -201l-193 141l143 199z" />
<glyph unicode="+" horiz-adv-x="1226" d="M94 483v254h389v400h262v-400h388v-254h-388v-399h-262v399h-389z" />
<glyph unicode="," horiz-adv-x="657" d="M117 180q0 82 58 136q60 55 147 55q51 0 95 -22q41 -21 69 -56q27 -35 42 -81q15 -47 15 -97q0 -118 -38 -205q-38 -85 -95 -143q-59 -59 -126 -88q-66 -29 -130 -35v145q28 5 68 25q33 17 66 46q29 26 49 65q19 37 21 85q-17 -14 -57 -14q-85 0 -135 53q-49 52 -49 131z " />
<glyph unicode="-" horiz-adv-x="798" d="M92 477v281h615v-281h-615z" />
<glyph unicode="." horiz-adv-x="669" d="M125 193q0 44 16 80q17 39 45 67t67 45q36 16 81 16t81 -16q37 -16 67 -45q28 -27 46 -67q17 -39 17 -80q0 -42 -17 -81q-18 -40 -46 -67q-29 -28 -67 -46q-35 -17 -81 -17t-81 17q-40 19 -67 46q-28 28 -45 67q-16 36 -16 81z" />
<glyph unicode="/" horiz-adv-x="1013" d="M0 -29l735 1510h279l-738 -1510h-276z" />
<glyph unicode="0" horiz-adv-x="1286" d="M76 664q0 127 23 243q23 119 94 226q65 100 177 163q113 64 273 64q163 0 276 -64q112 -63 177 -163q69 -105 93 -226q23 -116 23 -243q0 -128 -23 -244q-24 -119 -93 -225q-65 -98 -177 -163t-276 -65q-161 0 -273 65t-177 163q-71 108 -94 225q-23 116 -23 244z M399 664q0 -76 11 -155q10 -74 39 -134q28 -55 74 -89t120 -34q77 0 121 34q47 36 74 89q28 59 40 134q11 69 11 155q0 85 -11 154q-12 75 -40 134q-27 53 -74 89q-44 34 -121 34q-74 0 -120 -34t-74 -89q-29 -60 -39 -134q-11 -79 -11 -154z" />
<glyph unicode="1" horiz-adv-x="854" d="M70 864v215q74 0 137 21q68 23 110 54q48 36 77 79q31 46 38 96h277v-1329h-322v864h-317z" />
<glyph unicode="2" horiz-adv-x="1128" d="M63 0q0 93 15 175q16 87 50 157q37 75 96 137q61 64 153 117l217 127q77 46 112 93q33 44 33 112q0 63 -44 110t-134 47q-94 0 -140 -56t-46 -140q0 -43 12 -82l-303 2q-3 8 -8 46q-4 31 -4 64q0 90 32 170t97 145q60 60 155 99q90 37 213 37q113 0 206 -35 q92 -35 156 -94q63 -59 98 -139q34 -78 34 -168q0 -127 -67 -234q-64 -103 -195 -180l-252 -150q-27 -17 -52 -39q-21 -18 -38 -51h614v-270h-1010z" />
<glyph unicode="3" horiz-adv-x="1120" d="M16 397l312 58q5 -90 61 -149q57 -60 152 -60q93 0 146 54q52 53 52 128q0 49 -16 82q-17 35 -44 56t-63 32q-33 10 -69 10q-33 0 -65 -9t-54 -21l-139 213l327 268h-555v270h959v-250l-328 -254q75 -6 145 -38q66 -30 118 -85q51 -54 80 -124q30 -72 30 -158 q0 -88 -36 -169q-35 -79 -102 -143q-65 -62 -164 -100q-96 -37 -220 -37q-116 0 -210 35t-161 93q-66 57 -107 135q-42 79 -49 163z" />
<glyph unicode="4" horiz-adv-x="1245" d="M63 276v328l553 725h385v-782h213v-271h-213v-276h-323v276h-615zM344 547h334v438z" />
<glyph unicode="5" horiz-adv-x="1140" d="M53 379l299 61q1 -34 18 -74q15 -36 43 -64t66 -44t88 -16q82 0 141 50q58 49 58 142q0 51 -17 86q-18 38 -47 62q-28 24 -66 36q-41 13 -77 13q-67 0 -115 -28q-46 -27 -71 -58q-5 0 -47 14q-11 4 -44.5 14.5t-53.5 17.5t-54 18t-43 14q-46 15 -47 16l149 690h773v-270 h-549l-54 -250q40 35 104 53q68 19 122 19q101 0 186 -29q83 -28 144 -86q60 -57 95 -140q33 -79 33 -190q0 -93 -34 -177q-33 -81 -102 -149q-66 -65 -163 -104q-96 -39 -221 -39q-109 0 -202 35t-159 92q-67 58 -107 132t-46 153z" />
<glyph unicode="6" horiz-adv-x="1196" d="M76 580q0 176 54 320q54 145 155 247q102 103 241 158q140 55 314 55q92 0 165 -17q74 -17 111 -38l-86 -263q-44 16 -100 30q-51 13 -109 13q-84 0 -153 -20q-72 -21 -129 -63q-60 -44 -96 -105q-37 -62 -52 -149q35 58 117 98q84 41 199 41q101 0 183 -33 q84 -34 140 -91q58 -60 89 -140q32 -84 32 -179q0 -102 -39 -189q-40 -90 -107 -151q-69 -63 -165 -99t-213 -36q-119 0 -219 42q-103 43 -175 121q-73 79 -115 192q-42 112 -42 256zM416 432q0 -86 60 -139q61 -53 147 -53t147 52t61 140q0 90 -61 142q-62 53 -147 53 q-86 0 -147 -53q-60 -52 -60 -142z" />
<glyph unicode="7" horiz-adv-x="1052" d="M10 1059v270h1032v-258q-6 -6 -28 -26t-38 -35q-44 -41 -97 -106q-58 -71 -110 -152q-55 -86 -106 -201q-54 -123 -89 -250q-37 -133 -52 -301h-336q10 129 36 243q23 103 61 212q35 101 76 181q44 86 85 150q101 160 218 273h-652z" />
<glyph unicode="8" horiz-adv-x="1173" d="M74 360q0 103 60 193q60 91 165 131q-52 18 -89 51q-41 36 -63 73q-24 40 -36 84q-13 47 -13 83q0 83 36 154q37 72 100 122q65 51 154 80q90 29 198 29q106 0 198 -29q90 -28 155 -80q63 -50 100 -122q36 -70 36 -154q0 -39 -12 -83q-12 -42 -38 -84q-25 -39 -63 -73 q-36 -32 -90 -51q104 -40 166 -131t62 -193q0 -86 -38 -159q-37 -71 -106 -123t-162 -80q-96 -29 -208 -29q-111 0 -207 29q-93 28 -162 80q-67 51 -105 123q-38 73 -38 159zM389 397q0 -30 12 -60q11 -27 37 -53q22 -22 62 -38q38 -15 86 -15t86 15t62 38q27 25 38 53 q12 30 12 60q0 35 -11 62q-12 30 -36 54t-62 39q-37 15 -89 15q-50 0 -88 -15t-62 -39t-36 -54q-11 -27 -11 -62zM416 950q0 -60 42 -106q43 -48 128 -49q88 1 129 49q41 47 41 106q0 55 -43 99q-44 45 -127 45q-84 0 -127 -45q-43 -44 -43 -99z" />
<glyph unicode="9" horiz-adv-x="1198" d="M63 891q0 99 38 186q38 86 106 150t164 98q97 35 213 35q114 0 212 -40q99 -40 171 -120q70 -77 113 -200q42 -120 42 -279q0 -178 -46 -317q-46 -140 -136 -236q-91 -98 -222 -148q-132 -51 -304 -51q-88 0 -173 20q-84 20 -137 50l70 260q36 -18 97 -35q64 -18 137 -18 q76 0 145 18q68 18 125 58q56 40 90 101q36 65 43 150q-40 -60 -120 -95q-78 -34 -169 -34q-96 0 -180 33t-145 91q-62 59 -98 141q-36 83 -36 182zM371 901q0 -84 56 -136t142 -52q85 0 143 53q56 52 56 135q0 84 -56 136q-58 53 -143 53q-84 0 -142 -53q-56 -52 -56 -136z " />
<glyph unicode=":" horiz-adv-x="659" d="M125 186q0 44 16 80q17 37 44 65q27 27 65 44q36 16 80 16q42 0 78 -16q35 -15 65 -44q28 -27 45 -65q17 -39 17 -80q0 -38 -17 -77q-17 -38 -45 -65q-30 -28 -65 -45t-78 -17q-45 0 -80 17q-38 18 -65 45t-44 65q-16 36 -16 77zM125 831q0 44 16 80q17 37 44 65t65 44 q36 16 80 16q42 0 78 -16q35 -15 65 -44q28 -27 45 -65q17 -39 17 -80q0 -38 -17 -77q-17 -38 -45 -65q-30 -28 -65 -45t-78 -17q-45 0 -80 17q-38 18 -65 45t-44 65q-16 36 -16 77z" />
<glyph unicode=";" horiz-adv-x="661" d="M125 831q0 44 16 80q17 37 44 65t65 44q36 16 80 16q42 0 78 -16q35 -15 65 -44q28 -27 45 -65q17 -39 17 -80q0 -38 -17 -77q-17 -38 -45 -65q-30 -28 -65 -45t-78 -17q-45 0 -80 17q-38 18 -65 45t-44 65q-16 36 -16 77zM131 168q0 78 55 129q56 51 140 51q52 0 91 -20 t65 -54q25 -32 40 -76q15 -43 15 -94q0 -112 -36 -194t-91 -136q-57 -56 -120 -82q-68 -28 -124 -34v137q31 6 65 24q40 21 63 44q30 30 46 62q19 37 20 81q-15 -14 -53 -14q-82 0 -129 50t-47 126z" />
<glyph unicode="&#x3c;" horiz-adv-x="1034" d="M72 500v221l899 459v-283l-590 -281l590 -284v-287z" />
<glyph unicode="=" horiz-adv-x="1243" d="M115 283v249h1013v-249h-1013zM115 694v250h1013v-250h-1013z" />
<glyph unicode="&#x3e;" horiz-adv-x="1034" d="M63 45v281l590 282l-590 285v287l900 -457v-221z" />
<glyph unicode="?" horiz-adv-x="1101" d="M63 1040q0 90 33 170q34 83 94 141q62 60 150 96t201 36q126 0 218 -34t155 -91q64 -58 94 -130t30 -149q0 -122 -53 -211q-51 -86 -145 -157l-78 -58q-50 -39 -87 -85q-34 -43 -34 -113h-244q-8 42 -8 90q0 72 34 147q35 77 122 142l104 77q41 31 58 67q16 35 16 77 q0 59 -45 108t-137 49q-47 0 -80 -16q-36 -17 -60 -44t-36 -61q-13 -37 -13 -71q0 -28 2 -52q1 -12 4 -24l-286 10q-4 22 -6 44zM350 156q0 74 51 126t125 52t126 -52q53 -53 53 -126q0 -38 -15 -69q-15 -32 -38 -55t-56 -38q-31 -14 -70 -14t-68 14q-36 17 -57 38 q-23 24 -37 55q-14 33 -14 69z" />
<glyph unicode="@" horiz-adv-x="1693" d="M74 676q0 182 64 329q65 149 175 255q108 104 258 165q147 60 314 60q160 0 295 -51q131 -50 233 -142q99 -90 154 -214q55 -123 55 -267q0 -118 -37 -213q-38 -98 -97 -164q-60 -67 -137 -105q-79 -39 -157 -40h-8q-85 0 -131 38q-46 39 -58 81q-36 -64 -99 -93 q-64 -30 -136 -30q-66 0 -122 25q-55 24 -97 73t-66 112q-24 64 -24 142q0 103 32 184q34 87 88 145q54 59 128 94q71 34 153 34q54 0 109 -27t77 -82l17 82h211l-107 -498q-2 -10 -2 -24q0 -22 16 -41t42 -19q35 0 70 24q37 25 62 65q28 43 44 102q16 58 16 133 q0 106 -39 193t-108 150q-66 60 -166 96q-95 34 -209 34q-126 0 -233 -43q-108 -43 -185 -122q-79 -81 -123 -189q-45 -111 -45 -246q0 -123 41 -231q40 -106 118 -185q77 -78 188 -122q112 -44 253 -44q87 0 178 24q95 25 176 83l105 -150q-40 -34 -95 -63 q-50 -27 -116 -49q-55 -19 -126 -32q-59 -11 -122 -11q-182 0 -332 55q-152 56 -262 157q-112 103 -172 244q-61 143 -61 318zM686 655q0 -75 31 -123q30 -47 98 -47q75 0 127 73q51 73 53 190q0 65 -30 104t-91 39q-41 0 -77 -19t-60 -50q-25 -33 -38 -74q-13 -42 -13 -93z " />
<glyph unicode="A" horiz-adv-x="1503" d="M20 0l547 1452h375l541 -1452h-353l-104 295h-561l-105 -295h-340zM571 590h353l-174 502z" />
<glyph unicode="B" horiz-adv-x="1263" d="M158 0v1452h542q106 0 192 -30t142 -82q59 -55 88 -122q31 -73 31 -155q0 -113 -61 -198q-60 -84 -152 -113q45 -11 95 -40q44 -25 83 -71q39 -45 59 -101q21 -59 21 -128q0 -90 -33 -165q-33 -76 -92 -130q-62 -57 -143 -86q-87 -31 -187 -31h-585zM473 264h203 q95 0 147 46q54 48 54 124t-53 123t-148 47h-203v-340zM473 870h176q87 0 136 42q51 43 51 116q0 71 -48 114q-46 42 -143 42h-172v-314z" />
<glyph unicode="C" horiz-adv-x="1581" d="M74 723q0 169 60 310q59 139 163 240q101 98 239 154t287 56q163 0 283 -47q115 -45 201 -120q79 -69 128 -159q45 -84 64 -164l-305 -96q-7 36 -32 84q-26 50 -66 89q-45 43 -110 70q-66 27 -163 27q-76 0 -147 -26q-73 -27 -133 -81q-59 -53 -97 -138q-36 -81 -36 -199 q0 -104 34 -182t94 -135q59 -56 133 -84q76 -29 156 -29q92 0 162 28q68 27 113 69q43 41 70 89q25 46 36 86l310 -88q-17 -73 -65 -164q-47 -89 -129 -165q-83 -77 -206 -128t-291 -51q-156 0 -295 55q-137 54 -238 152t-161 238q-59 137 -59 309z" />
<glyph unicode="D" horiz-adv-x="1486" d="M158 0v1452h526q163 0 298 -50q133 -49 230 -145t149 -229q52 -134 52 -303q0 -170 -52 -302q-52 -133 -149 -228q-98 -96 -231 -145q-136 -50 -299 -50h-524zM481 305h189q80 0 157 25q72 23 129 76q55 51 87 131q32 81 32 188t-32 188t-87 133t-129 76q-77 25 -157 25 h-189v-842z" />
<glyph unicode="E" horiz-adv-x="1193" d="M158 0v1452h919v-305h-596v-277h541v-284h-541v-279h598v-307h-921z" />
<glyph unicode="F" horiz-adv-x="1163" d="M158 0v1452h936v-307h-613v-307h539v-295h-537v-543h-325z" />
<glyph unicode="G" horiz-adv-x="1613" d="M74 725q0 172 60 311q60 140 164 239q103 98 241 153q139 55 290 55q157 0 272 -42q113 -41 196 -107q80 -64 130 -144q51 -81 74 -156l-311 -108q-7 31 -32 76q-26 46 -66 84q-43 40 -108 67q-64 27 -155 27q-71 0 -149 -26q-74 -25 -138 -81q-63 -55 -102 -141 t-39 -207q0 -114 35 -201q35 -86 95 -143t140 -87q79 -30 167 -30t154 26q67 26 108 62q40 35 66 78q24 40 30 72h-436v274h739v-776h-262l-20 147q-46 -68 -150 -123t-258 -55q-149 0 -286 54q-133 53 -233 152t-158 239q-58 138 -58 311z" />
<glyph unicode="H" horiz-adv-x="1542" d="M158 0v1452h323v-569h580v569h325v-1452h-325v578h-580v-578h-323z" />
<glyph unicode="I" horiz-adv-x="641" d="M158 0v1452h327v-1452h-327z" />
<glyph unicode="J" horiz-adv-x="1163" d="M41 449v96l307 53v-133q0 -98 52 -143q54 -46 124 -46q80 0 125 53t45 134v989h324v-997q0 -99 -36 -188t-101 -154q-66 -66 -156 -105t-199 -39q-110 0 -197 34q-92 36 -153 97q-63 63 -99 152q-36 88 -36 197z" />
<glyph unicode="K" horiz-adv-x="1460" d="M158 0v1452h323v-610l531 610h426l-566 -629l568 -823h-404l-391 571l-164 -182v-389h-323z" />
<glyph unicode="L" horiz-adv-x="1159" d="M158 0v1452h323v-1143h627v-309h-950z" />
<glyph unicode="M" horiz-adv-x="1959" d="M158 0v1452h422l399 -981l379 981h444v-1452h-317v963l-379 -963h-262l-379 950v-950h-307z" />
<glyph unicode="N" horiz-adv-x="1574" d="M158 0v1452h393l545 -883v883h323v-1452h-342l-598 954v-954h-321z" />
<glyph unicode="O" d="M74 725q0 171 60 312q60 140 164 240q105 101 241 153q138 53 290 53t290 -53q137 -54 240 -153q104 -100 164 -240q60 -141 60 -312t-60 -311t-164 -239q-104 -100 -240 -152q-140 -54 -290 -54t-290 54q-137 53 -241 152t-164 239t-60 311zM410 727q0 -118 36 -197 q37 -81 98 -136t135 -80t150 -25q77 0 151 25q72 25 134 80q58 52 96 136q37 81 37 197q0 114 -37 197q-39 87 -96 137q-62 54 -134 80t-151 26q-78 0 -150 -26q-74 -27 -135 -80q-60 -53 -98 -137q-36 -81 -36 -197z" />
<glyph unicode="P" horiz-adv-x="1255" d="M158 0v1452h547q108 0 201 -35q92 -35 158 -96t102 -147t36 -187q0 -103 -36 -188q-37 -87 -102 -148q-64 -60 -158 -95q-90 -34 -201 -34h-224v-522h-323zM483 801h189q93 0 149 49q58 50 58 135q0 87 -58 137q-56 49 -149 49h-189v-370z" />
<glyph unicode="Q" d="M74 725q0 171 60 312q60 140 164 240q105 101 241 153q138 53 290 53t290 -53q137 -54 240 -153q104 -100 164 -240q60 -141 60 -312q0 -148 -43 -268q-43 -121 -121 -215l178 -195l-213 -180l-178 196q-169 -94 -377 -94q-150 0 -290 54q-137 53 -241 152t-164 239 t-60 311zM410 727q0 -118 36 -197q37 -81 98 -136t135 -80t150 -25q75 0 148 24l-213 234l215 180l213 -233q25 43 41 104q14 53 14 129q0 114 -37 197q-39 87 -96 137q-62 54 -134 80t-151 26q-78 0 -150 -26q-74 -27 -135 -80q-60 -53 -98 -137q-36 -81 -36 -197z" />
<glyph unicode="R" horiz-adv-x="1286" d="M158 0v1452h575q106 0 194 -35q86 -34 148 -96q60 -60 95 -144q34 -81 34 -180q0 -148 -76 -255q-77 -108 -210 -154l294 -588h-356l-260 541h-115v-541h-323zM481 819h191q100 0 152 49q53 50 53 127q0 82 -53 129t-152 47h-191v-352z" />
<glyph unicode="S" horiz-adv-x="1247" d="M53 434l297 72q4 -48 24 -95q19 -46 56 -80t92 -55q53 -20 129 -20q97 0 151 42t54 110q0 56 -42 93q-41 37 -114 52l-198 37q-185 34 -291 149q-105 114 -105 277q0 102 42 188q43 87 114 148q72 62 166 96q96 35 199 35q136 0 231 -37q99 -39 159 -93q62 -56 95 -125 t45 -132l-291 -82q-5 29 -17 56q-14 32 -41 59q-29 29 -73 48t-110 19q-91 0 -145 -48t-54 -108q0 -54 34 -89t109 -50l195 -37q104 -18 182 -60q79 -43 131 -99q53 -58 80 -128t27 -149q0 -84 -35 -168q-34 -82 -103 -146q-69 -65 -169 -105q-99 -40 -230 -40 q-151 0 -260 44q-106 43 -180 112q-72 67 -109 149q-38 83 -45 160z" />
<glyph unicode="T" horiz-adv-x="1296" d="M39 1143v309h1218v-309h-448v-1143h-324v1143h-446z" />
<glyph unicode="U" horiz-adv-x="1441" d="M145 524v928h324v-901q0 -133 68 -199q66 -65 184 -65t184 65q68 66 68 199v901h323v-928q0 -136 -45 -240t-123 -174q-79 -71 -183 -107q-105 -36 -224 -36q-120 0 -225 36q-104 36 -183 107q-78 70 -123 174t-45 240z" />
<glyph unicode="V" horiz-adv-x="1437" d="M20 1452h357l350 -1022l346 1022h344l-530 -1452h-334z" />
<glyph unicode="W" horiz-adv-x="2127" d="M23 1452h344l239 -930l301 930h332l301 -932l236 932h331l-395 -1452h-334l-309 963l-311 -963h-340z" />
<glyph unicode="X" horiz-adv-x="1423" d="M39 0l469 727l-469 725h389l287 -471l286 471h379l-467 -729l471 -723h-393l-286 471l-285 -471h-381z" />
<glyph unicode="Y" horiz-adv-x="1378" d="M20 1452h379l297 -539l301 539h361l-510 -846v-606h-324v606z" />
<glyph unicode="Z" horiz-adv-x="1318" d="M74 0v311l700 832h-670v309h1115v-299l-717 -844h725v-309h-1153z" />
<glyph unicode="[" horiz-adv-x="677" d="M158 -350v2036h510v-234h-252v-1565h252v-237h-510z" />
<glyph unicode="\" horiz-adv-x="1017" d="M0 1481h283l735 -1510h-281z" />
<glyph unicode="]" horiz-adv-x="677" d="M10 -113h254v1565h-254v234h512v-2036h-512v237z" />
<glyph unicode="^" horiz-adv-x="1095" d="M25 717l407 735h230l409 -735h-283l-237 444l-240 -444h-286z" />
<glyph unicode="_" horiz-adv-x="1050" d="M4 0h1045v-254h-1045v254z" />
<glyph unicode="`" horiz-adv-x="630" d="M43 1448h354l191 -309h-254z" />
<glyph unicode="a" horiz-adv-x="1118" d="M76 281q0 70 23 120q25 55 65 92q39 36 95 61q52 23 118 34l239 37q42 6 58 24q16 17 16 45q0 45 -38 78t-111 33q-83 0 -126 -46t-48 -104l-271 56q4 54 33 114q28 58 83 109q53 49 136 82q82 33 195 33q122 0 209 -32q86 -31 140 -86q54 -54 78 -126q23 -69 23 -150 v-497q0 -55 5 -105q3 -26 8 -53h-281q-1 4 -6 34q-4 24 -4 81q-40 -66 -113 -105q-72 -39 -174 -39q-82 0 -149 26q-66 25 -111 69q-46 44 -69 98q-23 53 -23 117zM383 301q0 -40 28 -73q27 -31 93 -31q34 0 68 9t60 33q26 25 42 62q16 38 16 98v45l-192 -30q-47 -7 -82 -34 q-33 -26 -33 -79z" />
<glyph unicode="b" horiz-adv-x="1273" d="M137 0v1483h305v-561q33 47 112 84q76 36 183 36q112 0 199 -40q89 -41 148 -110q62 -72 94 -168q32 -95 32 -212q0 -119 -35 -215q-35 -97 -101 -169q-64 -70 -153 -111q-87 -40 -196 -40q-102 0 -177 39q-76 39 -110 99v-115h-301zM438 510q0 -63 20 -111 q20 -47 51 -78q33 -33 74 -49t87 -16q45 0 87 15q40 14 73 47q34 34 51 80q18 48 18 112t-18 112q-17 46 -51 78q-33 32 -73 46q-45 16 -87 16t-87 -16q-41 -15 -74 -46q-31 -30 -51 -78q-20 -49 -20 -112z" />
<glyph unicode="c" horiz-adv-x="1148" d="M63 508q0 119 42 218q41 97 115 171q71 71 170 112q96 40 210 40q104 0 188 -30q86 -31 146 -79q61 -49 100 -114q40 -66 56 -132l-279 -84q-7 28 -25 57q-17 28 -41 49q-26 22 -59 34q-35 12 -80 12q-48 0 -91 -17q-44 -17 -74 -49q-32 -34 -50 -80t-18 -108 q0 -63 19 -108q18 -44 51 -78q32 -34 75 -50q42 -16 92 -16q90 0 143 47q51 45 68 105l275 -84q-17 -68 -57 -131q-42 -66 -101 -113q-63 -51 -143 -80q-85 -31 -185 -31q-116 0 -214 40q-101 41 -173 112q-74 73 -117 170q-43 98 -43 217z" />
<glyph unicode="d" horiz-adv-x="1282" d="M63 512q0 114 37 210q38 98 103 169q64 70 155 111q89 40 199 40q70 0 113 -11q53 -14 80 -26q30 -14 52 -34q17 -15 29 -33v545h308v-1301q0 -69 3 -117q2 -32 5 -65h-299q-3 24 -5 39q-3 28 -3 59q-34 -51 -108 -87q-71 -34 -165 -34q-110 0 -200 40q-93 41 -160 111 q-69 73 -106 169q-38 100 -38 215zM377 510q0 -64 18 -111q18 -46 50 -78q33 -33 74 -49t87 -16t87 16t74 49q32 32 50 78q19 49 19 111t-19 111q-18 46 -50 78t-74 47q-45 16 -87 16t-87 -16q-42 -15 -74 -47t-50 -78q-18 -47 -18 -111z" />
<glyph unicode="e" horiz-adv-x="1144" d="M63 512q0 123 42 222q42 100 113 169q72 71 163 108q93 38 190 38q236 0 374 -138q136 -136 136 -385q0 -22 -2 -62q-1 -26 -4 -34h-708q1 -43 21 -79q18 -34 51 -62q29 -25 73 -41q40 -15 86 -15q87 0 134 37q49 38 71 97l260 -74q-18 -64 -57 -125q-38 -59 -99 -103 q-64 -46 -138 -70q-81 -26 -175 -26q-106 0 -201 37q-96 37 -170 107q-71 67 -116 170q-44 102 -44 229zM373 631h407q-1 26 -13 59q-13 32 -36 55q-25 25 -62 41q-39 17 -94 17q-47 0 -86 -17q-35 -15 -62 -41q-25 -23 -39 -55q-13 -30 -15 -59z" />
<glyph unicode="f" horiz-adv-x="743" d="M23 756v262h161v88q0 87 26 160q25 70 76 124q47 50 123 80q73 29 164 29q47 0 86 -6q41 -6 62 -16v-254q-9 3 -34 7q-21 3 -58 3q-17 0 -44 -5q-21 -4 -43 -21q-20 -15 -33 -42q-13 -26 -13 -69v-78h221v-262h-221v-756h-312v756h-161z" />
<glyph unicode="g" horiz-adv-x="1243" d="M66 -57l274 77q16 -72 74 -121t145 -49q115 0 184 61q68 60 68 200v47q-28 -40 -95 -78q-65 -37 -177 -37q-102 0 -189 38q-86 38 -149 104q-64 67 -100 157q-35 88 -35 197q0 101 34 190t98 159q61 67 149 108q86 40 192 40q61 0 109 -12q45 -11 83 -31q33 -17 57 -41 q23 -23 33 -43v109h297v-891q0 -108 -32 -209q-30 -96 -98 -174q-65 -76 -169 -120q-103 -44 -246 -44q-108 0 -199 31q-88 30 -154 82q-63 49 -104 117q-39 64 -50 133zM377 539q0 -106 62 -165q64 -61 157 -61q96 0 157 61q60 60 60 165q0 53 -17 93q-18 42 -47 71 q-32 32 -70 46q-40 15 -83 15q-42 0 -83 -15q-40 -15 -71 -46t-48 -71t-17 -93z" />
<glyph unicode="h" horiz-adv-x="1218" d="M137 0v1483h312v-531q48 48 119 70q70 22 141 22q102 0 173 -31q73 -32 119 -87q48 -57 70 -129q23 -75 23 -158v-639h-312v586q0 77 -40 126q-41 50 -126 50q-73 0 -118 -46q-44 -46 -49 -118v-598h-312z" />
<glyph unicode="i" horiz-adv-x="583" d="M111 1329q0 39 14 71q15 34 39 58t57 39q31 14 70 14q78 0 131 -53t53 -129t-53 -129t-131 -53q-39 0 -70 14q-33 15 -57 39t-39 58q-14 32 -14 71zM137 0v1018h312v-1018h-312z" />
<glyph unicode="j" horiz-adv-x="585" d="M-59 -133q8 -3 33 -8q21 -4 59 -4q54 0 79 28t25 76v1059h312v-1092q0 -78 -24 -141q-25 -66 -67 -109q-44 -45 -105 -70q-64 -26 -140 -26q-81 0 -122 12q-33 10 -50 17v258zM111 1329q0 77 53 130q52 52 127 52q79 0 131 -52q53 -53 53 -130q0 -76 -53 -129t-131 -53 q-39 0 -70 14q-33 15 -57 39t-39 58q-14 32 -14 71z" />
<glyph unicode="k" horiz-adv-x="1179" d="M137 0v1483h312v-807l309 342h403l-397 -428l405 -590h-381l-239 358l-100 -108v-250h-312z" />
<glyph unicode="l" horiz-adv-x="585" d="M137 0v1483h312v-1483h-312z" />
<glyph unicode="m" horiz-adv-x="1845" d="M137 0v1018h297v-117q19 35 51 61q35 29 73 47q36 17 84 29q46 11 85 11q109 0 186 -42q76 -42 115 -118q61 87 135 123q75 37 180 37q69 0 141 -22q66 -20 121 -69q53 -46 84 -120q31 -72 31 -179v-659h-301v590q0 73 -39 122q-39 50 -123 50q-83 0 -127 -53 q-43 -52 -43 -121v-588h-307v590q0 73 -39 122q-39 50 -125 50q-80 0 -124 -53q-43 -52 -43 -123v-586h-312z" />
<glyph unicode="n" horiz-adv-x="1218" d="M137 0v1018h301v-117q20 37 54 64q31 25 70 44q33 16 80 26q42 9 81 9q98 0 166 -31q70 -32 116 -87t67 -129q22 -77 22 -158v-639h-312v586q0 77 -40 126q-41 50 -126 50q-77 0 -122 -50t-45 -128v-584h-312z" />
<glyph unicode="o" horiz-adv-x="1208" d="M63 510q0 118 42 217q41 96 115 170q71 71 171 112q98 40 213 40t213 -40q100 -41 171 -112q74 -74 115 -170q42 -99 42 -217q0 -119 -42 -218q-41 -97 -115 -171q-71 -71 -171 -112q-98 -40 -213 -40t-213 40q-100 41 -171 112q-74 74 -115 171q-42 99 -42 218zM375 510 q0 -65 19 -112q20 -49 51 -80q32 -32 74 -47t85 -15q46 0 86 15q41 15 73 47q31 31 51 79t20 113q0 63 -20 112q-20 48 -51 78q-33 31 -73 46q-43 16 -86 16q-40 0 -85 -16q-41 -15 -74 -46q-31 -30 -51 -78q-19 -47 -19 -112z" />
<glyph unicode="p" horiz-adv-x="1273" d="M137 -389v1407h301v-105q32 48 111 89q77 40 188 40q112 0 199 -40q89 -41 148 -110q62 -72 94 -168q32 -95 32 -212q0 -119 -35 -215q-35 -97 -101 -169q-64 -70 -153 -111q-87 -40 -196 -40q-98 0 -170 30t-106 73v-469h-312zM444 510q0 -62 19 -111q18 -46 50 -78 q33 -33 74 -49t87 -16q45 0 87 15q41 15 75 47q33 31 51 80q18 48 18 112t-18 111t-51 78q-34 32 -75 47q-45 16 -87 16t-87 -16q-42 -15 -74 -47t-50 -78q-19 -49 -19 -111z" />
<glyph unicode="q" horiz-adv-x="1273" d="M63 512q0 112 36 210q35 96 101 169q63 70 155 111q90 40 200 40q70 0 118 -13q51 -14 85 -33q32 -18 55 -41q22 -22 29 -37v100h297v-1407h-305v471q-35 -47 -103 -76q-69 -29 -164 -29q-110 0 -200 40q-93 41 -160 111q-69 73 -106 169q-38 100 -38 215zM379 510 q0 -64 18 -111q18 -46 50 -78q33 -33 74 -49t87 -16q45 0 87 15t74 47t50 80q19 51 19 112q0 62 -19 111q-18 46 -50 78t-74 47q-45 16 -87 16t-87 -16q-42 -15 -74 -47t-50 -78q-18 -47 -18 -111z" />
<glyph unicode="r" horiz-adv-x="825" d="M137 0v1018h301v-137q21 43 52 71q32 28 69 45t75 24q35 7 68 7q49 0 82 -10v-307q-30 7 -51 8q-32 2 -47 2q-49 0 -90 -14q-43 -15 -76 -48q-32 -32 -52 -86q-19 -51 -19 -129v-444h-312z" />
<glyph unicode="s" horiz-adv-x="954" d="M53 289l264 47q5 -53 42 -95t118 -42q60 0 89 26q30 27 30 62q0 28 -22 50t-78 34l-117 26q-78 17 -139 49q-55 29 -95 72q-36 39 -53 90q-16 48 -16 103q0 71 28 131t81 107q52 46 124 73t158 27q107 0 186 -31q75 -29 124 -77q50 -48 71 -98q21 -49 26 -98l-258 -47 q-6 52 -39 88q-34 37 -106 37q-46 0 -78 -23q-33 -24 -33 -65q0 -33 23 -51q24 -19 57 -25l135 -26q161 -33 237 -120q77 -88 77 -200q0 -63 -25 -127q-23 -59 -76 -109q-52 -49 -126 -78q-76 -30 -179 -30q-121 0 -201 34q-82 35 -130 83q-49 49 -73 104q-25 57 -26 99z " />
<glyph unicode="t" horiz-adv-x="782" d="M23 745v273h51q80 0 119 47q38 45 38 119v131h279v-297h199v-273h-199v-380q0 -63 31 -85t82 -22q25 0 46 3q24 3 36 7v-258q-5 -2 -50 -16q-39 -12 -112 -12q-160 0 -250 87t-90 240v436h-180z" />
<glyph unicode="u" horiz-adv-x="1220" d="M127 375v643h311v-578q0 -75 40 -125q40 -51 124 -51q78 0 124 48q46 47 46 126v580h311v-836q0 -76 4 -120q2 -22 7 -62h-299q-6 19 -7 48q-2 46 -2 54q-40 -65 -117 -95q-76 -30 -155 -30q-92 0 -165 32q-72 32 -122 86q-48 52 -74 126q-26 73 -26 154z" />
<glyph unicode="v" horiz-adv-x="1159" d="M20 1018h338l236 -633l217 633h328l-387 -1018h-314z" />
<glyph unicode="w" horiz-adv-x="1742" d="M23 1018h323l170 -602l201 602h330l198 -604l170 604h305l-315 -1018h-309l-222 657l-217 -657h-315z" />
<glyph unicode="x" horiz-adv-x="1130" d="M23 1018h366l182 -279l179 279h348l-353 -498q25 -36 86.5 -123.5t95.5 -136.5q104 -150 183 -260h-365l-188 287l-45 -68q-8 -12 -24.5 -37t-24.5 -38l-48 -75q-3 -4 -19.5 -30.5t-24.5 -38.5h-342l350 508z" />
<glyph unicode="y" horiz-adv-x="1183" d="M12 1018h348l248 -545l226 545h329l-626 -1409h-328l231 528z" />
<glyph unicode="z" horiz-adv-x="1001" d="M74 0v274l448 478h-436v266h834v-256l-469 -494h477v-268h-854z" />
<glyph unicode="{" horiz-adv-x="788" d="M92 551v254q85 0 141 41t56 139v297q0 205 111 304q112 100 296 100h82v-234h-76q-56 0 -106 -36q-49 -36 -49 -130v-348q0 -95 -52 -163q-52 -69 -151 -97q99 -28 151 -97q52 -68 52 -165v-348q0 -48 13 -80q14 -34 36 -53t50 -27q29 -8 56 -8h76v-232h-82 q-184 0 -296 98q-111 98 -111 304v299q0 98 -56 140q-55 42 -141 42z" />
<glyph unicode="|" horiz-adv-x="571" d="M158 -332v2018h258v-2018h-258z" />
<glyph unicode="}" horiz-adv-x="788" d="M10 -100h76q27 0 56 8t51 27q20 17 36 53q15 33 15 80v348q0 96 51 165t149 97q-98 28 -149 97t-51 163v348q0 48 -15 79q-16 34 -36 51q-23 20 -51 28q-29 8 -56 8h-76v234h82q187 0 298 -99q112 -100 112 -305v-297q0 -99 54 -139q55 -41 140 -41v-254q-86 0 -140 -42 t-54 -140v-299q0 -206 -112 -304t-298 -98h-82v232z" />
<glyph unicode="~" horiz-adv-x="1206" d="M45 582q56 110 150 168q92 57 202 57q115 0 224 -59l98 -54q52 -28 104 -28q51 0 95 25t79 77l164 -133q-57 -111 -148 -168q-92 -57 -202 -57q-115 0 -227 61l-97 53q-47 27 -100 27q-107 0 -174 -102z" />
<glyph unicode="&#xa1;" horiz-adv-x="645" d="M135 -422l72 997h229l72 -997h-373zM145 872q0 73 52 125t125 52q71 0 125 -52q53 -51 53 -125q0 -36 -15 -68t-38 -55t-56 -38t-69 -15q-38 0 -69 15q-34 16 -56 38q-25 25 -38 55q-14 33 -14 68z" />
<glyph unicode="&#xa2;" horiz-adv-x="1132" d="M76 653q0 93 28 173q28 81 81 144q52 62 123 106q74 46 155 63v190h235v-186q149 -28 238 -119q88 -90 117 -199l-265 -77q-17 55 -62 97q-47 44 -134 44q-91 0 -157 -61q-64 -60 -64 -175q0 -111 66 -171t159 -60q89 0 136 43q49 44 65 96l262 -76q-28 -107 -120 -199 t-241 -120v-166h-235v172q-86 22 -155 64q-73 45 -123 105q-53 64 -81 141q-28 78 -28 171z" />
<glyph unicode="&#xa3;" horiz-adv-x="1212" d="M115 0v242q98 34 155 96q58 63 58 154q0 9 -2 33q-1 12 -7 34h-198v225h117q-13 42 -20 79q-7 39 -7 93q0 76 30 148q30 73 88 129q59 58 141 92q84 35 192 35q121 0 205 -38q83 -38 134 -96t75 -128q24 -69 24 -133l-271 -39q-1 80 -43 131q-40 49 -120 49 q-62 0 -110 -39t-48 -121q0 -46 9 -84q8 -35 26 -78h360v-225h-289q2 -14 2 -18v-19q0 -72 -28 -140t-99 -116h269q64 0 108 41q43 40 43 111l271 -17q0 -83 -28 -159q-26 -72 -78 -128q-49 -53 -120 -84q-69 -30 -155 -30h-684z" />
<glyph unicode="&#xa4;" horiz-adv-x="1206" d="M63 156l148 145q-24 40 -39 95q-14 50 -14 112q0 111 51 207l-146 147l187 185l151 -152q96 47 203 47q54 0 107 -12q52 -11 94 -35l151 152l187 -185l-146 -147q24 -40 39 -95q15 -54 15 -112q0 -60 -15 -111q-15 -52 -39 -98l146 -143l-187 -187l-149 152 q-96 -47 -203 -47t-203 47l-151 -152zM414 508q0 -82 52 -134t138 -52t138 52q53 53 53 134t-53 134q-52 52 -138 52t-138 -52t-52 -134z" />
<glyph unicode="&#xa5;" horiz-adv-x="1292" d="M43 1329h346l264 -483l265 483h331l-305 -510h221v-217h-372v-129h372v-217h-372v-256h-299v256h-353v217h353v129h-353v217h201z" />
<glyph unicode="&#xa6;" horiz-adv-x="571" d="M158 -334v815h258v-815h-258zM158 870v816h258v-816h-258z" />
<glyph unicode="&#xa7;" horiz-adv-x="1136" d="M119 -37l293 45q0 -89 45 -127q44 -37 110 -37q61 0 95 33t34 84q0 31 -19 59q-21 30 -54 46l-207 104q-70 35 -111 62q-55 36 -93 77q-39 42 -64 98q-23 52 -23 125q0 97 44 161t105 98q-73 60 -109 133q-36 74 -36 157q0 92 38 166q37 73 99 126q61 52 142 81t163 29 q98 0 182 -28q79 -26 138 -79q57 -51 90 -122q32 -69 37 -156l-293 -45q0 92 -44 128t-110 36q-60 0 -95 -34q-36 -35 -36 -83q0 -31 20 -59t54 -44l207 -106q50 -26 110 -64q58 -37 94 -75q38 -40 63 -99q24 -56 24 -127q0 -95 -45 -158q-44 -62 -105 -100q73 -57 111 -131 q37 -73 37 -155q0 -91 -38 -167q-36 -73 -100 -127q-62 -52 -141 -81q-81 -29 -164 -29q-200 0 -320 106q-117 104 -128 279zM406 596q0 -40 13 -65t54 -48l209 -110q20 17 36 41q15 22 15 51q0 37 -14 62q-16 30 -55 51l-209 110q-23 -22 -36 -43q-13 -22 -13 -49z" />
<glyph unicode="&#xa8;" horiz-adv-x="856" d="M45 1294q0 66 45 112t111 46q65 0 111 -46t46 -112q0 -65 -46 -110t-111 -45q-66 0 -111 45t-45 110zM498 1294q0 66 45 112t110 46q66 0 112 -46t46 -112q0 -65 -46 -110q-47 -45 -112 -45t-110 45t-45 110z" />
<glyph unicode="&#xa9;" horiz-adv-x="1665" d="M74 725q0 158 59 295q61 141 163 242q103 101 241 162q139 61 294 61q153 0 295 -61q140 -60 242 -162q103 -103 163 -242t60 -295q0 -159 -60 -295t-163 -241q-99 -101 -242 -162q-140 -60 -295 -60q-157 0 -294 60q-141 62 -241 162q-102 102 -163 241q-59 134 -59 295 zM256 725q0 -121 44 -230q43 -108 122 -188t182 -126q104 -46 227 -46q125 0 229 46q105 47 183 126q79 80 122 188q44 109 44 230q0 122 -44 231q-44 110 -122 189t-183 126q-104 46 -229 46q-123 0 -227 -46q-103 -46 -182 -126q-78 -79 -122 -189q-44 -109 -44 -231z M444 719q0 87 31 161q29 70 84 125q52 51 125 81q72 30 154 30q75 0 138 -21q60 -20 107 -59q46 -38 74 -84q29 -46 39 -96l-203 -61q-5 19 -18 41q-10 18 -31 35q-20 16 -44 25q-25 9 -58 9q-36 0 -66 -12t-54 -36t-37 -58q-13 -33 -13 -80t14 -79q14 -33 37 -57t54 -36 t69 -12q66 0 103 34q38 35 50 76l203 -61q-12 -51 -42 -97q-31 -48 -75 -83t-105 -58q-59 -22 -134 -22q-87 0 -158 29q-76 31 -127 82q-55 55 -85 124q-32 73 -32 160z" />
<glyph unicode="&#xaa;" horiz-adv-x="864" d="M102 813q0 96 63 148t150 67l166 25q51 7 51 49q0 29 -25 50q-27 22 -75 22q-55 0 -85 -32q-29 -31 -34 -69l-196 41q5 40 23 78q19 40 58 77q36 34 96 59q58 24 140 24q88 0 149 -23q62 -23 98 -61t55 -89q18 -49 18 -106v-348q0 -41 3 -71q2 -17 5 -40h-205 q-3 15 -4 28q-2 26 -2 50q-28 -46 -79 -72q-50 -26 -120 -26q-58 0 -105 18q-46 18 -79 48t-49 70q-17 42 -17 83zM328 827q0 -29 18 -50t64 -21t84 28t38 109v31l-126 -21q-37 -5 -57 -22q-21 -18 -21 -54z" />
<glyph unicode="&#xab;" horiz-adv-x="1126" d="M53 608l287 410h289l-285 -412l283 -397h-291zM518 608l287 410h291l-285 -412l283 -397h-293z" />
<glyph unicode="&#xac;" horiz-adv-x="1226" d="M92 664v256h1030v-656h-266v400h-764z" />
<glyph unicode="&#xad;" horiz-adv-x="798" d="M92 477v281h615v-281h-615z" />
<glyph unicode="&#xae;" horiz-adv-x="1665" d="M74 725q0 158 59 295q61 141 163 242q103 101 241 162q139 61 294 61q153 0 295 -61q140 -60 242 -162q103 -103 163 -242t60 -295q0 -159 -60 -295t-163 -241q-99 -101 -242 -162q-140 -60 -295 -60q-157 0 -294 60q-141 62 -241 162q-102 102 -163 241q-59 134 -59 295 zM256 725q0 -121 44 -230q43 -108 122 -188t182 -126q104 -46 227 -46q125 0 229 46q105 47 183 126q79 80 122 188q44 109 44 230q0 122 -44 231q-44 110 -122 189t-183 126q-104 46 -229 46q-123 0 -227 -46q-103 -46 -182 -126q-78 -79 -122 -189q-44 -109 -44 -231z M549 322v815h342q59 0 110 -21q56 -23 90 -57q39 -39 59 -86q21 -49 21 -105q0 -79 -39 -140q-40 -62 -106 -95l156 -311h-234l-125 274h-61v-274h-213zM762 768h88q50 0 78 27t28 71q0 48 -28 73q-29 26 -78 26h-88v-197z" />
<glyph unicode="&#xaf;" horiz-adv-x="675" d="M45 1182v215h586v-215h-586z" />
<glyph unicode="&#xb0;" horiz-adv-x="765" d="M37 1020q0 69 28 133q27 61 74 108q44 43 110 72q63 27 134 27q70 0 133 -27q68 -29 111 -72q47 -47 74 -108q28 -64 28 -133q0 -71 -28 -136q-27 -62 -74 -108q-45 -43 -111 -70q-64 -26 -135 -26t-134 27q-67 29 -110 72q-47 47 -74 108q-26 59 -26 133zM258 1020 q0 -60 36 -98q36 -37 89 -37t88 38t35 97q0 58 -35 95q-34 36 -88 36q-53 0 -89 -36t-36 -95z" />
<glyph unicode="&#xb1;" horiz-adv-x="1239" d="M125 82v254h989v-254h-989zM125 643v254h362v240h263v-240h364v-254h-364v-237h-263v237h-362z" />
<glyph unicode="&#xb2;" horiz-adv-x="811" d="M98 696v27q0 105 40 188q40 84 147 144l123 69q73 40 73 93q0 22 -16 45q-16 24 -64 24q-46 0 -69 -29t-23 -69q0 -13 2 -23q0 -2 1 -4.5t2 -4.5t1 -3h-204q-6 15 -7 28q-2 20 -2 27q0 49 19 100q18 48 57 84q40 37 95 57q57 21 135 21q74 0 128 -20q56 -21 95 -55 q37 -32 59 -82q21 -47 21 -99q0 -73 -45 -130t-127 -103l-138 -80q-10 -6 -10 -10h326v-195h-619z" />
<glyph unicode="&#xb3;" horiz-adv-x="841" d="M96 926l211 37q2 -39 31 -67q30 -28 76 -28q43 0 70 22q26 21 26 54q0 43 -29 63q-28 19 -65 19q-33 0 -60 -12l-71 153l161 97h-323v188h596v-190l-174 -105q97 -16 149 -74q51 -57 51 -145q0 -53 -22 -98q-23 -47 -66 -83q-46 -38 -104 -58q-61 -21 -139 -21 q-72 0 -129 21q-55 20 -98 57q-37 31 -63 79q-23 42 -28 91z" />
<glyph unicode="&#xb4;" horiz-adv-x="626" d="M45 1139l188 309h349l-289 -309h-248z" />
<glyph unicode="&#xb5;" horiz-adv-x="1241" d="M139 -389v1407h312v-578q0 -76 39 -125q40 -51 124 -51q78 0 124 48q46 47 46 126v580h312v-836q0 -75 4 -119q3 -33 6 -63h-299q-5 15 -6 48q-2 46 -2 54q-39 -64 -118 -95q-77 -30 -155 -30q-31 0 -75 7v-373h-312z" />
<glyph unicode="&#xb6;" horiz-adv-x="1404" d="M45 1016q0 107 40 187t108 136t157 84q92 29 193 29h839v-229h-198v-1614h-240v1614h-201v-1614h-235v987h-37q-86 0 -164 33q-79 33 -136 89t-92 133q-34 75 -34 165z" />
<glyph unicode="&#xb7;" horiz-adv-x="600" d="M117 659q0 39 15 73t41 60q23 23 60 39q35 15 76 15q39 0 75 -15q38 -16 61 -39q26 -26 41 -60q16 -37 16 -73q0 -83 -57 -135q-58 -53 -136 -53t-136 53q-56 52 -56 135z" />
<glyph unicode="&#xb8;" horiz-adv-x="612" d="M43 -369l96 121q23 -23 62 -50q40 -28 94 -28q78 0 78 54q0 19 -19 35t-53 16q-8 0 -28 -2q-15 -1 -27 -6l-76 100l98 154h185l-82 -125q93 -5 145 -54q53 -50 53 -127q0 -36 -14 -70q-16 -38 -46 -65q-32 -29 -84 -47t-128 -18q-90 0 -158 38q-69 38 -96 74z" />
<glyph unicode="&#xb9;" horiz-adv-x="628" d="M66 1133v151q54 0 93 16q37 15 66 41q24 22 41 55q15 31 21 56h207v-754h-236v435h-192z" />
<glyph unicode="&#xba;" horiz-adv-x="987" d="M113 973q0 84 29 151q31 71 81 121q52 52 121 79q72 28 150 28q77 0 149 -28q69 -27 121 -79q50 -50 81 -121q29 -67 29 -151q0 -87 -29 -154q-31 -72 -81 -120q-51 -50 -121 -77q-72 -28 -149 -28q-78 0 -150 28q-70 27 -121 77q-50 48 -81 120q-29 67 -29 154zM340 973 q0 -86 47 -128q46 -42 107 -42q58 0 107 41q48 40 48 129t-48 129q-49 41 -107 41q-60 0 -107 -41t-47 -129z" />
<glyph unicode="&#xbb;" horiz-adv-x="1126" d="M33 209l284 397l-284 412h289l286 -410l-282 -399h-293zM498 1018h290l287 -410l-284 -399h-291l282 397z" />
<glyph unicode="&#xbc;" horiz-adv-x="1683" d="M86 1010v151q51 0 93 17q39 16 67 41q25 22 41 54q14 27 20 56h207v-754h-235v435h-193zM215 0l930 1329h264l-932 -1329h-262zM903 147v230l336 381h248v-436h121v-175h-121v-145h-227v145h-357zM1073 322h187v208z" />
<glyph unicode="&#xbd;" horiz-adv-x="1738" d="M86 1010v151q51 0 93 17q39 16 67 41q25 22 41 54q14 27 20 56h207v-754h-235v435h-193zM213 0l930 1329h264l-932 -1329h-262zM1028 2v27q0 105 40 188t146 143l123 70q74 41 74 92q0 22 -16 45q-17 25 -64 25q-46 0 -69 -29t-23 -69q0 -13 2 -23q0 -2 1 -4.5t2 -4.5 t1 -3h-205q-4 12 -6 27q-2 20 -2 28q0 48 19 99q18 48 57 84q41 38 95 58q57 21 134 21q74 0 128 -20q56 -21 96 -56q37 -32 59 -82q20 -44 20 -98q0 -73 -45 -130t-127 -103l-137 -80q-10 -6 -10 -10h326v-195h-619z" />
<glyph unicode="&#xbe;" horiz-adv-x="1845" d="M96 803l211 37q2 -39 31 -67q30 -28 76 -28q43 0 70 22q26 21 26 54q0 43 -29 63q-28 19 -65 19q-33 0 -60 -12l-71 153l161 97h-323v188h596v-190l-174 -105q98 -16 149 -73t51 -146q0 -53 -22 -98q-23 -47 -66 -83q-44 -37 -104 -57q-64 -22 -139 -22q-69 0 -129 22 q-57 21 -98 56q-37 31 -63 79q-23 42 -28 91zM381 0l930 1329h264l-932 -1329h-262zM1065 147v230l336 381h248v-436h120v-175h-120v-145h-228v145h-356zM1235 322h186v208z" />
<glyph unicode="&#xbf;" horiz-adv-x="1021" d="M23 -47q0 124 52 212q54 91 142 157l78 57q54 40 88 87q33 46 33 112h243q6 -30 7 -44q2 -28 2 -47q0 -69 -32 -147q-31 -74 -120 -141l-102 -78q-41 -34 -59 -69q-17 -34 -17 -75q0 -59 45 -106t137 -47q96 0 142 57q47 58 47 135q0 36 -11 78l293 -24q4 -22 6 -44 q2 -28 2 -44q0 -96 -35 -173q-35 -78 -100 -138q-62 -58 -151 -91q-88 -33 -193 -33q-124 0 -218 35t-156 91q-63 57 -93 129t-30 151zM358 875q0 37 15 68q16 34 38 56q25 25 55 38q33 14 69 14q72 0 124 -52t52 -125q0 -35 -14 -68q-13 -30 -38 -55q-22 -22 -56 -38 q-31 -15 -68 -15t-69 15t-55 38t-38 55t-15 69z" />
<glyph unicode="&#xc0;" horiz-adv-x="1503" d="M20 0l547 1452h375l541 -1452h-353l-104 295h-561l-105 -295h-340zM336 1825h371l213 -271h-277zM571 590h353l-174 502z" />
<glyph unicode="&#xc1;" horiz-adv-x="1503" d="M20 0l547 1452h375l541 -1452h-353l-104 295h-561l-105 -295h-340zM571 590h353l-174 502zM596 1554l213 271h371l-308 -271h-276z" />
<glyph unicode="&#xc2;" horiz-adv-x="1503" d="M20 0l547 1452h375l541 -1452h-353l-104 295h-561l-105 -295h-340zM348 1554l250 271h297l254 -271h-289l-119 134l-116 -134h-277zM571 590h353l-174 502z" />
<glyph unicode="&#xc3;" horiz-adv-x="1503" d="M20 0l547 1452h375l541 -1452h-353l-104 295h-561l-105 -295h-340zM383 1550v68q0 57 17 97q19 44 46 70q29 28 68 41q38 13 80 13q52 0 88 -14q45 -17 74 -35q9 -5 28 -15.5t29 -15.5q25 -14 49 -14t39 14q17 15 17 45v29h178v-70q0 -55 -18 -98q-19 -46 -47 -71 q-30 -27 -67 -42q-35 -14 -81 -14q-47 0 -87 15t-75 36l-10 6q-28 16 -52 29q-23 12 -45 12q-21 0 -36 -14q-17 -15 -17 -45v-27h-178zM571 590h353l-174 502z" />
<glyph unicode="&#xc4;" horiz-adv-x="1503" d="M20 0l547 1452h375l541 -1452h-353l-104 295h-561l-105 -295h-340zM246 1688q0 70 46 116q47 47 114 47q69 0 116 -47t47 -116q0 -68 -47 -113q-46 -45 -116 -45q-68 0 -114 45t-46 113zM571 590h353l-174 502zM928 1688q0 70 45 116q45 47 114 47q68 0 115 -47t47 -116 q0 -68 -47 -113q-46 -45 -115 -45t-114 45t-45 113z" />
<glyph unicode="&#xc5;" horiz-adv-x="1503" d="M20 0l512 1360q-34 37 -55 85q-20 46 -20 105q0 64 23 114q24 53 64 90t93 58q52 21 111 21q58 0 110 -21q53 -21 93 -58t64 -90q23 -50 23 -114q0 -55 -17 -99q-18 -47 -48 -81l510 -1370h-353l-104 295h-561l-105 -295h-340zM571 590h353l-174 497zM649 1550 q0 -46 30 -72q31 -26 71 -26q38 0 67 26t29 72q0 47 -29 74t-67 27q-41 0 -71 -27t-30 -74z" />
<glyph unicode="&#xc6;" horiz-adv-x="2203" d="M20 0l959 1452h1110v-305h-598v-277h543v-284h-543v-279h600v-307h-924v313h-561l-198 -313h-388zM776 578h391v612z" />
<glyph unicode="&#xc7;" horiz-adv-x="1581" d="M74 723q0 169 60 310q59 139 163 240q101 98 239 154t287 56q163 0 283 -47q115 -45 201 -120q79 -69 128 -159q45 -84 64 -164l-305 -96q-7 36 -32 84q-26 50 -66 89q-45 43 -110 70q-66 27 -163 27q-76 0 -147 -26q-73 -27 -133 -81q-59 -53 -97 -138q-36 -81 -36 -199 q0 -104 34 -182t94 -135q59 -56 133 -84q76 -29 156 -29q92 0 162 28q68 27 113 69q43 41 70 89q25 46 36 86l310 -88q-16 -65 -58 -150q-42 -83 -111 -154q-72 -73 -174 -128t-245 -70l-49 -75q93 -5 145 -54q53 -50 53 -127q0 -36 -14 -70q-16 -38 -46 -65 q-32 -29 -84 -47q-53 -18 -128 -18q-90 0 -158 38q-69 38 -96 74l96 121q23 -23 62 -50q40 -28 94 -28q78 0 78 54q0 19 -19 35t-53 16q-8 0 -28 -2q-15 -1 -27 -6l-76 100l65 102q-144 15 -264 74q-123 60 -214 157t-142 228q-51 130 -51 291z" />
<glyph unicode="&#xc8;" horiz-adv-x="1193" d="M158 0v1452h919v-305h-596v-277h541v-284h-541v-279h598v-307h-921zM240 1825h370l213 -271h-276z" />
<glyph unicode="&#xc9;" horiz-adv-x="1193" d="M158 0v1452h919v-305h-596v-277h541v-284h-541v-279h598v-307h-921zM418 1554l213 271h370l-307 -271h-276z" />
<glyph unicode="&#xca;" horiz-adv-x="1193" d="M158 0v1452h919v-305h-596v-277h541v-284h-541v-279h598v-307h-921zM213 1554l250 271h297l254 -271h-289l-119 134l-117 -134h-276z" />
<glyph unicode="&#xcb;" horiz-adv-x="1193" d="M158 0v1452h919v-305h-596v-277h541v-284h-541v-279h598v-307h-921zM233 1688q0 69 47 116t113 47q70 0 117 -47t47 -116q0 -68 -47 -113t-117 -45q-67 0 -113 45q-47 45 -47 113zM676 1688q0 70 46 116q47 47 114 47q69 0 116 -47t47 -116q0 -68 -47 -113 q-46 -45 -116 -45q-68 0 -114 45t-46 113z" />
<glyph unicode="&#xcc;" horiz-adv-x="641" d="M-100 1825h370l213 -271h-276zM158 0v1452h327v-1452h-327z" />
<glyph unicode="&#xcd;" horiz-adv-x="641" d="M158 0v1452h327v-1452h-327zM160 1554l213 271h370l-307 -271h-276z" />
<glyph unicode="&#xce;" horiz-adv-x="641" d="M-74 1554l250 271h297l254 -271h-289l-119 134l-116 -134h-277zM158 0v1452h327v-1452h-327z" />
<glyph unicode="&#xcf;" horiz-adv-x="641" d="M-49 1688q0 70 45 116q45 47 113 47t115 -47q46 -46 46 -116q0 -68 -46 -113q-47 -45 -115 -45t-113 45t-45 113zM158 0v1452h327v-1452h-327zM375 1688q0 70 45 116q45 47 112 47q69 0 116 -47q46 -46 46 -116q0 -68 -46 -113t-116 -45q-67 0 -112 45t-45 113z" />
<glyph unicode="&#xd0;" horiz-adv-x="1554" d="M31 635v227h192v590h527q163 0 298 -50q133 -49 230 -145q96 -94 148 -229q53 -136 53 -303t-53 -302q-53 -134 -148 -228q-98 -96 -231 -145q-136 -50 -299 -50h-525v635h-192zM547 305h188q81 0 158 25q72 23 129 76q55 51 87 131q32 81 32 188t-32 188t-87 133 t-129 76q-77 25 -158 25h-188v-285h295v-227h-295v-330z" />
<glyph unicode="&#xd1;" horiz-adv-x="1574" d="M158 0v1452h393l545 -883v883h323v-1452h-342l-598 954v-954h-321zM438 1550v68q0 55 18 97q19 44 46 70q30 28 67 41q38 13 80 13q52 0 88 -14q45 -17 74 -35q9 -5 28 -15.5t29 -15.5q25 -14 50 -14q23 0 38 14q17 15 17 45v29h178v-70q0 -57 -17 -98q-18 -44 -48 -71 t-67 -42q-35 -14 -81 -14t-87 15t-75 36l-10 6q-39 23 -51 29q-23 12 -45 12t-37 -14q-17 -15 -17 -45v-27h-178z" />
<glyph unicode="&#xd2;" d="M74 725q0 171 60 312q60 140 164 240q105 101 241 153q138 53 290 53t290 -53q137 -54 240 -153q104 -100 164 -240q60 -141 60 -312t-60 -311t-164 -239q-104 -100 -240 -152q-140 -54 -290 -54t-290 54q-137 53 -241 152t-164 239t-60 311zM385 1825h371l213 -271h-277 zM410 727q0 -118 36 -197q37 -81 98 -136t135 -80t150 -25q77 0 151 25q72 25 134 80q58 52 96 136q37 81 37 197q0 114 -37 197q-39 87 -96 137q-62 54 -134 80t-151 26q-78 0 -150 -26q-74 -27 -135 -80q-60 -53 -98 -137q-36 -81 -36 -197z" />
<glyph unicode="&#xd3;" d="M74 725q0 171 60 312q60 140 164 240q105 101 241 153q138 53 290 53t290 -53q137 -54 240 -153q104 -100 164 -240q60 -141 60 -312t-60 -311t-164 -239q-104 -100 -240 -152q-140 -54 -290 -54t-290 54q-137 53 -241 152t-164 239t-60 311zM410 727q0 -118 36 -197 q37 -81 98 -136t135 -80t150 -25q77 0 151 25q72 25 134 80q58 52 96 136q37 81 37 197q0 114 -37 197q-39 87 -96 137q-62 54 -134 80t-151 26q-78 0 -150 -26q-74 -27 -135 -80q-60 -53 -98 -137q-36 -81 -36 -197zM666 1554l213 271h370l-307 -271h-276z" />
<glyph unicode="&#xd4;" d="M74 725q0 171 60 312q60 140 164 240q105 101 241 153q138 53 290 53t290 -53q137 -54 240 -153q104 -100 164 -240q60 -141 60 -312t-60 -311t-164 -239q-104 -100 -240 -152q-140 -54 -290 -54t-290 54q-137 53 -241 152t-164 239t-60 311zM410 727q0 -118 36 -197 q37 -81 98 -136t135 -80t150 -25q77 0 151 25q72 25 134 80q58 52 96 136q37 81 37 197q0 114 -37 197q-39 87 -96 137q-62 54 -134 80t-151 26q-78 0 -150 -26q-74 -27 -135 -80q-60 -53 -98 -137q-36 -81 -36 -197zM428 1554l250 271h297l254 -271h-289l-119 134 l-116 -134h-277z" />
<glyph unicode="&#xd5;" d="M74 725q0 171 60 312q60 140 164 240q105 101 241 153q138 53 290 53t290 -53q137 -54 240 -153q104 -100 164 -240q60 -141 60 -312t-60 -311t-164 -239q-104 -100 -240 -152q-140 -54 -290 -54t-290 54q-137 53 -241 152t-164 239t-60 311zM410 727q0 -118 36 -197 q37 -81 98 -136t135 -80t150 -25q77 0 151 25q72 25 134 80q58 52 96 136q37 81 37 197q0 114 -37 197q-39 87 -96 137q-62 54 -134 80t-151 26q-78 0 -150 -26q-74 -27 -135 -80q-60 -53 -98 -137q-36 -81 -36 -197zM461 1550v68q0 57 17 97q19 44 46 70q29 28 68 41 q38 13 80 13q52 0 88 -14q45 -17 74 -35q9 -5 28 -15.5t29 -15.5q25 -14 49 -14t39 14q16 15 16 45v29h179v-70q0 -55 -18 -98q-19 -46 -47 -71q-30 -27 -68 -42q-35 -14 -80 -14q-47 0 -88 15q-38 14 -74 36l-11 6q-39 23 -51 29q-23 12 -45 12t-37 -14q-16 -15 -16 -45 v-27h-178z" />
<glyph unicode="&#xd6;" d="M74 725q0 171 60 312q60 140 164 240q105 101 241 153q138 53 290 53t290 -53q137 -54 240 -153q104 -100 164 -240q60 -141 60 -312t-60 -311t-164 -239q-104 -100 -240 -152q-140 -54 -290 -54t-290 54q-137 53 -241 152t-164 239t-60 311zM307 1688q0 70 45 116 q45 47 115 47q68 0 115 -47t47 -116q0 -68 -47 -113q-46 -45 -115 -45q-70 0 -115 45t-45 113zM410 727q0 -118 36 -197q37 -81 98 -136t135 -80t150 -25q77 0 151 25q72 25 134 80q58 52 96 136q37 81 37 197q0 114 -37 197q-39 87 -96 137q-62 54 -134 80t-151 26 q-78 0 -150 -26q-74 -27 -135 -80q-60 -53 -98 -137q-36 -81 -36 -197zM1030 1688q0 70 45 116q45 47 115 47t117 -47t47 -116q0 -68 -47 -113q-46 -45 -117 -45q-70 0 -115 45t-45 113z" />
<glyph unicode="&#xd7;" horiz-adv-x="1187" d="M74 276l334 336l-334 338l184 185l336 -338l336 338l184 -185l-336 -338l336 -336l-184 -188l-336 338l-336 -338z" />
<glyph unicode="&#xd8;" d="M74 725q0 171 60 312q60 140 164 240q105 101 241 153q138 53 290 53q97 0 189 -23q91 -23 170 -63l143 184l197 -151l-142 -183q94 -102 145 -230q52 -131 52 -292q0 -171 -60 -311t-164 -239q-104 -100 -240 -152q-140 -54 -290 -54q-96 0 -190 23q-91 22 -174 63 l-141 -182l-201 150l143 184q-91 100 -141 228q-51 131 -51 290zM410 727q0 -81 17 -139q18 -62 48 -111l512 660q-78 30 -158 30q-78 0 -150 -26q-74 -27 -135 -80q-60 -53 -98 -137q-36 -81 -36 -197zM668 317q37 -16 80 -22q40 -6 81 -6q77 0 151 25q72 25 134 80 q58 52 96 136q37 81 37 197q0 153 -67 254z" />
<glyph unicode="&#xd9;" horiz-adv-x="1441" d="M145 524v928h324v-901q0 -133 68 -199q66 -65 184 -65t184 65q68 66 68 199v901h323v-928q0 -136 -45 -240t-123 -174q-79 -71 -183 -107q-105 -36 -224 -36q-120 0 -225 36q-104 36 -183 107q-78 70 -123 174t-45 240zM307 1825h371l213 -271h-277z" />
<glyph unicode="&#xda;" horiz-adv-x="1441" d="M145 524v928h324v-901q0 -133 68 -199q66 -65 184 -65t184 65q68 66 68 199v901h323v-928q0 -136 -45 -240t-123 -174q-79 -71 -183 -107q-105 -36 -224 -36q-120 0 -225 36q-104 36 -183 107q-78 70 -123 174t-45 240zM532 1554l213 271h371l-307 -271h-277z" />
<glyph unicode="&#xdb;" horiz-adv-x="1441" d="M145 524v928h324v-901q0 -133 68 -199q66 -65 184 -65t184 65q68 66 68 199v901h323v-928q0 -136 -45 -240t-123 -174q-79 -71 -183 -107q-105 -36 -224 -36q-120 0 -225 36q-104 36 -183 107q-78 70 -123 174t-45 240zM322 1554l249 271h297l254 -271h-288l-119 134 l-117 -134h-276z" />
<glyph unicode="&#xdc;" horiz-adv-x="1441" d="M145 524v928h324v-901q0 -133 68 -199q66 -65 184 -65t184 65q68 66 68 199v901h323v-928q0 -136 -45 -240t-123 -174q-79 -71 -183 -107q-105 -36 -224 -36q-120 0 -225 36q-104 36 -183 107q-78 70 -123 174t-45 240zM311 1688q0 70 45 116q45 47 115 47t117 -47 t47 -116q0 -68 -47 -113q-46 -45 -117 -45q-70 0 -115 45t-45 113zM813 1688q0 70 45 116q45 47 113 47q69 0 116 -47q48 -48 48 -116q0 -67 -48 -113q-47 -45 -116 -45q-68 0 -113 45t-45 113z" />
<glyph unicode="&#xdd;" horiz-adv-x="1378" d="M20 1452h379l297 -539l301 539h361l-510 -846v-606h-324v606zM522 1554l213 271h371l-307 -271h-277z" />
<glyph unicode="&#xde;" horiz-adv-x="1249" d="M158 0v1452h323v-256h215q108 0 199 -36q95 -37 160 -98q68 -63 105 -148q38 -87 38 -183q0 -98 -38 -185q-37 -85 -105 -148q-66 -62 -160 -97q-93 -35 -199 -35h-215v-266h-323zM483 541h189q92 0 147 51t55 137q0 88 -55 139q-57 52 -147 52h-189v-379z" />
<glyph unicode="&#xdf;" horiz-adv-x="1251" d="M137 0v989q0 129 42 223q41 93 113 154q70 59 162 88q93 29 189 29q110 0 203 -31q87 -29 153 -84q64 -53 97 -124q32 -68 32 -150q0 -64 -14 -107q-15 -47 -39 -84q-23 -35 -57 -65q-38 -33 -70 -52l-33 -20q-19 -14 -34 -29q-13 -13 -13 -35q1 -22 17 -34 q18 -14 47 -25l57 -22q110 -43 175 -126t65 -196q0 -51 -22 -111q-21 -57 -67 -106q-47 -50 -118 -81q-73 -32 -174 -32q-94 0 -160 30q-63 29 -107 74q-42 43 -63 96q-20 50 -20 97l243 41q1 -33 26 -70q24 -36 83 -36q42 0 65 23q25 25 25 57q0 33 -21 55q-19 21 -75 43 l-53 20q-46 17 -82 37q-42 23 -74 57q-34 36 -54 78q-22 47 -22 105q0 55 14 93q16 42 35 70q19 27 45 50q18 15 47 35l31 20q45 28 68 61q22 31 22 72q0 46 -41 89q-41 42 -137 42q-39 0 -75 -12q-34 -12 -64 -41q-28 -28 -46 -75q-18 -46 -18 -113v-967h-303z" />
<glyph unicode="&#xe0;" horiz-adv-x="1118" d="M76 281q0 70 23 120q25 55 65 92q39 36 95 61q52 23 118 34l239 37q42 6 58 24q16 17 16 45q0 45 -38 78t-111 33q-83 0 -126 -46t-48 -104l-271 56q4 54 33 114q28 58 83 109q53 49 136 82q82 33 195 33q122 0 209 -32q86 -31 140 -86q54 -54 78 -126q23 -69 23 -150 v-497q0 -55 5 -105q3 -26 8 -53h-281q-1 4 -6 34q-4 24 -4 81q-40 -66 -113 -105q-72 -39 -174 -39q-82 0 -149 26q-66 25 -111 69q-46 44 -69 98q-23 53 -23 117zM166 1448h354l191 -309h-254zM383 301q0 -40 28 -73q27 -31 93 -31q34 0 68 9t60 33q26 25 42 62 q16 38 16 98v45l-192 -30q-47 -7 -82 -34q-33 -26 -33 -79z" />
<glyph unicode="&#xe1;" horiz-adv-x="1118" d="M76 281q0 70 23 120q25 55 65 92q39 36 95 61q52 23 118 34l239 37q42 6 58 24q16 17 16 45q0 45 -38 78t-111 33q-83 0 -126 -46t-48 -104l-271 56q4 54 33 114q28 58 83 109q53 49 136 82q82 33 195 33q122 0 209 -32q86 -31 140 -86q54 -54 78 -126q23 -69 23 -150 v-497q0 -55 5 -105q3 -26 8 -53h-281q-1 4 -6 34q-4 24 -4 81q-40 -66 -113 -105q-72 -39 -174 -39q-82 0 -149 26q-66 25 -111 69q-46 44 -69 98q-23 53 -23 117zM383 301q0 -40 28 -73q27 -31 93 -31q34 0 68 9t60 33q26 25 42 62q16 38 16 98v45l-192 -30q-47 -7 -82 -34 q-33 -26 -33 -79zM389 1139l189 309h348l-289 -309h-248z" />
<glyph unicode="&#xe2;" horiz-adv-x="1118" d="M76 281q0 70 23 120q25 55 65 92q39 36 95 61q52 23 118 34l239 37q42 6 58 24q16 17 16 45q0 45 -38 78t-111 33q-83 0 -126 -46t-48 -104l-271 56q4 54 33 114q28 58 83 109q53 49 136 82q82 33 195 33q122 0 209 -32q86 -31 140 -86q54 -54 78 -126q23 -69 23 -150 v-497q0 -55 5 -105q3 -26 8 -53h-281q-1 4 -6 34q-4 24 -4 81q-40 -66 -113 -105q-72 -39 -174 -39q-82 0 -149 26q-66 25 -111 69q-46 44 -69 98q-23 53 -23 117zM166 1139l231 309h293l234 -309h-238l-145 145l-144 -145h-231zM383 301q0 -40 28 -73q27 -31 93 -31 q34 0 68 9t60 33q26 25 42 62q16 38 16 98v45l-192 -30q-47 -7 -82 -34q-33 -26 -33 -79z" />
<glyph unicode="&#xe3;" horiz-adv-x="1118" d="M76 281q0 70 23 120q25 55 65 92q39 36 95 61q52 23 118 34l239 37q42 6 58 24q16 17 16 45q0 45 -38 78t-111 33q-83 0 -126 -46t-48 -104l-271 56q4 54 33 114q28 58 83 109q53 49 136 82q82 33 195 33q122 0 209 -32q86 -31 140 -86q54 -54 78 -126q23 -69 23 -150 v-497q0 -55 5 -105q3 -26 8 -53h-281q-1 4 -6 34q-4 24 -4 81q-40 -66 -113 -105q-72 -39 -174 -39q-82 0 -149 26q-66 25 -111 69q-46 44 -69 98q-23 53 -23 117zM184 1141v47q0 130 68 195t164 65q49 0 84 -14q33 -13 71 -33q30 -18 58 -32q26 -13 55 -13q68 0 72 90h174 v-41q0 -134 -65 -201q-64 -65 -165 -65q-49 0 -84 14q-33 13 -71 33q-12 6 -33.5 16.5t-25.5 12.5q-28 14 -56 14q-31 0 -49 -21q-20 -23 -21 -67h-176zM383 301q0 -40 28 -73q27 -31 93 -31q34 0 68 9t60 33q26 25 42 62q16 38 16 98v45l-192 -30q-47 -7 -82 -34 q-33 -26 -33 -79z" />
<glyph unicode="&#xe4;" horiz-adv-x="1118" d="M76 281q0 70 23 120q25 55 65 92q39 36 95 61q52 23 118 34l239 37q42 6 58 24q16 17 16 45q0 45 -38 78t-111 33q-83 0 -126 -46t-48 -104l-271 56q4 54 33 114q28 58 83 109q53 49 136 82q82 33 195 33q122 0 209 -32q86 -31 140 -86q54 -54 78 -126q23 -69 23 -150 v-497q0 -55 5 -105q3 -26 8 -53h-281q-1 4 -6 34q-4 24 -4 81q-40 -66 -113 -105q-72 -39 -174 -39q-82 0 -149 26q-66 25 -111 69q-46 44 -69 98q-23 53 -23 117zM166 1294q0 66 45 112t111 46q65 0 111 -46t46 -112q0 -65 -46 -110q-47 -45 -111 -45q-66 0 -111 45 t-45 110zM383 301q0 -40 28 -73q27 -31 93 -31q34 0 68 9t60 33q26 25 42 62q16 38 16 98v45l-192 -30q-47 -7 -82 -34q-33 -26 -33 -79zM618 1294q0 64 46 112q45 46 110 46q66 0 112 -46t46 -112q0 -65 -46 -110t-112 -45q-65 0 -110 45q-46 46 -46 110z" />
<glyph unicode="&#xe5;" horiz-adv-x="1118" d="M76 281q0 70 23 120q25 55 65 92q39 36 95 61q52 23 118 34l239 37q42 6 58 24q16 17 16 45q0 45 -38 78t-111 33q-83 0 -126 -46t-48 -104l-271 56q4 54 33 114q28 58 83 109q53 49 136 82q82 33 195 33q122 0 209 -32q86 -31 140 -86q54 -54 78 -126q23 -69 23 -150 v-497q0 -55 5 -105q3 -26 8 -53h-281q-1 4 -6 34q-4 24 -4 81q-40 -66 -113 -105q-72 -39 -174 -39q-82 0 -149 26q-66 25 -111 69q-46 44 -69 98q-23 53 -23 117zM297 1352q0 52 19 93q20 43 53 73q34 31 75 48t91 17q49 0 90 -17t75 -48q33 -30 53 -73q19 -41 19 -93 q0 -53 -19 -94q-18 -39 -53 -71q-33 -30 -75 -46q-45 -17 -90 -17q-46 0 -91 17q-42 16 -75 46q-35 32 -53 71q-19 41 -19 94zM383 301q0 -40 28 -73q27 -31 93 -31q34 0 68 9t60 33q26 25 42 62q16 38 16 98v45l-192 -30q-47 -7 -82 -34q-33 -26 -33 -79zM459 1352 q0 -36 21 -57t55 -21q33 0 54 21t21 57q0 35 -21 56q-22 22 -54 22q-33 0 -55 -22q-21 -21 -21 -56z" />
<glyph unicode="&#xe6;" horiz-adv-x="1781" d="M76 281q0 70 23 120q25 55 65 92q39 36 95 61q52 23 118 34l246 37q42 6 59 24q16 17 16 45q0 45 -38 78t-113 33q-86 0 -131 -46t-51 -104l-269 56q4 55 34 114q30 60 85 109q54 49 138 82q83 33 196 33q122 0 206 -32q81 -31 132 -85q69 57 149 86q85 31 172 31 q235 0 368 -138q132 -137 132 -385q0 -22 -2 -62q-1 -26 -4 -34h-715q1 -46 23 -83q20 -35 52 -62q30 -26 73 -40q42 -14 86 -14q86 0 137 39t74 101l258 -78q-17 -61 -60 -125q-40 -60 -100 -103q-64 -46 -138 -70q-81 -26 -175 -26q-113 0 -210 42t-169 120 q-55 -65 -148 -114q-91 -48 -221 -48q-97 0 -172 26t-123 68q-51 44 -74 100q-24 57 -24 118zM381 299q0 -36 31 -70q29 -32 96 -32q32 0 67 9t62 33q26 23 44 62q17 37 17 98v45l-200 -30q-47 -7 -83 -35q-34 -27 -34 -80zM993 631h414q-2 31 -13 59q-13 32 -36 55 q-24 24 -64 41t-96 17q-48 0 -87 -17q-37 -16 -63 -41q-25 -23 -39 -55q-15 -32 -16 -59z" />
<glyph unicode="&#xe7;" horiz-adv-x="1148" d="M63 508q0 119 42 218q41 97 115 171q71 71 170 112q96 40 210 40q104 0 188 -30q86 -31 146 -79q61 -49 100 -114q40 -66 56 -132l-279 -84q-7 28 -25 57q-17 28 -41 49q-26 22 -59 34q-35 12 -80 12q-48 0 -91 -17q-44 -17 -74 -49q-32 -34 -50 -80t-18 -108 q0 -63 19 -108q18 -44 51 -78q32 -34 75 -50q42 -16 92 -16q90 0 143 47q51 45 68 105l275 -84q-16 -58 -48 -116t-81 -104q-48 -45 -115 -80q-68 -35 -145 -47l-52 -77q94 -5 146 -54q53 -50 53 -127q0 -36 -14 -70q-16 -38 -46 -65q-32 -29 -84 -47t-128 -18 q-90 0 -158 38q-69 38 -96 74l96 121q25 -25 61 -50q40 -28 95 -28q77 0 77 54q0 20 -18 35q-19 16 -53 16q-8 0 -28 -2q-16 -2 -28 -6l-75 100l67 104q-98 15 -182 60q-81 44 -145 115t-97 160q-35 93 -35 198z" />
<glyph unicode="&#xe8;" horiz-adv-x="1144" d="M63 512q0 123 42 222q42 100 113 169q72 71 163 108q93 38 190 38q236 0 374 -138q136 -136 136 -385q0 -22 -2 -62q-1 -26 -4 -34h-708q1 -43 21 -79q18 -34 51 -62q29 -25 73 -41q40 -15 86 -15q87 0 134 37q49 38 71 97l260 -74q-18 -64 -57 -125q-38 -59 -99 -103 q-64 -46 -138 -70q-81 -26 -175 -26q-106 0 -201 37q-96 37 -170 107q-71 67 -116 170q-44 102 -44 229zM190 1448h355l190 -309h-254zM373 631h407q-1 26 -13 59q-13 32 -36 55q-25 25 -62 41q-39 17 -94 17q-47 0 -86 -17q-35 -15 -62 -41q-25 -23 -39 -55 q-13 -30 -15 -59z" />
<glyph unicode="&#xe9;" horiz-adv-x="1144" d="M63 512q0 123 42 222q42 100 113 169q72 71 163 108q93 38 190 38q236 0 374 -138q136 -136 136 -385q0 -22 -2 -62q-1 -26 -4 -34h-708q1 -43 21 -79q18 -34 51 -62q29 -25 73 -41q40 -15 86 -15q87 0 134 37q49 38 71 97l260 -74q-18 -64 -57 -125q-38 -59 -99 -103 q-64 -46 -138 -70q-81 -26 -175 -26q-106 0 -201 37q-96 37 -170 107q-71 67 -116 170q-44 102 -44 229zM373 631h407q-1 26 -13 59q-13 32 -36 55q-25 25 -62 41q-39 17 -94 17q-47 0 -86 -17q-35 -15 -62 -41q-25 -23 -39 -55q-13 -30 -15 -59zM426 1139l188 309h349 l-289 -309h-248z" />
<glyph unicode="&#xea;" horiz-adv-x="1144" d="M63 512q0 123 42 222q42 100 113 169q72 71 163 108q93 38 190 38q236 0 374 -138q136 -136 136 -385q0 -22 -2 -62q-1 -26 -4 -34h-708q1 -43 21 -79q18 -34 51 -62q29 -25 73 -41q40 -15 86 -15q87 0 134 37q49 38 71 97l260 -74q-18 -64 -57 -125q-38 -59 -99 -103 q-64 -46 -138 -70q-81 -26 -175 -26q-106 0 -201 37q-96 37 -170 107q-71 67 -116 170q-44 102 -44 229zM201 1139l231 309h293l233 -309h-237l-146 145l-143 -145h-231zM373 631h407q-1 26 -13 59q-13 32 -36 55q-25 25 -62 41q-39 17 -94 17q-47 0 -86 -17 q-35 -15 -62 -41q-25 -23 -39 -55q-13 -30 -15 -59z" />
<glyph unicode="&#xeb;" horiz-adv-x="1144" d="M63 512q0 123 42 222q42 100 113 169q72 71 163 108q93 38 190 38q236 0 374 -138q136 -136 136 -385q0 -22 -2 -62q-1 -26 -4 -34h-708q1 -43 21 -79q18 -34 51 -62q29 -25 73 -41q40 -15 86 -15q87 0 134 37q49 38 71 97l260 -74q-18 -64 -57 -125q-38 -59 -99 -103 q-64 -46 -138 -70q-81 -26 -175 -26q-106 0 -201 37q-96 37 -170 107q-71 67 -116 170q-44 102 -44 229zM199 1294q0 66 45 112t110 46q66 0 112 -46t46 -112q0 -65 -46 -110t-112 -45q-65 0 -110 45t-45 110zM373 631h407q-1 26 -13 59q-13 32 -36 55q-25 25 -62 41 q-39 17 -94 17q-47 0 -86 -17q-35 -15 -62 -41q-25 -23 -39 -55q-13 -30 -15 -59zM651 1294q0 66 45 112t111 46t112 -46t46 -112q0 -65 -46 -110q-47 -45 -112 -45q-66 0 -111 45t-45 110z" />
<glyph unicode="&#xec;" horiz-adv-x="583" d="M-106 1448h354l190 -309h-254zM137 0v1018h312v-1018h-312z" />
<glyph unicode="&#xed;" horiz-adv-x="583" d="M137 0v1018h312v-1018h-312zM141 1139l189 309h348l-289 -309h-248z" />
<glyph unicode="&#xee;" horiz-adv-x="583" d="M-84 1139l231 309h293l234 -309h-238l-145 145l-144 -145h-231zM137 0v1018h312v-1018h-312z" />
<glyph unicode="&#xef;" horiz-adv-x="583" d="M-68 1294q0 66 45 111t111 45t111 -45t45 -111q0 -65 -45 -110t-111 -45t-111 45t-45 110zM137 0v1018h312v-1018h-312zM340 1294q0 65 44 111q44 45 110 45q64 0 111 -45q46 -45 46 -111q0 -65 -46 -110q-47 -45 -111 -45q-66 0 -110 45q-44 46 -44 110z" />
<glyph unicode="&#xf0;" horiz-adv-x="1202" d="M63 473q0 115 45 207q43 88 115 146q71 58 162 88q90 30 182 30q33 0 61 -4q34 -5 61 -13q25 -8 54 -22q25 -12 39 -28q-18 62 -51 115q-33 52 -74 98l-284 -109l-70 180l170 68q-60 33 -113 52q-63 23 -110 38l94 229q118 -29 234 -82q109 -50 198 -118l238 92l71 -185 l-153 -59q97 -116 152 -272t55 -340q0 -121 -33 -232q-32 -109 -99 -195t-168 -137q-102 -51 -239 -51q-111 0 -211 38q-96 36 -170 106q-72 67 -114 159q-42 91 -42 201zM373 477q0 -54 19 -96q20 -43 51 -72q32 -29 73 -44q40 -15 84 -15q48 0 86 14q43 16 73 43 q31 28 51 71q19 41 19 97q0 58 -19 100q-20 43 -51 72q-30 27 -73 43q-41 15 -86 15q-44 0 -84 -15q-44 -16 -73 -44q-31 -30 -51 -72q-19 -41 -19 -97z" />
<glyph unicode="&#xf1;" horiz-adv-x="1218" d="M137 0v1018h301v-117q20 37 54 64q31 25 70 44q33 16 80 26q42 9 81 9q98 0 166 -31q70 -32 116 -87t67 -129q22 -77 22 -158v-639h-312v586q0 77 -40 126q-41 50 -126 50q-77 0 -122 -50t-45 -128v-584h-312zM250 1141v47q0 131 67 195q68 65 164 65q49 0 84 -14 q37 -15 72 -33q35 -21 57 -32q26 -13 56 -13q66 0 71 90h174v-41q0 -136 -64 -201t-165 -65q-49 0 -84 14q-38 15 -72 33l-58 29q-28 14 -56 14q-32 0 -50 -21q-19 -22 -20 -67h-176z" />
<glyph unicode="&#xf2;" horiz-adv-x="1208" d="M63 510q0 118 42 217q41 96 115 170q71 71 171 112q98 40 213 40t213 -40q100 -41 171 -112q74 -74 115 -170q42 -99 42 -217q0 -119 -42 -218q-41 -97 -115 -171q-71 -71 -171 -112q-98 -40 -213 -40t-213 40q-100 41 -171 112q-74 74 -115 171q-42 99 -42 218z M203 1448h354l191 -309h-254zM375 510q0 -65 19 -112q20 -49 51 -80q32 -32 74 -47t85 -15q46 0 86 15q41 15 73 47q31 31 51 79t20 113q0 63 -20 112q-20 48 -51 78q-33 31 -73 46q-43 16 -86 16q-40 0 -85 -16q-41 -15 -74 -46q-31 -30 -51 -78q-19 -47 -19 -112z" />
<glyph unicode="&#xf3;" horiz-adv-x="1208" d="M63 510q0 118 42 217q41 96 115 170q71 71 171 112q98 40 213 40t213 -40q100 -41 171 -112q74 -74 115 -170q42 -99 42 -217q0 -119 -42 -218q-41 -97 -115 -171q-71 -71 -171 -112q-98 -40 -213 -40t-213 40q-100 41 -171 112q-74 74 -115 171q-42 99 -42 218zM375 510 q0 -65 19 -112q20 -49 51 -80q32 -32 74 -47t85 -15q46 0 86 15q41 15 73 47q31 31 51 79t20 113q0 63 -20 112q-20 48 -51 78q-33 31 -73 46q-43 16 -86 16q-40 0 -85 -16q-41 -15 -74 -46q-31 -30 -51 -78q-19 -47 -19 -112zM455 1139l188 309h348l-289 -309h-247z" />
<glyph unicode="&#xf4;" horiz-adv-x="1208" d="M63 510q0 118 42 217q41 96 115 170q71 71 171 112q98 40 213 40t213 -40q100 -41 171 -112q74 -74 115 -170q42 -99 42 -217q0 -119 -42 -218q-41 -97 -115 -171q-71 -71 -171 -112q-98 -40 -213 -40t-213 40q-100 41 -171 112q-74 74 -115 171q-42 99 -42 218z M229 1139l232 309h293l233 -309h-237l-146 145l-143 -145h-232zM375 510q0 -65 19 -112q20 -49 51 -80q32 -32 74 -47t85 -15q46 0 86 15q41 15 73 47q31 31 51 79t20 113q0 63 -20 112q-20 48 -51 78q-33 31 -73 46q-43 16 -86 16q-40 0 -85 -16q-41 -15 -74 -46 q-31 -30 -51 -78q-19 -47 -19 -112z" />
<glyph unicode="&#xf5;" horiz-adv-x="1208" d="M63 510q0 118 42 217q41 96 115 170q71 71 171 112q98 40 213 40t213 -40q100 -41 171 -112q74 -74 115 -170q42 -99 42 -217q0 -119 -42 -218q-41 -97 -115 -171q-71 -71 -171 -112q-98 -40 -213 -40t-213 40q-100 41 -171 112q-74 74 -115 171q-42 99 -42 218z M236 1141v47q0 131 67 195q68 65 164 65q49 0 84 -14q37 -15 72 -33q35 -21 57 -32q26 -13 55 -13q67 0 72 90h174v-41q0 -134 -65 -201q-64 -65 -164 -65q-49 0 -84 14q-38 15 -72 33q-9 5 -19 10t-21.5 10.5t-17.5 8.5q-28 14 -57 14q-31 0 -49 -21q-19 -22 -20 -67h-176z M375 510q0 -65 19 -112q20 -49 51 -80q32 -32 74 -47t85 -15q46 0 86 15q41 15 73 47q31 31 51 79t20 113q0 63 -20 112q-20 48 -51 78q-33 31 -73 46q-43 16 -86 16q-40 0 -85 -16q-41 -15 -74 -46q-31 -30 -51 -78q-19 -47 -19 -112z" />
<glyph unicode="&#xf6;" horiz-adv-x="1208" d="M63 510q0 118 42 217q41 96 115 170q71 71 171 112q98 40 213 40t213 -40q100 -41 171 -112q74 -74 115 -170q42 -99 42 -217q0 -119 -42 -218q-41 -97 -115 -171q-71 -71 -171 -112q-98 -40 -213 -40t-213 40q-100 41 -171 112q-74 74 -115 171q-42 99 -42 218z M221 1294q0 66 45 112t111 46q65 0 111 -46q47 -47 47 -112t-47 -110q-46 -45 -111 -45q-66 0 -111 45t-45 110zM375 510q0 -65 19 -112q20 -49 51 -80q32 -32 74 -47t85 -15q46 0 86 15q41 15 73 47q31 31 51 79t20 113q0 63 -20 112q-20 48 -51 78q-33 31 -73 46 q-43 16 -86 16q-40 0 -85 -16q-41 -15 -74 -46q-31 -30 -51 -78q-19 -47 -19 -112zM674 1294q0 66 45 112t110 46q66 0 112 -46t46 -112q0 -65 -46 -110q-47 -45 -112 -45t-110 45t-45 110z" />
<glyph unicode="&#xf7;" horiz-adv-x="1222" d="M94 483v256h1034v-256h-1034zM430 231q0 37 13 67q13 32 37 55q23 23 56 37q30 13 68 13q72 0 122 -50t50 -122q0 -70 -50 -122t-122 -52q-37 0 -68 15q-34 16 -56 38q-24 24 -37 55q-13 30 -13 66zM430 993q0 37 13 67q13 32 37 55q23 23 56 37q30 13 68 13 q72 0 122 -50t50 -122q0 -71 -50 -123q-50 -51 -122 -51q-37 0 -68 15q-36 17 -56 37q-23 23 -37 56q-13 30 -13 66z" />
<glyph unicode="&#xf8;" horiz-adv-x="1208" d="M63 510q0 118 42 217q41 96 115 170q71 71 171 112q98 40 213 40q152 0 277 -70l110 133l139 -117l-108 -131q59 -68 91 -159t32 -195q0 -119 -42 -218q-41 -97 -115 -171q-71 -71 -171 -112q-98 -40 -213 -40q-74 0 -140 18t-126 48l-105 -127l-141 117l103 122 q-64 74 -97 163q-35 93 -35 200zM375 510q0 -32 5 -64q5 -29 15 -53l293 352q-45 17 -84 17q-40 0 -85 -16q-41 -15 -74 -46q-31 -30 -51 -78q-19 -47 -19 -112zM530 268q33 -12 74 -12q46 0 86 15q41 15 73 47q31 31 51 79t20 113q0 53 -17 104z" />
<glyph unicode="&#xf9;" horiz-adv-x="1220" d="M127 375v643h311v-578q0 -75 40 -125q40 -51 124 -51q78 0 124 48q46 47 46 126v580h311v-836q0 -76 4 -120q2 -22 7 -62h-299q-6 19 -7 48q-2 46 -2 54q-40 -65 -117 -95q-76 -30 -155 -30q-92 0 -165 32q-72 32 -122 86q-48 52 -74 126q-26 73 -26 154zM240 1448h354 l190 -309h-254z" />
<glyph unicode="&#xfa;" horiz-adv-x="1220" d="M127 375v643h311v-578q0 -75 40 -125q40 -51 124 -51q78 0 124 48q46 47 46 126v580h311v-836q0 -76 4 -120q2 -22 7 -62h-299q-6 19 -7 48q-2 46 -2 54q-40 -65 -117 -95q-76 -30 -155 -30q-92 0 -165 32q-72 32 -122 86q-48 52 -74 126q-26 73 -26 154zM420 1139 l188 309h348l-288 -309h-248z" />
<glyph unicode="&#xfb;" horiz-adv-x="1220" d="M127 375v643h311v-578q0 -75 40 -125q40 -51 124 -51q78 0 124 48q46 47 46 126v580h311v-836q0 -76 4 -120q2 -22 7 -62h-299q-6 19 -7 48q-2 46 -2 54q-40 -65 -117 -95q-76 -30 -155 -30q-92 0 -165 32q-72 32 -122 86q-48 52 -74 126q-26 73 -26 154zM231 1139 l232 309h293l233 -309h-237l-146 145l-143 -145h-232z" />
<glyph unicode="&#xfc;" horiz-adv-x="1220" d="M127 375v643h311v-578q0 -75 40 -125q40 -51 124 -51q78 0 124 48q46 47 46 126v580h311v-836q0 -76 4 -120q2 -22 7 -62h-299q-6 19 -7 48q-2 46 -2 54q-40 -65 -117 -95q-76 -30 -155 -30q-92 0 -165 32q-72 32 -122 86q-48 52 -74 126q-26 73 -26 154zM231 1294 q0 66 45 112t111 46t112 -46t46 -112q0 -65 -46 -110t-112 -45t-111 45t-45 110zM684 1294q0 66 45 112t111 46q65 0 111 -46t46 -112q0 -65 -46 -110q-47 -45 -111 -45q-66 0 -111 45t-45 110z" />
<glyph unicode="&#xfd;" horiz-adv-x="1183" d="M12 1018h348l248 -545l226 545h329l-626 -1409h-328l231 528zM424 1139l188 309h349l-289 -309h-248z" />
<glyph unicode="&#xfe;" horiz-adv-x="1273" d="M137 -389v1872h312v-557q36 49 110 82q75 34 178 34q112 0 199 -40q89 -41 148 -110q62 -72 94 -168q32 -95 32 -212q0 -119 -35 -215q-35 -97 -101 -169q-64 -70 -153 -111q-87 -40 -196 -40q-98 0 -170 30t-106 73v-469h-312zM444 510q0 -62 19 -111q18 -46 50 -78 q33 -33 74 -49t87 -16q45 0 87 15q41 15 75 47q33 31 51 80q18 48 18 112t-18 111t-51 78q-34 32 -75 47q-45 16 -87 16t-87 -16q-42 -15 -74 -47t-50 -78q-19 -49 -19 -111z" />
<glyph unicode="&#xff;" horiz-adv-x="1183" d="M12 1018h348l248 -545l226 545h329l-626 -1409h-328l231 528zM215 1294q0 66 45 112t111 46q65 0 111 -46t46 -112q0 -65 -46 -110t-111 -45q-66 0 -111 45t-45 110zM668 1294q0 66 45 112t110 46q66 0 112 -46t46 -112q0 -65 -46 -110q-47 -45 -112 -45t-110 45t-45 110 z" />
<glyph unicode="&#x152;" horiz-adv-x="2285" d="M74 725q0 171 60 312q60 140 164 240q105 101 241 153q138 53 290 53q138 0 242 -40q103 -40 176 -114v123h922v-305h-596v-277h541v-284h-541v-279h598v-307h-924v123q-76 -76 -178 -115t-240 -39q-150 0 -290 54q-137 53 -241 152t-164 239t-60 311zM410 727 q0 -118 36 -197q37 -81 98 -136t135 -80t150 -25q77 0 151 25q72 25 134 80q58 52 96 136q37 81 37 197q0 114 -37 197q-39 87 -96 137q-62 54 -134 80t-151 26q-78 0 -150 -26q-74 -27 -135 -80q-60 -53 -98 -137q-36 -81 -36 -197z" />
<glyph unicode="&#x153;" horiz-adv-x="1918" d="M63 510q0 118 42 217q41 96 115 170q71 71 171 112q98 40 213 40q114 0 213 -39q97 -38 170 -111q72 72 164 111q91 39 195 39q235 0 373 -138q136 -136 136 -385q0 -22 -2 -62q-1 -26 -4 -34h-708q1 -43 21 -79q18 -34 51 -62q29 -25 73 -41q40 -15 86 -15q87 0 134 37 q49 38 71 97l260 -74q-18 -64 -57 -125q-38 -59 -99 -103q-64 -46 -138 -70q-81 -26 -175 -26q-110 0 -209 39q-97 38 -172 113q-72 -72 -170 -112t-213 -40t-213 40q-100 41 -171 112q-74 74 -115 171q-42 99 -42 218zM375 510q0 -65 19 -112q20 -49 51 -80q32 -32 74 -47 t85 -15q46 0 86 15q41 15 73 47q31 31 51 79t20 113q0 63 -20 112q-20 48 -51 78q-33 31 -73 46q-43 16 -86 16q-40 0 -85 -16q-41 -15 -74 -46q-31 -30 -51 -78q-19 -47 -19 -112zM1147 631h407q-2 31 -13 59q-13 32 -36 55q-25 25 -62 41q-39 17 -93 17q-47 0 -86 -17 q-37 -16 -63 -41q-25 -23 -39 -55q-13 -30 -15 -59z" />
<glyph unicode="&#x178;" horiz-adv-x="1378" d="M20 1452h379l297 -539l301 539h361l-510 -846v-606h-324v606zM285 1688q0 70 45 116q45 47 114 47q70 0 117 -47t47 -116q0 -68 -47 -113q-46 -45 -117 -45q-69 0 -114 45t-45 113zM786 1688q0 70 45 116q45 47 113 47q70 0 117 -47t47 -116q0 -68 -47 -113t-117 -45 q-68 0 -113 45t-45 113z" />
<glyph unicode="&#x2c6;" horiz-adv-x="847" d="M45 1139l231 309h293l234 -309h-238l-145 145l-144 -145h-231z" />
<glyph unicode="&#x2dc;" horiz-adv-x="815" d="M35 1141v47q0 131 67 195q68 65 164 65q49 0 84 -14q38 -15 72 -33q35 -21 57 -32q26 -13 56 -13q67 0 71 90h174v-41q0 -136 -64 -201t-165 -65q-49 0 -84 14q-37 15 -72 33q-9 5 -19 10t-21.5 10.5t-17.5 8.5q-28 14 -56 14q-32 0 -50 -21q-19 -22 -20 -67h-176z" />
<glyph unicode="&#x2000;" horiz-adv-x="925" />
<glyph unicode="&#x2001;" horiz-adv-x="1851" />
<glyph unicode="&#x2002;" horiz-adv-x="925" />
<glyph unicode="&#x2003;" horiz-adv-x="1851" />
<glyph unicode="&#x2004;" horiz-adv-x="617" />
<glyph unicode="&#x2005;" horiz-adv-x="462" />
<glyph unicode="&#x2006;" horiz-adv-x="308" />
<glyph unicode="&#x2007;" horiz-adv-x="308" />
<glyph unicode="&#x2008;" horiz-adv-x="231" />
<glyph unicode="&#x2009;" horiz-adv-x="370" />
<glyph unicode="&#x200a;" horiz-adv-x="102" />
<glyph unicode="&#x2010;" horiz-adv-x="798" d="M92 477v281h615v-281h-615z" />
<glyph unicode="&#x2011;" horiz-adv-x="798" d="M92 477v281h615v-281h-615z" />
<glyph unicode="&#x2012;" horiz-adv-x="798" d="M92 477v281h615v-281h-615z" />
<glyph unicode="&#x2013;" horiz-adv-x="1306" d="M125 483v271h1059v-271h-1059z" />
<glyph unicode="&#x2014;" horiz-adv-x="2199" d="M145 483v271h1911v-271h-1911z" />
<glyph unicode="&#x2018;" horiz-adv-x="493" d="M63 1071q0 108 34 179q35 73 84 119t109 69q55 21 109 26v-139q-32 -5 -56 -15q-31 -13 -55 -32q-25 -21 -43 -49q-18 -29 -20 -64q9 3 17 6q13 5 28 5q79 0 119 -43q41 -44 41 -111q0 -66 -49 -112t-127 -46q-48 0 -82 18q-37 19 -59 47q-26 33 -37 66q-13 41 -13 76z " />
<glyph unicode="&#x2019;" horiz-adv-x="493" d="M63 1305q0 64 50 111q49 46 127 46q47 0 81 -17q37 -18 60 -46q25 -30 37 -67q12 -38 12 -77q0 -108 -34 -179q-35 -73 -84 -119q-48 -45 -108 -68q-58 -22 -110 -27v139q23 1 57 15q29 12 54 32q23 19 42 47q16 24 21 64q-16 -10 -45 -10q-79 0 -119 45q-41 46 -41 111z " />
<glyph unicode="&#x201a;" horiz-adv-x="493" d="M63 150q0 64 50 111q49 46 127 46q47 0 81 -17q37 -19 60 -47q26 -32 37 -67q12 -38 12 -76q0 -108 -34 -180q-34 -74 -84 -120q-49 -46 -108 -67q-60 -22 -110 -26v137q23 1 57 15q31 12 54 31q22 18 42 48q16 24 21 64q-5 -4 -18 -7q-12 -3 -27 -3q-79 0 -119 45 q-41 46 -41 113z" />
<glyph unicode="&#x201c;" horiz-adv-x="923" d="M63 1071q0 108 34 179q35 73 84 119t109 69q55 21 109 26v-139q-32 -5 -56 -15q-31 -13 -55 -32q-24 -20 -43 -48q-18 -28 -20 -63q1 0 7 2.5t10 4.5q11 4 28 4q78 0 119 -44t41 -112q0 -66 -49 -112t-127 -46q-48 0 -82 18q-37 19 -59 47q-26 33 -37 66q-13 41 -13 76z M496 1071q0 109 32 179q33 72 83 119q49 46 109 69q55 21 109 26v-139q-32 -5 -56 -15q-31 -13 -55 -32q-24 -20 -43 -48q-18 -28 -20 -63q1 0 7 2.5t10 4.5q11 4 28 4q78 0 119 -44t41 -112q0 -66 -49 -112t-127 -46q-48 0 -82 18q-35 18 -58 47q-25 31 -36 66 q-12 38 -12 76z" />
<glyph unicode="&#x201d;" horiz-adv-x="917" d="M63 1305q0 64 50 111q49 46 127 46q47 0 81 -17q37 -18 60 -46q25 -30 37 -67q12 -38 12 -77q0 -108 -34 -179q-35 -73 -84 -119t-108 -67q-60 -22 -110 -26v137q23 1 57 15q29 12 54 32q23 19 42 47q16 24 21 64q-1 0 -6 -2t-9 -4q-11 -4 -30 -4q-79 0 -119 45 q-41 46 -41 111zM489 1305q0 64 50 111q49 46 127 46q46 0 79 -17q38 -20 60 -46q25 -30 37 -67q12 -38 12 -77q0 -107 -33 -179t-83 -119q-49 -46 -108 -67q-60 -22 -110 -26v137q23 1 57 15q29 12 54 32q23 19 42 47q16 24 21 64q-6 -4 -17 -7q-12 -3 -28 -3 q-79 0 -119 45q-41 46 -41 111z" />
<glyph unicode="&#x201e;" horiz-adv-x="917" d="M63 150q0 64 50 111q49 46 127 46q47 0 81 -17q37 -19 60 -47q26 -32 37 -67q12 -38 12 -76q0 -108 -34 -180q-34 -74 -84 -120q-49 -46 -108 -67q-60 -22 -110 -26v137q23 1 57 15q31 12 54 31q22 18 42 48q16 24 21 64q-5 -4 -18 -7q-12 -3 -27 -3q-79 0 -119 45 q-41 46 -41 113zM487 150q0 64 50 111q49 46 127 46q46 0 80 -17q39 -19 61 -47q26 -32 37 -67q12 -37 12 -76q0 -108 -34 -180q-34 -74 -84 -120q-49 -46 -108 -67q-60 -22 -110 -26v137q21 1 56 15q33 13 55 31t42 48q16 24 21 64q-5 -4 -18 -7q-12 -3 -27 -3 q-79 0 -119 45q-41 46 -41 113z" />
<glyph unicode="&#x2022;" horiz-adv-x="1069" d="M106 621q0 88 34 166q35 81 92 138q56 56 137 92q77 34 166 34q88 0 165 -34q81 -36 137 -92q57 -57 92 -138q34 -78 34 -166q0 -87 -34 -164q-35 -79 -92 -136q-58 -58 -137 -93q-75 -33 -165 -33q-91 0 -166 33q-79 35 -137 93q-57 57 -92 136q-34 77 -34 164z" />
<glyph unicode="&#x2026;" horiz-adv-x="1875" d="M139 154q0 79 52 131q53 53 128 53q77 0 130 -53t53 -131q0 -37 -15 -70q-16 -35 -38 -57q-24 -24 -59 -39q-34 -15 -71 -15q-36 0 -69 15t-57 39t-39 57t-15 70zM756 154q0 79 52 131q53 53 128 53q77 0 130 -53q52 -52 52 -131q0 -39 -14 -70q-15 -33 -39 -57t-57 -39 t-72 -15q-37 0 -70 15t-57 39t-39 57q-14 31 -14 70zM1374 154q0 38 15 72q16 37 38 59q23 23 58 39q31 14 69 14q77 0 130 -53t53 -131q0 -37 -15 -70t-39 -57t-57 -39t-72 -15q-36 0 -69 15q-35 16 -58 39q-22 22 -38 57q-15 33 -15 70z" />
<glyph unicode="&#x202f;" horiz-adv-x="370" />
<glyph unicode="&#x2039;" horiz-adv-x="661" d="M53 608l287 410h289l-285 -412l283 -397h-291z" />
<glyph unicode="&#x203a;" horiz-adv-x="661" d="M33 209l284 397l-284 412h291l284 -410l-282 -399h-293z" />
<glyph unicode="&#x205f;" horiz-adv-x="462" />
<glyph unicode="&#x20ac;" horiz-adv-x="1380" d="M125 395v209h143q-2 22 -2 28v30v24q0 7 2 29h-143v207h186q38 101 103 181q68 83 150 138q88 59 186 88q104 31 211 31q113 0 199 -25q87 -25 153 -67l-115 -246q-45 30 -105 45q-56 14 -132 14q-90 0 -171 -37q-86 -39 -137 -122h500l-96 -207h-465q-2 -22 -2 -28v-25 v-27q0 -9 2 -31h422l-92 -209h-256q51 -70 130 -107q76 -36 169 -36q78 0 141 21q60 20 108 57l142 -234q-70 -54 -168 -91q-102 -38 -223 -38q-112 0 -216 29q-101 28 -187 84q-83 54 -149 135q-65 79 -102 180h-186z" />
<glyph unicode="&#x2122;" horiz-adv-x="1810" d="M72 1266v186h616v-186h-203v-561h-209v561h-204zM786 705v747h291l164 -397l156 397h291v-747h-205v454l-168 -454h-156l-170 446v-446h-203z" />
<glyph unicode="&#x25fc;" horiz-adv-x="1013" d="M0 0v1014h1014v-1014h-1014z" />
<glyph unicode="&#xfb01;" horiz-adv-x="1316" d="M23 756v262h161v88q0 87 26 160q25 70 76 124q47 50 123 80q73 29 164 29q39 0 80 -6q44 -6 64 -16v-254q-9 4 -32 7q-21 3 -56 3q-17 0 -44 -5q-22 -4 -43 -20q-20 -15 -33 -39q-13 -23 -13 -63v-88h686v-1018h-312v756h-374v-756h-312v756h-161zM844 1329q0 77 53 130 q52 52 127 52q79 0 131 -52q53 -53 53 -130q0 -76 -53 -129q-55 -53 -131 -53q-39 0 -70 14q-33 15 -57 39t-39 58q-14 32 -14 71z" />
<glyph unicode="&#xfb02;" horiz-adv-x="1318" d="M23 756v262h161v88q0 87 26 160q25 70 76 124q47 50 123 80q73 29 164 29q39 0 80 -6q44 -6 64 -16v-254q-9 4 -32 7q-21 3 -56 3q-17 0 -44 -5q-22 -4 -43 -20q-20 -15 -33 -39q-13 -23 -13 -63v-88h372v465h314v-1483h-314v756h-372v-756h-312v756h-161z" />
<glyph unicode="&#xfb03;" horiz-adv-x="1992" d="M23 756v262h161v88q0 87 26 160q25 70 76 124q47 50 123 80q73 29 164 29q41 0 82 -7q47 -8 66 -17v-252q-10 4 -35 7q-22 3 -57 3q-19 0 -46 -5q-22 -4 -43 -20q-20 -16 -32 -39q-12 -24 -12 -63v-88h358v88q0 87 26 160q25 71 75 124q48 51 122 80q73 29 164 29 q41 0 84 -6q45 -6 66 -16v-254q-10 4 -35 7q-23 3 -58 3q-17 0 -44 -5q-22 -4 -43 -20q-18 -14 -32 -39t-14 -63v-88h695v-1018h-314v756h-381v-756h-311v756h-358v-756h-312v756h-161zM1520 1329q0 77 53 130q52 52 129 52q78 0 130 -52t52 -130q0 -77 -52 -129 q-53 -53 -130 -53q-76 0 -129 53t-53 129z" />
<glyph unicode="&#xfb04;" horiz-adv-x="1996" d="M23 756v262h161v88q0 87 26 160q25 70 76 124q47 50 123 80q73 29 164 29q39 0 82 -6q45 -6 66 -16v-254q-10 4 -35 7q-22 3 -57 3q-17 0 -44 -5q-22 -4 -43 -20q-20 -15 -33 -39q-13 -23 -13 -63v-88h358v88q0 87 26 160q25 71 75 124q48 51 122 80q73 29 164 29 q41 0 84 -6q45 -6 66 -16v-254q-10 4 -35 7q-23 3 -58 3q-17 0 -44 -5q-22 -4 -43 -20q-18 -14 -32 -39t-14 -63v-88h383v465h312v-1483h-312v756h-383v-756h-311v756h-358v-756h-312v756h-161z" />
</font>
</defs>
</svg>
