<svg xmlns="http://www.w3.org/2000/svg" width="15" height="16" viewBox="0 0 15 16"><defs><linearGradient id="a" x1="50%" x2="50%" y1="100%" y2="0%"><stop offset="0%" stop-color="#FD3A84"/><stop offset="100%" stop-color="#FFA68D"/></linearGradient><linearGradient id="b" x1="50%" x2="50%" y1="100%" y2="0%"><stop offset="0%" stop-color="#FFC2CC"/><stop offset="100%" stop-color="#FFF2F4"/></linearGradient><linearGradient id="c" x1="50%" x2="50%" y1="100%" y2="0%"><stop offset="0%" stop-color="#FFC2CC"/><stop offset="100%" stop-color="#FFF2F4"/></linearGradient></defs><g fill-rule="nonzero" fill="none"><path fill="url(#a)" d="M10.425 15.833h-5.85a.439.439 0 0 1-.31-.128L.129 11.569A.44.44 0 0 1 0 11.258v-5.85c0-.116.046-.228.129-.31L4.265.962a.44.44 0 0 1 .31-.129h5.85c.116 0 .228.047.31.13l4.136 4.135a.436.436 0 0 1 .129.31v5.85a.436.436 0 0 1-.129.31l-4.136 4.137a.439.439 0 0 1-.31.128z"/><path fill="url(#b)" d="M1.5 5.727C.673 5.727 0 5.177 0 4.5V1.227C0 .551.673 0 1.5 0S3 .55 3 1.227V4.5c0 .677-.673 1.227-1.5 1.227z" transform="translate(6 3.833)"/><path fill="url(#c)" d="M1.5 9C.673 9 0 8.45 0 7.773s.673-1.228 1.5-1.228S3 7.096 3 7.773C3 8.449 2.327 9 1.5 9z" transform="translate(6 3.833)"/></g></svg>