<svg xmlns="http://www.w3.org/2000/svg" width="15" height="16" viewBox="0 0 15 16"><g fill-rule="nonzero" fill="none"><path fill="#FFF" d="M10.425 15.833h-5.85a.439.439 0 0 1-.31-.128L.129 11.569A.44.44 0 0 1 0 11.258v-5.85c0-.116.046-.228.129-.31L4.265.962a.44.44 0 0 1 .31-.129h5.85c.116 0 .228.047.31.13l4.136 4.135a.436.436 0 0 1 .129.31v5.85a.436.436 0 0 1-.129.31l-4.136 4.137a.439.439 0 0 1-.31.128z"/><path d="M7.5 9.56c-.827 0-1.5-.55-1.5-1.227V5.06c0-.676.673-1.227 1.5-1.227S9 4.383 9 5.06v3.273C9 9.01 8.327 9.56 7.5 9.56zm0 3.273c-.827 0-1.5-.55-1.5-1.227s.673-1.228 1.5-1.228 1.5.551 1.5 1.228c0 .676-.673 1.227-1.5 1.227z" fill="#FD6988"/></g></svg>